<?xml version="1.0" standalone="no"?>
<!DOCTYPE svg PUBLIC "-//W3C//DTD SVG 1.1//EN" "http://www.w3.org/Graphics/SVG/1.1/DTD/svg11.dtd" >
<svg xmlns="http://www.w3.org/2000/svg" xmlns:xlink="http://www.w3.org/1999/xlink" version="1.1">
<metadata></metadata>
<defs>
<font id="goudy_text_mlombardiccapitals" horiz-adv-x="768" >
<font-face units-per-em="2048" ascent="1536" descent="-512" />
<missing-glyph horiz-adv-x="512" />
<glyph horiz-adv-x="0" />
<glyph horiz-adv-x="682" />
<glyph unicode=" "  horiz-adv-x="512" />
<glyph unicode="&#x09;" horiz-adv-x="512" />
<glyph unicode="&#xa0;" horiz-adv-x="512" />
<glyph unicode="!" horiz-adv-x="405" d="M100 88q0 2 4.5 9t14 18t20.5 20q12 10 29 25.5t26.5 24t12.5 8.5q8 0 26 -21q6 -7 17 -20t17.5 -21t14 -18t11.5 -17t4 -12q0 -9 -44 -59t-56 -50q-11 0 -54 52t-43 61zM135 1010q0 32 21 41q115 47 129 47q12 0 16 -7t4 -26q0 -34 -38 -296t-42 -310q-9 -102 -13 -126 t-13 -24q-25 0 -31 234q-1 69 -17 259t-16 208z" />
<glyph unicode="&#x22;" horiz-adv-x="1136" d="M332 1098v303q0 56 49 74q11 4 31 14t35 17t18 7q14 0 14 -20v-295q0 -30 -2 -42t-13.5 -25t-37.5 -25q-7 -3 -22 -10.5t-27 -13t-19 -5.5q-26 0 -26 21zM659 1098v303q0 56 50 74q11 4 31 14t35 17t18 7q14 0 14 -20v-295q0 -30 -2 -42t-13.5 -25t-37.5 -25 q-7 -3 -22 -10.5t-27 -13t-19 -5.5q-27 0 -27 21z" />
<glyph unicode="#" horiz-adv-x="1366" d="M176 336l25 106h239l41 252h-245l24 107h244l55 336h119l-57 -336h270l57 336h119l-57 -336h223l-25 -107h-221l-41 -252h228l-25 -106h-225l-58 -336h-116l57 336h-272l-58 -336h-117l58 336h-242zM557 442h272l41 252h-272z" />
<glyph unicode="$" horiz-adv-x="815" d="M41 -4q0 64 22 133t51 111.5t52 42.5q93 0 285 -109v305l-60 43q-80 59 -117 88t-72 64.5t-46 65t-11 67.5q0 43 10.5 77.5t25 58.5t49.5 52.5t63 46.5t86 54q44 27 72 47v90q0 29 18 29t18 -29v-78q203 -111 236 -111q18 0 35 33q14 23 24 23q6 0 11.5 -4t5.5 -9 q0 -6 -24.5 -51t-62.5 -92t-65 -47q-25 0 -50 12.5t-110 67.5v-289l74 -53q138 -96 186 -154t48 -129q0 -38 -1 -57.5t-12.5 -46t-21.5 -40t-47.5 -46t-68.5 -56t-105 -77.5l-52 -37v-221q0 -23 -18 -23t-18 23v217q-15 5 -91.5 34.5t-144 53.5t-82.5 24q-31 0 -57 -86 q-12 -43 -23 -43q-12 0 -12 25zM283 913q0 -54 35 -95t133 -105v282q-53 45 -93 45q-31 0 -53 -37.5t-22 -89.5zM487 162q41 -41 91 -41q28 0 48.5 34.5t20.5 80.5q0 49 -33.5 94.5t-126.5 120.5v-289z" />
<glyph unicode="%" horiz-adv-x="1343" d="M102 578v253q0 122 43 168q25 27 114.5 82.5t109.5 55.5q5 0 57 -29q24 -15 37 -24.5t32.5 -28.5t29.5 -38.5t18 -49.5t8 -66v-250q0 -58 -10 -78t-58 -59q-149 -123 -172 -123q-35 0 -147 74q-62 42 -62 113zM231 645q0 -58 55.5 -104.5t123.5 -46.5q22 0 22 63v322 q0 71 -48 118t-120 47q-15 0 -23 -13t-9 -24.5t-1 -31.5v-330zM356 -33q0 4 3 10l8.5 17t9.5 20l547 1098q13 25 61 25q33 0 33 -19q0 -7 -21 -47l-555 -1098q-10 -24 -45 -24q-41 0 -41 18zM813 135v254q0 122 43 168q25 27 114 82t109 55q8 0 58 -28q24 -15 37 -24.5 t32.5 -28.5t29.5 -38.5t18 -49.5t8 -66v-250q0 -58 -10 -78t-58 -59q-149 -123 -172 -123q-36 0 -148 74q-61 41 -61 112zM942 203q0 -58 55 -105t123 -47q23 0 23 64v321q0 71 -48 118.5t-120 47.5q-33 0 -33 -70v-329z" />
<glyph unicode="&#x26;" horiz-adv-x="1492" d="M74 530q0 44 164 189q50 44 75.5 69t67.5 72q-75 114 -158 223q-57 76 -51 82l186 178q47 45 95.5 86.5t77 62.5t32.5 21q24 0 304 -180q7 -5 12 -8l10 -6q-43 -50 -95 -106t-119.5 -126t-101.5 -106l142 -236q8 0 17.5 11.5t29.5 44.5q7 11 15 25t12 20.5t10.5 15.5 t15.5 19q77 82 201 82q20 0 143 -16.5t146 -16.5q128 0 137 84q2 33 16 33q17 0 17 -39q0 -134 -61 -206.5t-175 -72.5q-21 0 -86 9t-82 10q29 -76 29 -123q0 -139 -156 -271q69 -102 107.5 -146t72.5 -44q20 0 44.5 20.5t41.5 51.5q14 26 27 26q12 0 12 -12 q0 -38 -116 -146.5t-187 -132.5q-33 18 -61 49.5t-80 106.5q-9 12 -43 61l-38.5 -28t-43 -32t-43 -31.5t-45 -32t-41.5 -29t-40 -26.5t-32 -19.5t-26.5 -14t-16.5 -4.5q-20 0 -110 134t-171 272t-81 153zM262 686q0 -60 154 -301l18 -29q82 -133 116 -182t50 -49 q6 0 30.5 14t58 39.5t54.5 50.5l-311 543q-14 24 -21 32.5t-20 8.5q-8 0 -68.5 -53.5t-60.5 -73.5zM379 1292q0 -60 178 -280l156 155q-152 121 -197.5 153t-73.5 32q-26 0 -44.5 -17.5t-18.5 -42.5zM750 698q0 -9 11.5 -32t65.5 -121q84 -152 107 -152q4 0 18 11t33.5 31.5 t37.5 46.5t31 61t13 69q0 63 -50 108.5t-120 45.5q-52 0 -99.5 -21t-47.5 -47z" />
<glyph unicode="'" horiz-adv-x="569" d="M211 1098v303q0 56 49 74q11 4 31 14t35 17t18 7q14 0 14 -20v-295q0 -30 -2 -42t-13.5 -25t-37.5 -25q-7 -3 -21.5 -10.5t-26.5 -13t-19 -5.5q-27 0 -27 21z" />
<glyph unicode="(" horiz-adv-x="555" d="M68 567q0 134 20 250t53 207t87 177t111 153.5t136 144.5q17 17 25 17q9 0 14.5 -5.5t5.5 -11.5t-6 -12q-50 -60 -84 -109.5t-72 -129.5t-61 -168.5t-38 -218.5t-15 -288q0 -185 17 -324.5t54.5 -245t81.5 -180t113 -159.5q4 -4 4 -14q0 -7 -4.5 -14t-9.5 -7q-7 0 -13 6 q-46 47 -69.5 72t-66 72t-66 80t-58 85t-54 97t-42.5 107t-35 123.5t-20 137.5t-8 158z" />
<glyph unicode=")" horiz-adv-x="555" d="M35 1499q0 6 5.5 11.5t14.5 5.5q8 0 25 -17q79 -77 136 -144.5t111 -153.5t87 -177t53 -207t20 -250q0 -82 -8 -158t-20 -137.5t-35 -123.5t-42.5 -107t-54 -97t-58 -85t-66 -80t-66 -72t-69.5 -72q-6 -6 -13 -6q-5 0 -9.5 7t-4.5 14q0 10 4 14q69 85 113 159.5t81.5 180 t54.5 245t17 324.5q0 158 -15 288t-38 218.5t-61 168.5t-72 129.5t-84 109.5q-6 6 -6 12z" />
<glyph unicode="*" horiz-adv-x="1792" d="M53 762q0 28 3.5 36.5t13.5 8.5h114q9 0 12.5 0.5t6 2.5t4.5 7q28 125 89.5 226.5t140 165.5t161 101t164.5 48l12 8v72q0 20 4.5 23t28.5 5l184 7q22 0 32 -3.5t11.5 -8.5t1.5 -17v-78l6 -4q434 -140 527 -514q7 -28 18 -34.5t41 -6.5h113q1 -47 -5.5 -121.5 t-11.5 -101.5q-4 -27 -10.5 -32t-32.5 -5h-84q-5 -6 -11.5 -22t-17 -42t-20.5 -47q-44 -96 -97 -169.5t-103 -117.5t-111.5 -75.5t-111 -46.5t-113.5 -27v-141q0 -16 -6.5 -22t-39 -11t-106.5 -8l-84 -4q-8 0 -12 5t-4 21l-2 160q-44 6 -70.5 12t-86 32.5t-116.5 70.5 q-56 43 -100.5 92t-71 88t-49.5 89.5t-32.5 79.5t-22.5 75l-8 8h-119q-15 0 -19 5t-4 30q0 17 -3 85.5t-3 94.5zM102 705q0 -72 7 -107h702l-4 -743q83 4 154 18l6 725h704q0 2 8.5 55t8.5 64q0 26 -7.5 31.5t-42.5 5.5h-671l16 669h-156l-10 -669h-688q-18 0 -22.5 -8 t-4.5 -41zM258 547q35 -180 184 -327t316 -169v152q-77 17 -140 58t-98 83t-60.5 91.5t-33 73t-10.5 38.5h-158zM258 807h143q3 4 11 21.5t21.5 46.5t27.5 53q33 57 78.5 101.5t90.5 69.5t80.5 38.5t63.5 17.5v150q-91 -12 -168.5 -45.5t-129 -77t-92.5 -95.5t-63.5 -99 t-37.5 -89.5t-20 -65t-5 -26.5zM477 807h291l6 299q-40 1 -79.5 -39.5t-39.5 -75.5q0 -47 21 -82q0 -10 -23 -10q-7 0 -30.5 5t-38.5 5q-46 0 -76.5 -37.5t-30.5 -64.5zM479 547q-4 -28 7 -48.5t27.5 -30.5t45.5 -15t46 -6t44 -1q11 0 16.5 -0.5t10 -4.5t4.5 -13 q0 -14 -5 -40t-5 -38q0 -57 29.5 -77.5t58.5 -14.5l4 289h-283zM563 383q0 -4 1.5 -10t9 -13.5t18.5 -7.5q19 0 31 14t12 29q0 12 -9.5 19.5t-17.5 7.5q-18 0 -31.5 -12.5t-13.5 -26.5zM567 975q0 -9 10.5 -18t20.5 -9q13 0 24 9.5t11 27.5q0 12 -9 20.5t-20 8.5 q-17 0 -27 -12.5t-10 -26.5zM1012 49q50 3 107.5 22.5t120.5 60t118.5 96.5t101.5 139t70 180h-152q-13 -43 -40.5 -91t-71 -99.5t-110.5 -93t-144 -58.5v-156zM1012 248q28 9 48 18.5t32.5 23.5t19.5 24.5t10 32t3.5 34.5t0.5 43q0 18 19 18q12 0 33.5 -4t31.5 -4 q68 0 118 107l3 6h-311zM1022 807h295q3 42 -31 73t-92 31q-8 0 -33 -4t-35 -4t-10 17q0 14 5 43t5 43q0 18 -3.5 29.5t-26 30.5t-66.5 36zM1034 1163q44 -11 87 -32t93.5 -60.5t95 -107t74.5 -156.5h138q-22 161 -159 304.5t-327 195.5zM1153 975q0 -8 12.5 -18.5 t26.5 -10.5q17 0 28 12t11 29q0 5 -5 15t-14 10q-22 0 -40.5 -11.5t-18.5 -25.5zM1157 369q2 -15 13.5 -27t27.5 -12q9 0 13.5 1t10 8.5t5.5 22.5q0 39 -37 39q-16 0 -24.5 -10.5t-8.5 -21.5z" />
<glyph unicode="+" horiz-adv-x="1366" d="M137 479v131h479v480h132v-480h479v-131h-479v-479h-132v479h-479z" />
<glyph unicode="," horiz-adv-x="512" d="M152 117q94 110 110 110q3 0 12 -6l88 -74q22 -19 28.5 -31t6.5 -36q0 -73 -30.5 -145.5t-70.5 -119t-74.5 -75.5t-47.5 -29q-4 0 -4 4q0 9 20 39q62 97 62 178q0 102 -86 160q-22 14 -14 25z" />
<glyph unicode="-" horiz-adv-x="370" d="M70 524q0 12 7.5 21t31.5 24q209 123 217 123q2 0 5.5 -15.5t6 -37t2.5 -37.5q0 -10 -24 -26.5t-126 -75.5q-5 -2 -32.5 -18.5t-52 -31t-25.5 -14.5q-4 0 -5.5 3t-3 23t-1.5 62z" />
<glyph unicode="." horiz-adv-x="512" d="M143 106q0 1 72 82q35 39 47 39q13 0 25 -12l82 -74q30 -23 30 -32q0 -7 -8 -15l-90 -102q-16 -21 -22 -21q-14 0 -61.5 45.5t-67.5 75.5z" />
<glyph unicode="/" horiz-adv-x="598" d="M78 -375l381 1880h90l-383 -1880h-88z" />
<glyph unicode="0" horiz-adv-x="686" d="M82 295q0 69 8 272t8 250q0 44 15 72t57 65q80 70 154 126.5t82 56.5q17 0 64 -38t99 -93q50 -54 61 -79.5t11 -80.5q0 -40 -6 -222t-6 -272q0 -65 -16 -98t-76 -94q-77 -79 -109 -107t-84 -65l-96 59q-99 61 -132.5 111.5t-33.5 136.5zM258 330q0 -38 19.5 -61t72.5 -58 q74 -49 88 -49q27 0 27 110l8 488q1 100 -53 163.5t-115 63.5q-18 0 -23.5 -19t-5.5 -67q0 -40 -9 -271.5t-9 -299.5z" />
<glyph unicode="1" horiz-adv-x="688" d="M117 985q0 13 33 42t139 110q100 -45 137 -90.5t37 -128.5q0 -72 -10.5 -429t-10.5 -434q0 -45 -7.5 -56t-35.5 -11q-41 0 -68.5 -22t-43.5 -89q-6 -27 -19 -27q-14 0 -14 17q0 15 10.5 131.5t11.5 179.5q1 28 5.5 168.5t8 275t3.5 183.5q0 92 -28 135t-75 43 q-14 0 -36.5 -5t-28.5 -5q-8 0 -8 12z" />
<glyph unicode="2" horiz-adv-x="681" d="M37 12q0 25 74 92q31 29 91.5 101.5t98.5 126.5q133 186 133 321q0 79 -35 150t-82.5 113.5t-90 67t-64.5 24.5q-20 0 -54 -23.5t-38 -23.5q-9 0 -9 10q0 22 52.5 63.5t104.5 72t58 30.5q13 0 74 -43q53 -36 75 -52t55 -43t45 -43.5t27 -43t19 -54.5t4 -65 q0 -81 -48.5 -186t-103.5 -180t-106 -126q-65 -62 -65 -90q0 -11 12 -15t60 -8q202 -26 213 -26q39 0 55 4.5t29 21.5q30 35 41 35q8 0 8 -12q0 -6 -6.5 -37.5t-18.5 -75.5t-35.5 -78t-52.5 -34q-4 0 -176.5 23.5t-208.5 23.5q-45 0 -100 -25q-16 -8 -27 -8q-8 0 -8 12z" />
<glyph unicode="3" horiz-adv-x="681" d="M63 911q0 54 89 185q17 28 24.5 34.5t20.5 6.5q17 0 119.5 -19.5t164.5 -19.5q42 0 91 11l49 11q10 0 10 -12q0 -27 -195 -246l-84 -92l45 -27q103 -61 141.5 -90t56.5 -60t26 -91q6 -69 6 -113q0 -153 -25 -236.5t-88 -142.5q-71 -66 -164 -130t-119 -64q-14 0 -14 8 q0 7 20 26.5t47 42.5t31 27q80 87 105.5 152.5t25.5 191.5q0 70 -3 111t-12.5 81t-29 62.5t-51.5 41t-82 32.5q-61 18 -61 39t57.5 84t114.5 125.5t57 81.5q0 7 -12 9.5t-49 4.5q-49 0 -146 20q-17 3 -36.5 7t-30 6t-17.5 2q-19 0 -29.5 -9t-17.5 -32q-1 -3 -3 -8.5t-3 -7.5 l-3 -6t-3 -5.5t-3 -4t-4 -3t-5 -0.5q-11 0 -11 16z" />
<glyph unicode="4" horiz-adv-x="681" d="M31 541q0 11 24.5 40.5t79 93t101.5 126.5q274 366 296 366q11 0 18 -21t7 -52v-473q0 -27 29 -27q6 0 39.5 5t40.5 5q16 0 16 -39q0 -30 -6 -40.5t-23 -10.5q-5 0 -34.5 3t-34.5 3q-27 0 -27 -14v-479q0 -17 -6.5 -25.5t-26.5 -17.5q-28 -13 -47.5 -29.5t-29 -36 t-13 -33.5t-6.5 -35q-6 -30 -10 -37.5t-15 -7.5q-16 0 -16 21v694q-44 0 -120 2t-101 2q-21 0 -61 -3t-48 -3q-15 0 -20.5 5t-5.5 18zM145 612q0 -9 23 -14q25 -6 141 -6q78 0 78 18v291q0 12 -6 12q-10 0 -31 -25t-78 -100q-81 -103 -104 -134.5t-23 -41.5z" />
<glyph unicode="5" horiz-adv-x="681" d="M29 811q0 13 33.5 49.5t119.5 120.5q117 115 141.5 135.5t49.5 20.5q15 0 108 -21.5t111 -21.5q5 0 34.5 7t35.5 7q8 0 8 -12q0 -28 -62.5 -102t-97.5 -74q-17 0 -113 43t-116 43q-31 0 -99 -68q56 -43 101 -76q45 -31 76.5 -54t60.5 -48t48 -41t35.5 -40t26 -37.5 t17 -41.5t10.5 -43.5t5.5 -52t2.5 -59.5v-72q0 -55 -0.5 -84.5t-3.5 -74.5t-9 -71t-18 -60.5t-29 -57.5t-42.5 -47t-59.5 -44q-95 -56 -180 -95.5t-112 -39.5q-7 0 -13 5.5t-6 11.5q0 7 10.5 13t42.5 19q146 60 193 164.5t47 341.5q0 94 -17 145t-63 96t-155 116 q-121 78 -121 100z" />
<glyph unicode="6" horiz-adv-x="686" d="M86 334q0 71 10 446q2 69 16 125t33 94t54 74t65 58t80 53q134 84 143 84q13 0 13 -8q0 -14 -54 -56l-28 -24q-62 -53 -93.5 -127.5t-43.5 -192.5q63 31 104 78q17 23 29 23q15 0 68 -35t102 -82.5t49 -75.5q0 -66 -10 -399q-2 -79 -9 -112t-25 -56.5t-71 -67.5l-63 -53 q-79 -67 -97 -80.5t-26 -13.5q-11 0 -62 30q-113 69 -148.5 134.5t-35.5 183.5zM266 301q0 -26 50 -84.5t124 -89.5q17 23 17 80l10 481q1 30 -67 81.5t-97 51.5q-37 0 -37 -45v-475z" />
<glyph unicode="7" horiz-adv-x="681" d="M68 942q0 30 59 125q4 7 12 19.5t11 18t9 13.5t10.5 11t11 5.5t14.5 2.5q22 0 133 -23.5t172 -23.5q7 0 47.5 2t48.5 2q12 0 12 -4q0 -31 -45 -154q-67 -182 -141 -454.5t-74 -432.5q0 -76 32.5 -188t68.5 -174q16 -31 16 -43q0 -6 -6 -6q-16 0 -29 10l-137 86 q-42 27 -52 41.5t-10 52.5q0 138 66 405q37 147 93 307.5t92 254t36 114.5q0 6 -7 10t-29.5 7t-67.5 6q-28 2 -141 23.5t-119 21.5q-14 0 -29 -7.5t-21 -17.5q-13 -20 -22 -20q-14 0 -14 10z" />
<glyph unicode="8" horiz-adv-x="681" d="M57 279q0 96 39.5 151t143.5 119q-81 89 -113.5 146.5t-32.5 113.5q0 46 12.5 75t47.5 64q69 69 149 129t94 60q26 0 82 -39q44 -29 70.5 -54t37.5 -52.5t13 -45t2 -51.5q0 -77 -18.5 -110t-87.5 -89l-66 -53l68 -57q90 -76 121.5 -122.5t31.5 -105.5q0 -77 -26 -147 q-139 -130 -180 -163t-101 -62l-35 20q-164 96 -208 142.5t-44 130.5zM221 377q0 -58 32.5 -106t78.5 -74t87.5 -40t67.5 -14q19 0 26 9t7 34q0 54 -17.5 100.5t-54 87t-75 71.5t-99.5 71q-2 0 -6 -2q-47 -55 -47 -137zM238 928q0 -60 20.5 -102.5t77.5 -102.5 q52 -55 61 -55q8 0 21.5 14t26 42.5t12.5 59.5q0 89 -51 158.5t-117 69.5q-51 0 -51 -84z" />
<glyph unicode="9" horiz-adv-x="688" d="M74 412q0 214 22.5 368.5t59.5 192.5q29 30 140.5 97t123.5 67l18 -9q43 -27 69.5 -44t51 -37.5t37.5 -31.5t24.5 -32t15.5 -32t7.5 -39t3.5 -46v-59q0 -479 -15 -713.5t-67 -292.5q-33 -37 -140.5 -100t-145.5 -63q-15 0 -15 12q0 3 25 25t58 52.5t48 49.5q32 45 46 130 t14 169q0 17 -4 22.5t-13 5.5q-12 0 -67.5 -46t-69.5 -46l-22 13q-43 30 -75.5 59t-54.5 52t-36.5 53t-22.5 49.5t-11.5 54t-4 55.5t-0.5 64zM240 489q0 -118 26.5 -174.5t104.5 -109.5q64 -41 84 -41q15 0 17.5 27t2.5 151q0 68 -1 207t-1 209v59t-6 42t-9.5 31.5t-22.5 27 t-33 29.5t-52 38q-25 19 -35 19q-16 0 -25.5 -8.5t-16.5 -35.5t-11 -70.5t-8 -121.5q-14 -266 -14 -279z" />
<glyph unicode=":" horiz-adv-x="512" d="M131 106q0 2 10 12.5t32.5 35t43.5 49.5q21 26 33 26t24 -10l86 -76q29 -25 29 -32t-8 -15l-90 -106q-11 -15 -17 -15q-7 0 -16 9l-90 79q-37 29 -37 43zM131 1016q0 12 72 96q9 11 19 19.5t16 12t8 3.5q12 0 22 -10l88 -76q8 -6 16 -15t12.5 -15t4.5 -7q0 -12 -51 -59 q-17 -15 -38.5 -36t-30 -28.5t-11.5 -7.5q-6 0 -16 10l-78 68q-33 28 -33 45z" />
<glyph unicode=";" horiz-adv-x="512" d="M152 117l57 67q12 13 25 23.5t20 15t8 4.5q3 0 12 -6l88 -74q22 -17 28.5 -29.5t6.5 -37.5q0 -103 -56.5 -198t-113.5 -140t-57 -27q0 9 20 39q62 97 62 178q0 102 -86 160q-21 16 -14 25zM160 1038v2l82 93q14 16 20 16l8 -4l97 -80q12 -8 12 -16q0 -7 -6 -19.5 t-11 -17.5l-65 -76q-13 -16 -16 -16q-2 0 -12 6.5t-28.5 22.5t-35.5 36l-43 47q-2 4 -2 6z" />
<glyph unicode="&#x3c;" horiz-adv-x="1366" d="M141 485v119l1084 457v-143l-908 -373l908 -375v-141z" />
<glyph unicode="=" horiz-adv-x="1366" d="M137 244v131h1090v-131h-1090zM137 715v131h1090v-131h-1090z" />
<glyph unicode="&#x3e;" horiz-adv-x="1366" d="M141 29v141l908 375l-908 373v143l1084 -457v-119z" />
<glyph unicode="?" horiz-adv-x="618" d="M98 610q0 40 152 49q118 6 209 39q4 8 4 25q0 117 -58 191.5t-149 74.5q-5 0 -31 -11t-32 -11q-7 0 -7 8q0 19 62 84t96 65q7 0 28 -7.5t50.5 -24t57 -39.5t46.5 -58t19 -75q0 -106 -48 -216t-83 -141q-9 -7 -59 -23t-93 -33.5t-43 -31.5q0 -18 18 -50.5t42 -57.5 q18 -21 18 -29q0 -10 -8 -10q-21 0 -67.5 53t-85 121.5t-38.5 107.5zM180 88q0 8 55 69.5t68 61.5t42 -26t52 -51.5t23 -28.5t-4.5 -12t-5.5 -9l-68 -80q-30 -37 -43 -37q-8 0 -63.5 49t-55.5 64z" />
<glyph unicode="@" horiz-adv-x="1642" d="M123 410q0 159 59.5 308.5t166 265t266.5 185.5t348 70q116 0 224.5 -47t191.5 -129t132.5 -204.5t49.5 -264.5q0 -283 -181.5 -441.5t-480.5 -158.5q-14 0 -19.5 3.5t-8.5 21t8 55.5l6 39q-177 -119 -246 -119q-16 0 -43 24l-80 70q-14 11 -14 14q0 11 19.5 22.5 t21.5 29.5l94 610q3 22 10.5 29t42.5 20q64 24 154 80q57 33 71 33q21 0 142 -46.5t121 -60.5q0 -11 -13 -19t-16 -24l-94 -571q-6 -36 2.5 -59t27.5 -23q100 0 184 69t131.5 182.5t47.5 243.5q0 68 -21.5 140t-65 139t-103.5 119.5t-143 83t-177 28.5q-159 0 -293.5 -63.5 t-222.5 -168.5t-137 -237.5t-49 -273.5q0 -88 20.5 -175t65 -168.5t107.5 -144t154.5 -100t200.5 -37.5q81 0 155.5 21t172.5 86q11 8 30.5 -11t26.5 -43t-8 -40q-167 -123 -409 -123q-99 2 -190.5 33t-171.5 93.5t-139.5 150t-93.5 212t-34 271.5zM713 182 q1 -10 37.5 -35.5t48.5 -25.5q21 0 58 25.5t40 43.5l86 539q-3 16 -69 41t-89 25q-9 0 -17 -10t-11 -23l-84 -522q-3 -31 0 -58z" />
<glyph unicode="A" horiz-adv-x="1812" d="M94 -285q186 220 279 527l-6 8q-44 -14 -95 -14q-66 0 -98.5 48.5t-32.5 129.5q0 120 54.5 242.5t152.5 258.5q137 189 412 412q-24 2 -145 8.5t-178.5 11t-151.5 14.5t-164 23l-4 11l8 20q153 -27 242 -35q191 -18 426 -18q415 0 649 10t350 43q10 -13 10 -31l-141 -30 q-17 -3 -24.5 -14t-10.5 -35q-12 -105 -12 -369q0 -176 14 -522t41 -367l191 -22l-5 -31q-35 1 -129 5.5t-145 4.5q-31 0 -92 -2t-92 -2q-99 0 -295.5 3t-294.5 3q-138 0 -302 -5.5t-181 -14.5q-7 -4 -32 -43.5t-52.5 -85t-36.5 -56.5q-55 -71 -97 -102zM336 36l221 -1 q132 0 389 5t277 15q24 12 37.5 122t13.5 183v258q0 35 -15 51.5t-53 16.5q-81 0 -192 -12q-1 -8 8.5 -21.5t9.5 -21.5q0 -24 -16 -43t-51 -19q-30 0 -51 15.5t-21 33.5q0 21 11 36.5t11 19.5q-296 -30 -389 -68l-106 -344q-4 -14 -41.5 -110t-42.5 -116zM598 809 q0 -28 25 -37q32 -11 125 -11q22 0 47 1l114 2l4 12q-18 23 -18 58q0 19 18.5 35t44.5 16q34 0 50 -22.5t16 -39.5t-35 -41l12 -12q101 0 236 31q18 5 25 12.5t12.5 43.5t5.5 110q0 236 -29 331q-2 9 -8.5 15t-18.5 9.5t-22 6t-29.5 3.5t-32 1h-36.5q-244 0 -273 -14 q-37 -21 -93.5 -121t-98 -215t-41.5 -174zM1507 1044q0 -149 8 -517.5t11 -446.5q0 -22 10 -26.5t55 -4.5q11 0 17 7t6 16q0 15 -9 124t-17.5 299.5t-8.5 401.5q0 127 4 224.5t8 144t4 49.5q0 9 -5.5 15.5t-12.5 6.5l-55 -8q-5 -5 -10 -118t-5 -167z" />
<glyph unicode="B" horiz-adv-x="1728" d="M70 -160q0 53 60 105.5t153 97.5q39 315 39 629q0 291 -13 385q-5 41 -26 41q-18 0 -48 -1t-40 -1q-48 0 -71.5 24t-23.5 56q0 35 33 77q51 62 51 86q0 14 -9 24.5t-17 10.5l-27 -14q-8 0 -8 14q0 23 14.5 38t42.5 15q30 0 55 -27t25 -57q0 -27 -20 -50t-43.5 -37 t-43.5 -35.5t-20 -46.5q0 -17 18.5 -27t41.5 -10q56 0 174.5 32t205.5 68q257 106 318 124q83 25 182 25q149 0 272.5 -53t194 -144t70.5 -198q0 -60 -20.5 -106.5t-59 -77t-84.5 -50.5t-107 -34l9 -10q140 -29 234.5 -117.5t94.5 -224.5q0 -57 -18.5 -110.5t-63 -105 t-110 -89.5t-166.5 -61t-227 -23q-112 0 -263.5 23.5t-248.5 23.5q-101 0 -187.5 -16.5t-141 -42t-85.5 -55.5t-31 -58q0 -33 21 -33l22 10q10 0 10 -12t-19 -30.5t-42 -18.5q-21 0 -39 18.5t-18 48.5zM565 633q0 -278 66 -426q31 -68 46 -89.5t40 -21.5q43 0 43 23 q0 11 -8 26t-21.5 37t-21.5 39q-76 164 -76 416q0 299 112 569v11q-39 -14 -63 -28t-28 -19t-11 -15q-28 -49 -53 -197.5t-25 -324.5zM668 612q0 -155 29.5 -269.5t82 -178.5t115 -93.5t137.5 -29.5q138 0 212.5 98.5t74.5 280.5q0 135 -45.5 208.5t-128.5 73.5 q-51 0 -88 -32t-37 -76q0 -34 20.5 -54t46.5 -20q24 0 60 43q9 0 15.5 -14.5t6.5 -30.5q0 -53 -40.5 -80.5t-88.5 -27.5q-60 0 -96.5 42t-36.5 89q0 52 60 108l-4 4q-22 -5 -47.5 -2t-71 9t-68.5 6q-19 0 -31 -7q-1 -1 -12 -11.5t-14 -10.5q-10 0 -10 14q0 17 20.5 48.5 t52.5 48.5q56 29 132 29q12 0 24 -1q-39 59 -39 105q0 54 38 86t85 32q37 0 66.5 -25.5t29.5 -55.5q0 -20 -14 -30.5t-27 -10.5q2 21 -8.5 36t-28.5 15q-15 0 -24.5 -13.5t-9.5 -31.5q0 -53 38.5 -93t81.5 -40q33 0 72 23.5t57 57.5q29 55 29 175q0 161 -67 249t-183 88 q-83 0 -147.5 -41t-105 -109t-66.5 -164t-36.5 -198t-10.5 -219z" />
<glyph unicode="C" horiz-adv-x="1556" d="M76 666q0 54 4.5 97.5t21 114t58 144t106.5 141.5q114 122 276.5 197.5t354.5 75.5q275 0 500 -174q9 0 16 41q7 40 29 75t33 35q14 0 14 -22l-8 -41q-18 -135 -31.5 -479t-13.5 -539q0 -140 4.5 -221.5t21.5 -210.5l23 -164q0 -6 -4 -11.5t-8 -5.5q-14 0 -25 24 t-19.5 73.5t-11.5 72.5t-8 72q-6 73 -11 92t-20 19l-141 -52q-93 -30 -175 -44.5t-192 -14.5q-27 0 -57.5 1.5t-88 9.5t-111 20.5t-120.5 38.5t-123.5 61t-112 89.5t-94.5 121t-63 160.5t-24 203zM344 666q0 -162 37 -268.5t82 -164.5q21 -26 34.5 -41t38.5 -33.5t44 -17.5 q-22 35 -42.5 76.5t-49 112t-45.5 160.5t-17 182q0 142 23 256.5t96 251.5q-7 1 -28 -17.5t-50.5 -60.5t-57 -99t-46.5 -146.5t-19 -190.5zM465 705q0 -313 136 -504t349 -191q95 0 157.5 36.5t178.5 146.5q74 70 89.5 104.5t15.5 108.5l12 448q0 129 -46.5 235 t-120.5 170.5t-159.5 99t-171.5 34.5q-121 0 -223.5 -101.5t-159.5 -259.5t-57 -327z" />
<glyph unicode="D" horiz-adv-x="1898" d="M59 1352q0 14 4 30.5t22.5 35t49.5 18.5q28 0 50 -15.5t22 -29.5q0 -4 -3 -8.5t-7 -4.5l-29 6q-21 0 -31 -16t-10 -37q0 -35 52 -68.5t149 -33.5q71 0 155.5 20t229.5 72q159 57 251 79.5t193 22.5q149 0 276 -50.5t220 -144t145.5 -235.5t52.5 -317q0 -89 -16.5 -170 t-44.5 -141.5t-54 -101.5t-55 -73q-49 -57 -109 -98.5t-112.5 -63t-115.5 -33.5t-106 -15t-97 -3q-33 0 -193.5 10t-173.5 11q-148 8 -328 8q-158 0 -262 -35l-34 -14q-11 0 -11 8q0 20 52 38t96.5 25t68.5 9q37 4 45 23t13 104q16 294 16 590q0 228 -22 391q-9 53 -41 53 q-308 0 -308 154zM643 668q0 -285 72 -508q10 -29 14 -39.5t13 -27t18.5 -22t25 -10t37.5 -4.5q12 0 27.5 4t15.5 13l-16 30q-119 200 -119 553q0 142 12 256t29.5 177t34.5 104.5t29 61.5t12 24t-4.5 8t-9.5 4q-20 0 -52 -12t-45 -31q-31 -43 -62.5 -197.5t-31.5 -383.5z M762 672q0 -37 1 -68t5 -91t13.5 -109.5t24 -110.5t39.5 -107.5t57.5 -87t81 -62.5t106.5 -22q13 0 31.5 2.5t58.5 17t76.5 38.5t79 74.5t73.5 118t51.5 175.5t20.5 240q0 129 -17 235.5t-44 177.5t-64 125.5t-73 84.5t-76 49t-68.5 24.5t-53.5 5.5q-58 0 -105.5 -24.5 t-80.5 -65t-58 -99t-40 -119.5t-24 -134.5t-12 -136t-3 -131.5zM1384 1339q0 -3 30 -26t64.5 -50t41.5 -34q39 -37 69.5 -79.5t61.5 -111t48 -171t17 -230.5q0 -249 -166 -483q-1 -2 -25 -28.5t-24 -33.5q0 -6 6 -6q28 0 110 81t101 114q107 187 107 403q0 110 -22.5 205.5 t-58 161.5t-80 120t-87.5 86.5t-82 54t-61.5 30t-28.5 8.5q-21 0 -21 -11z" />
<glyph unicode="E" horiz-adv-x="1556" d="M74 657q0 130 33 241t87 189t127 140.5t148.5 100.5t156 63t146 35t121.5 10q117 0 226 -35.5t245 -114.5q7 -4 16.5 -10.5t15.5 -10t9 -3.5q14 0 49 96t53 96q15 0 15 -14t-14 -47t-31 -80.5t-31 -173t-14 -301.5q0 -726 14 -828l37 -284q0 -6 -4.5 -11.5t-10.5 -5.5 q-20 0 -36.5 56t-25.5 136t-14 139t-6 93q-25 -24 -41.5 -38t-60 -39t-91 -39t-127.5 -25.5t-177 -11.5q-381 0 -598 177t-217 500zM336 696q0 -118 34 -241.5t98 -216.5t140 -111l4 4q-76 79 -129 239.5t-53 340.5q0 292 131 501l-4 5q-78 -53 -129 -139.5t-71.5 -180.5 t-20.5 -201zM469 655q11 -142 45.5 -254t94 -196t150.5 -129t208 -45q40 0 65.5 4.5t68.5 22t97 60t123 111.5q52 50 62 86.5t10 145.5q0 39 -0.5 59t-2.5 48.5t-7 43.5t-13 21q-27 18 -207.5 28.5t-296.5 10.5q-288 0 -397 -17zM469 774q33 -4 109 -4q108 0 242 7t250 16 t142 10q132 6 164 24q6 24 6 47q0 105 -29 194t-76.5 148.5t-109 101t-126 60.5t-128.5 19q-81 0 -154 -38t-126 -101.5t-91.5 -143.5t-56.5 -168q-16 -79 -16 -155v-17z" />
<glyph unicode="F" horiz-adv-x="1515" d="M35 -10q25 29 201 43q23 2 31.5 6.5t18.5 26.5t19 71q27 135 27 641q0 227 -5 348.5t-13.5 161.5t-24.5 49q-16 8 -97.5 24.5t-87.5 18.5q-31 7 -28 29l190 -10q99 -8 475 -8l447 10l160 8q54 0 65 9.5t14 49.5h27q-24 -130 -30 -325q-2 -86 -3 -185q0 -126 4 -272 l2 -438q0 -23 -14 -23q-11 0 -16 37q-15 150 -15 170l-2 174q-9 20 -29.5 27.5t-84.5 13.5q-190 17 -418 23l-135 4q-11 0 -15.5 -3.5t-5.5 -15.5l-8 -131l6 -315l8 -139q0 -11 4.5 -16t18.5 -5q42 0 141.5 -6t132.5 -12q46 -8 57 -13t11 -22q-12 -4 -29 -4l-270 10l-457 -8 q-111 -3 -272 -23v19zM561 256q0 -108 5.5 -154.5t14 -55.5t31.5 -9q27 0 37 9.5t10 39.5l-6 111q-4 88 -4 249v568l10 289q0 24 -8.5 36.5t-36.5 12.5q-19 0 -26.5 -5t-13.5 -34t-7 -92zM686 834q0 -46 11 -56t61 -10q161 0 336.5 29.5t261.5 72.5q24 70 24 183l-4 53 q-77 61 -173 108t-174.5 70.5t-154.5 38t-109.5 17.5t-43.5 3q-14 0 -17.5 -6.5t-3.5 -19.5l-12 -213z" />
<glyph unicode="G" horiz-adv-x="1622" d="M72 659q0 158 64 298.5t173 241.5t259 159.5t317 58.5q206 0 405 -104q5 -3 33.5 -22.5t54.5 -35.5t35 -16q8 0 12.5 5t16.5 28q78 147 94 164q7 8 12 8q3 0 7 -4.5t4 -7.5q0 -1 -12.5 -25t-32.5 -70.5t-41 -109t-40.5 -159.5t-29.5 -204q-2 -25 -12 -41l-2 -8 q186 -150 186 -342q0 -76 -22 -146.5t-73 -137.5t-126.5 -116.5t-191.5 -79.5t-259 -30q-137 0 -253 23.5t-200 63.5t-150.5 96t-108.5 117.5t-69.5 131.5t-38.5 134.5t-11 129.5zM338 678q0 -77 15.5 -161.5t47.5 -172t92 -155t138 -91.5l4 4q-207 202 -207 586 q0 294 131 516l-4 4q-217 -172 -217 -530zM461 688q0 -151 39 -281t104 -216.5t147.5 -135.5t170.5 -49q58 0 105 21t77 52t52 75.5t32.5 83.5t17 85t7.5 70t1 47q0 175 -78.5 282t-191.5 107q-68 0 -117 -41t-49 -110q0 -49 30.5 -80t59.5 -31q20 0 31.5 11t11.5 24 q0 9 -7.5 21.5t-18.5 13.5q-26 8 -27 12q0 3 4 9.5t17.5 13t31.5 6.5q44 0 64 -32.5t20 -61.5q0 -33 -24 -58t-58 -30v-4q23 -10 37.5 -20t29.5 -40t15 -74q0 -73 -41 -115t-92 -42q-34 0 -59 22q-29 29 -39 29q-13 0 -33 -25l-6 23q0 19 14 30t33 11q6 0 20.5 -6t22.5 -15 q29 -25 35 -26q12 0 21.5 15.5t9.5 35.5q0 21 -11.5 37.5t-68.5 77.5q-101 110 -101 217q0 44 23 91t66 90t116.5 71t163.5 28q100 0 209 -33q2 0 35 -12t41 -12l16 4v8q0 59 -51 187l-20 45t-29.5 55.5t-42 64t-55 60t-71 54.5t-87.5 35.5t-107 14.5q-91 0 -167 -42 t-126.5 -110.5t-86 -159.5t-51 -186t-15.5 -192z" />
<glyph unicode="H" horiz-adv-x="1898" d="M80 -25q21 45 199 45q33 0 47.5 11t25.5 57q16 65 24 187.5t8.5 201t0.5 277.5v192q0 240 -10 338q-3 37 -19 37q-47 0 -68 0.5t-55.5 5.5t-58.5 16q-40 18 -62 45.5t-22 51.5q0 28 31 28q16 0 16 -10l-10 -24q0 -35 54.5 -52.5t119.5 -17.5q62 0 117 13t164 50l131 48 q14 0 20 -17t6 -61q-14 -318 -14 -391v-9q221 156 371 156q130 0 258.5 -58t227.5 -155t160.5 -232t61.5 -280q0 -65 -14 -115.5t-34.5 -79.5t-48.5 -47t-51.5 -24t-47.5 -6q-16 0 -66 12q-1 0 -23.5 8t-27.5 8q-8 0 -12 -8.5t-4 -15.5q0 -4 10.5 -51t32 -121.5t43.5 -124.5 q85 -193 208 -193q48 0 74.5 25t26.5 55q0 23 -19.5 36t-62.5 21q-36 7 -53.5 12t-40.5 14t-33 20.5t-17.5 30t-7.5 44.5q0 28 12 49t31 31.5t38 15.5t38 5q36 0 62 -17.5t26 -48.5q0 -3 -3.5 -6.5t-6.5 -3.5l-23 29q-14 14 -30 14q-19 0 -32 -19t-13 -49q0 -59 61 -59 q37 0 74 -31t37 -88q0 -53 -40 -84t-85 -31q-52 0 -97 22.5t-77.5 57t-60.5 89.5t-46 106.5t-32.5 122t-22.5 122.5t-14 122t-8.5 105.5t-4.5 86.5q-8 173 -18.5 258t-34.5 145q-39 105 -118 168.5t-177 63.5q-46 0 -87.5 -14t-73 -36t-62 -55.5t-51.5 -64.5t-45 -72 q-35 -61 -35 -323q0 -118 10 -236t22.5 -186t20.5 -72q144 -21 201 -37q125 -32 125 -110q0 -33 -20.5 -53.5t-45.5 -20.5q-5 0 -25.5 7t-21.5 7v15q1 0 3 1q37 14 40 35q0 63 -91.5 88t-297.5 25q-44 0 -387 -14q-7 -1 -67.5 -9t-71.5 -8zM606 518q0 -289 25 -426 q4 -20 7 -28.5t12 -16.5t26 -8q33 0 33 29l-11 149q-12 177 -12 416q0 227 6 362l19 412q0 20 -17 20q-5 0 -16.5 -2.5t-26.5 -13.5t-16 -27q-29 -407 -29 -866z" />
<glyph unicode="I" horiz-adv-x="1130" d="M117 1448q0 13 7.5 23t20.5 10q11 0 22 -7.5t11 -17.5q0 -37 4 -41q21 -16 127.5 -33.5t233.5 -17.5q123 0 251.5 9.5t194.5 27.5q88 22 101 22q24 0 24 -16q0 -7 -10.5 -14t-29.5 -13t-39 -11.5t-47 -11t-46 -9.5t-42.5 -8t-29.5 -5q-27 -84 -42 -270t-15 -297 q0 -206 13 -354t25 -201t34 -123q9 -27 19.5 -32t53.5 -5l158 -12q76 -6 76 -29q0 -7 -8.5 -11.5t-18.5 -4.5q-47 0 -170 5t-170 5q-395 0 -585 -35q-4 -1 -31 -10.5t-31 -9.5q-24 0 -24 18q0 20 21.5 35t37.5 19t31 6q21 4 209 16q16 237 16 565q-1 74 -1 152 q-4 427 -15 555q-18 4 -106 13.5t-101 12.5q-24 5 -48 13.5t-52.5 33.5t-28.5 58zM705 752q0 -77 1.5 -150t7.5 -220.5t24 -238t46 -90.5q30 0 42 4t12 17l-23 110q-13 77 -18.5 124.5t-11 171t-5.5 315.5q0 115 14 298t29 238q-82 0 -88 -16q-2 -4 -8.5 -64.5t-14 -200.5 t-7.5 -298z" />
<glyph unicode="J" horiz-adv-x="1280" d="M166 1417q0 25 22 47q18 19 51 19h9q-8 -16 -8 -21q0 -32 55.5 -53t145.5 -29t145 -10t112 -2q272 0 444.5 36.5t235.5 72.5l4 -3q4 -2 6.5 -4.5t2.5 -5.5q0 -16 -53.5 -35.5t-146.5 -46.5q-10 -3 -15 -4q-30 -28 -45.5 -53.5t-38.5 -93.5q-43 -130 -43 -297 q0 -111 22 -305q31 -303 31 -430q0 -266 -123.5 -412.5t-370.5 -146.5q-105 0 -194 32q-79 29 -109 29q-6 0 -13 -1.5t-19.5 -6.5t-21 -19t-9.5 -34h-15q-10 36 -10 55q0 39 26.5 71.5t73.5 32.5q36 0 68 -11.5t113 -51.5q110 -55 190 -55q85 0 166 46t132.5 125t51.5 166 q0 52 -26.5 82.5t-128.5 108.5q-94 72 -132 134t-38 161q0 405 399 846q-32 2 -58.5 -1t-106.5 -33t-189 -89q-101 -54 -134 -70.5t-71 -28.5t-78 -12q-41 0 -75.5 25t-34.5 63q0 23 11.5 46t22.5 36t31 33h-45.5t-44.5 1.5t-45.5 4t-39.5 7t-36.5 11.5t-27 17t-19.5 24.5 t-6 32.5z" />
<glyph unicode="K" horiz-adv-x="1921" d="M90 -221q0 40 31.5 96.5t87.5 91.5q55 33 151 64q22 21 32 52.5t20 86.5q13 87 19.5 135.5t14 175t7.5 283.5q0 57 -1.5 134t-6 186.5t-15.5 188.5t-27 93q-11 9 -84 18t-137.5 22.5t-64.5 33.5q0 12 14 12l59 -8q198 -24 659 -24q68 0 142 1l742 6q35 0 66 -4t65 -13.5 t54.5 -31t20.5 -51.5q0 -20 -11.5 -36.5t-26.5 -16.5q-14 0 -22.5 11t-8.5 26q0 31 -28 54.5t-54 23.5h-141q8 -36 8 -64q0 -127 -112.5 -259t-301.5 -204q380 -137 514 -512q24 -65 42 -150t22 -128q1 -23 6 -29t20 -6q42 0 113 -19q0 -14 -1 -19.5t-6 -10t-16 -4.5 l-209 12q-156 4 -469 4l-591 4q-269 0 -349 -29q-74 -26 -130 -76t-56 -106q0 -17 6 -29q15 -8 18 -11t3 -13q0 -11 -10 -19t-17 -8q-20 0 -27 11q-14 28 -14 55zM656 414q0 -69 3.5 -188.5t10.5 -151.5q5 -25 47 -25q45 0 45 27q0 40 -8.5 119.5t-8.5 119.5l-2 1006 q0 30 -6 45q-8 4 -39 4q-32 0 -36 -6q-7 -7 -6 -82v-868zM776 1155l2 -770q0 -129 15 -283q4 -40 20.5 -48t91.5 -11l492 -2q63 0 69 16q7 15 15 62.5t8 97.5q0 148 -55.5 290t-157 235.5t-219.5 93.5q-87 0 -129.5 -41t-42.5 -97q0 -37 21.5 -63.5t47.5 -26.5l33 13 q12 0 12 -13q0 -16 -19.5 -26.5t-41.5 -10.5q-43 0 -76 39.5t-33 89.5q-1 84 79 138q74 50 207 49h20q58 22 108 84t76.5 132t26.5 128q0 42 -7.5 71.5t-17 44t-28 22t-29.5 8.5t-33 1h-340q-104 0 -111 -12q-4 -8 -4 -211z" />
<glyph unicode="L" horiz-adv-x="1536" d="M29 1434q0 9 10 12q119 -27 364 -27q326 0 461 6l316 13q14 0 14 -11q0 -22 -51 -22l-219 -19l-170 -8q-24 -3 -39 -10q-8 -106 -8 -547l6 -708q0 -26 5 -34.5t17 -8.5q37 0 80.5 4t118 20.5t143.5 43.5t148.5 79.5t142.5 122.5q2 24 15 102t31.5 184.5t23.5 129.5 q21 110 39 110q10 0 10 -14l-31 -207q-15 -109 -31 -279t-16 -255l5 -265l-9 -2q-10 0 -16.5 29.5t-11 63.5t-9.5 40l-6 9q-68 16 -356 16l-437 -2l-243 4q-86 0 -168 -10l-105 -25v27q15 8 71.5 21.5t109.5 24.5l53 11q32 17 43 57t20 136q25 271 25 438q0 190 -17.5 397 t-52.5 267q-11 21 -26.5 25t-81.5 9q-34 0 -101 14.5t-67 37.5zM575 1198l7 -608l-4 -232l6 -280q8 -33 45 -33q17 0 29.5 7.5t13.5 19.5q2 10 2 45t-1 88.5t-1 77.5l2 1077q-2 14 -11 19t-36 5t-35 -8q-5 -7 -11 -65.5t-6 -112.5z" />
<glyph unicode="M" horiz-adv-x="2240" d="M135 -98q0 26 19 55q31 -53 84 -53q36 0 67 17.5t52.5 41t41 64.5t29.5 68.5t21 74.5t13.5 61t8.5 48q23 153 39 386t16 439q0 55 -6 156t-18 110q-3 3 -37.5 8t-81 11t-66.5 10q-45 9 -86 28t-41 39q0 6 5 10.5t10 4.5l129 -31q48 -8 85.5 -11.5t164.5 -7t389 -6.5 l844 -14q205 0 417 23l50 6q18 0 18 -21q0 -14 -9 -19t-30 -7q-110 -9 -141 -13t-49 -12q-16 -7 -26 -34.5t-12 -47.5t-5 -61q-11 -169 -11 -361q0 -239 14.5 -425.5t30 -268t29.5 -98.5q9 -12 22.5 -16.5t63.5 -10.5q79 -6 113 -20q16 -3 16 -21q0 -22 -29 -22 q-25 0 -102 3.5t-159.5 7.5t-98.5 5l-262 6l-254 -4l-4 14q0 18 60.5 24t125 9.5t70.5 15.5q4 10 8 221.5t4 293.5l2 200q0 354 -4 430h-23q-17 -28 -88.5 -194t-154 -363t-99.5 -235q-138 -291 -165 -371q-17 -51 -33 -51q-15 0 -26 16.5t-42 85.5q-287 585 -407 856 q-24 51 -30 54q-3 2 -7 2q-15 0 -15 -13l2 -31q2 -32 1 -38q-9 -88 -9 -187q0 -156 -28.5 -385.5t-89.5 -396.5q-4 -13 -31.5 -74.5t-49.5 -117.5t-22 -74q0 -16 9 -25t34 -22q-29 -11 -41 -11q-37 0 -63.5 29.5t-26.5 63.5q0 38 25 86q-20 -3 -38 -3q-45 -1 -73 21 q-40 30 -39 72zM680 1366q0 -4 7 -19.5t16.5 -35t11.5 -23.5q231 -474 323 -678q88 -192 109 -232t35 -40q11 0 28 30.5t17 39.5q0 5 -29 63l-233 494q-16 33 -58.5 126.5t-77.5 167t-61 123.5l-63 2q-25 0 -25 -18zM823 1370q0 -4 92 -203.5t199.5 -424.5t140.5 -283 q47 87 246 559q24 57 49.5 117t40.5 94.5t27.5 65t18 44.5t5.5 17q0 4 -4 8t-8 4q-60 0 -357 6t-435 8q-15 0 -15 -12zM1905 834q0 -343 18 -594l14 -131q0 -14 1.5 -21.5t8 -18t23 -15.5t43.5 -5q29 0 29 25q0 8 -5 42t-12 74.5t-8 47.5q-13 102 -24 273.5t-11 295.5 q0 172 11 344l16 176q0 14 -8 22t-14 9.5t-11 1.5q-43 0 -49 -94q-22 -259 -22 -432z" />
<glyph unicode="N" horiz-adv-x="1898" d="M41 1163q0 43 31 68.5t65 25.5q8 0 16.5 -4t8.5 -10q0 -3 -18.5 -15t-20.5 -14q-8 -10 -8 -28q0 -35 28 -55.5t56 -20.5q42 0 85.5 19t186.5 102q121 72 290.5 135.5t321.5 63.5q36 0 82 -4.5t118.5 -21t140.5 -43t139.5 -76.5t124 -115.5t86.5 -165t34 -220.5 q0 -174 -84.5 -335.5t-265.5 -323.5l-53 -45l-4 -12q0 -21 22 -21q169 0 238 -5.5t190 -27.5l37 -6q8 -4 8 -10q0 -14 -16 -14q-12 0 -127 13t-139 13l-275 -6q-7 0 -12 6t-6.5 12t-1.5 11q0 23 37 78q66 106 113 273t47 374q0 126 -13.5 221.5t-56.5 177.5 q-23 45 -54.5 84.5t-75.5 76t-103.5 58t-125.5 21.5t-129 -22t-90 -46q-56 -49 -74 -76t-24 -71q-6 -38 -6 -124v-28l6 -717l-4 -131q0 -123 18 -131q8 -3 53 -11t50 -9l-6 -27h-224q-24 1 -53 1q-59 0 -139 -3q-120 -4 -160 -16l-139 -47q-14 0 -14 12q0 14 72 43.5 t138 38.5q13 1 19 5t14.5 25.5t16.5 65.5q41 206 41 565q0 44 -1.5 95.5t-7.5 139t-21.5 143.5t-39.5 56q-8 0 -33 -9.5t-54 -22t-32 -13.5q-71 -22 -119 -22q-18 0 -39 6t-43 31t-22 65zM641 1194l10 -526v-234l-8 -342q0 -35 6 -41l35 -4h43l4 19l-2 686q0 430 10 534 q-6 0 -14.5 -1t-24 -6.5t-28 -14.5t-22 -27.5t-9.5 -42.5z" />
<glyph unicode="O" horiz-adv-x="1728" d="M94 694q0 141 41 261t114 207.5t173 149.5t219.5 93t251.5 31q140 0 257 -32t196 -83.5t140.5 -122t96.5 -141t57 -146.5t29.5 -133t7.5 -106q0 -117 -32.5 -219.5t-89.5 -179t-132.5 -137t-164 -98.5t-182.5 -57.5t-189 -19.5q-160 0 -302.5 49t-252 140t-174 231.5 t-64.5 312.5zM346 729q0 -19 1 -42.5t6 -78t14.5 -104.5t29.5 -113t47 -113t70 -95t96 -68l4 4q-87 103 -131.5 259.5t-44.5 315.5q0 110 10 195.5t32.5 153.5t41.5 108t53 102l-4 4q-39 -20 -77 -62t-72 -105.5t-55 -157.5t-21 -203zM475 692q0 -134 25.5 -248t68 -192.5 t98 -134t114.5 -81.5t118 -26q166 0 281.5 205.5t115.5 544.5q0 56 -9.5 121.5t-28.5 138t-52.5 139t-77 120.5t-106.5 86t-137 32q-21 0 -40.5 -2t-63.5 -16t-80.5 -38.5t-80.5 -77.5t-74 -124.5t-50.5 -187.5t-20.5 -259zM1303 1288q40 -43 65.5 -72.5t65 -90.5 t62.5 -120.5t40.5 -149t17.5 -189.5q0 -78 -15 -149.5t-35 -121.5t-56.5 -107t-62 -89t-70.5 -84l4 -4q99 37 175 130t114.5 208.5t38.5 232.5q0 98 -29.5 201.5t-77 187t-109.5 144t-124 77.5z" />
<glyph unicode="P" horiz-adv-x="1665" d="M72 1217q0 52 49 108q34 37 41.5 47.5t7.5 22.5q0 30 -29 30q-22 0 -30 -16q-13 -18 -17 -18q-6 0 -6 16q0 23 22 49.5t56 26.5q28 0 55 -24.5t27 -57.5q0 -26 -15 -48t-30 -33.5t-43 -29.5q-54 -34 -54 -67q0 -43 91 -43q116 0 224.5 37t242.5 104q130 65 202 90t146 25 q32 0 75 -6.5t103.5 -25.5t119 -48t118 -78.5t104 -112.5t72.5 -156t28 -202q0 -90 -23.5 -172.5t-75 -156.5t-126.5 -128.5t-185.5 -86.5t-244.5 -32q-172 0 -340 60q-14 -51 -14 -195l8 -186q0 -76 -11.5 -158.5t-41.5 -113.5h-17q-3 8 8 43q29 94 29 172q0 50 -8 83 t-24 47t-30.5 18.5t-35.5 4.5q-61 0 -163 -59t-126 -123l-18 2q0 21 0.5 30t6 28.5t17.5 49.5q53 147 62 271q16 208 16 338q0 67 -6 235.5t-10 229.5q-6 83 -27 131l-41 -4q-72 0 -105.5 19t-33.5 63zM500 49q0 -7 3.5 -9t18.5 -5l62 -10q8 92 8 141l-6 496v95 q0 291 16 449q-24 -6 -42 -16.5t-28.5 -28.5t-17 -34t-9 -45t-3 -47.5t-0.5 -55.5q1 -80 2.5 -224t2.5 -262.5t1 -224.5q0 -42 -3.5 -118t-4.5 -101zM612 793q0 -156 6 -306q5 -88 27 -125q19 -32 93.5 -45.5t138.5 -13.5q18 0 43.5 4t66.5 16t84 42.5t76 74.5 q60 79 86.5 197t26.5 240q0 106 -23 191.5t-59.5 139.5t-84.5 91t-94.5 52t-93.5 15q-58 0 -109 -23t-82 -55.5t-47.5 -56.5t-21.5 -37q-13 -38 -23 -165t-10 -236zM1272 330l4 -4q147 30 237.5 173t90.5 316q0 172 -90.5 321t-233.5 201l-4 -4q31 -29 53.5 -53.5t57.5 -74 t57.5 -100.5t39.5 -126.5t17 -157.5q0 -293 -229 -491z" />
<glyph unicode="Q" horiz-adv-x="1728" d="M90 713q0 149 54 280t153 229t250 155t334 57q132 0 244.5 -27.5t192 -72.5t142.5 -108t101.5 -130.5t64 -142.5t35.5 -141t10 -130q0 -82 -17.5 -163.5t-58.5 -163.5t-100.5 -147.5t-151 -113.5t-202.5 -63v-4q63 -11 80 -11q65 0 213 29q150 27 196 27q62 0 112 -37 t50 -96q0 -55 -33 -86t-69 -31l-29 4q10 -30 10 -43q0 -54 -42 -99.5t-116 -45.5q-57 0 -90.5 26t-33.5 64q0 23 13 40t28 17q6 0 18 -8v-13q-18 -12 -18 -36q0 -25 22 -40.5t51 -15.5q40 0 77.5 34.5t37.5 82.5q0 184 -418 184l-235 -6q-355 0 -566 137q-141 92 -225 255 t-84 354zM344 709q0 -234 88 -406q22 -44 44 -74.5t46.5 -48.5t37.5 -24.5t38 -16.5l4 4q-69 76 -120.5 219t-51.5 338q0 103 12.5 191.5t36 157.5t39.5 105t41 83l-4 4q-25 -21 -32.5 -26.5t-31.5 -28t-33 -35t-29 -41t-28.5 -52.5t-22 -62.5t-19.5 -79t-10.5 -94 t-4.5 -113.5zM469 707q0 -196 54.5 -353t151 -245.5t216.5 -88.5q109 0 199 97t140 260t50 354q0 105 -14 200.5t-45 181.5t-77 148.5t-113.5 99t-149.5 36.5q-81 0 -147 -34t-109.5 -93t-75 -129t-48.5 -150.5t-24.5 -149.5t-7.5 -134zM1286 1311q71 -65 124.5 -151.5 t81.5 -172.5t41 -161t13 -140q0 -161 -64.5 -309.5t-181.5 -263.5l5 -4q141 56 237 215t96 356q0 120 -37 243.5t-118.5 234t-192.5 157.5z" />
<glyph unicode="R" horiz-adv-x="1685" d="M143 1245q0 10 2 23t18 41t44 47q31 23 42 36t11 29q0 10 -7.5 21.5t-19.5 11.5q-10 0 -14.5 -2.5t-25.5 -17.5l-5 12q14 41 56 41q33 0 53 -20.5t20 -51.5q0 -25 -8.5 -42t-26.5 -27t-29 -13.5t-34 -9.5q-6 -3 -14 -9t-19.5 -23.5t-11.5 -37.5q0 -43 40.5 -67.5 t92.5 -24.5q50 0 103 13.5t84.5 27t95.5 43.5q215 102 312 131t185 29q124 0 234 -47t180 -135t70 -197q0 -25 -5 -50t-22 -59.5t-45.5 -65.5t-80.5 -65.5t-122 -62.5v-4q81 -15 142.5 -55t95 -93.5t49.5 -108.5t16 -110q0 -73 -41.5 -191t-41.5 -171q0 -67 52.5 -119.5 t114.5 -52.5q27 0 48 16l22 14q10 0 10 -12q0 -14 -26.5 -34.5t-57.5 -20.5q-17 0 -39 3.5t-65.5 22.5t-80.5 50.5t-73.5 96.5t-54.5 152q-4 21 -26 149.5t-27 150.5q-19 85 -55.5 156t-98 120t-135.5 49q-23 0 -41 -9t-25.5 -18t-7.5 -14l11 -24q8 -16 8 -33q0 -8 -7 -15.5 t-18 -7.5q-18 0 -30.5 16t-12.5 40q0 45 38.5 75.5t86.5 30.5q26 0 76 -7t74 -7q44 0 76 74t32 176q0 147 -69.5 248.5t-180.5 101.5q-21 0 -44 -5.5t-54.5 -19.5t-63 -47t-55.5 -80q-45 -95 -45 -336l2 -311q0 -312 17 -428q4 -30 6.5 -42.5t13 -28.5t25.5 -21t48.5 -11 t76.5 -7t114 -1l150 5q9 0 15.5 -4.5t6.5 -10.5q0 -13 -16 -16q-27 -9 -209 -14l-467 10q-177 0 -389 -27q0 14 2.5 19.5t21.5 13.5t55.5 13.5t110.5 15.5q28 3 38 10.5t18 37.5t16 107q5 45 9.5 254.5t4.5 315.5l-2 247q-4 65 -22 129l-101 -4q-49 0 -84.5 12.5t-52 28 t-26 36.5t-10.5 30t-1 16zM668 348q6 -237 10 -260q6 -34 13 -45.5t20 -11.5q45 0 59 4q-26 132 -31 221q-3 56 -3 136q0 48 1 106l-2 391q0 197 37 309l19 47q0 6 -7 10.5t-14 4.5q-17 0 -49.5 -15t-38.5 -41q-2 -6 -12 -178z" />
<glyph unicode="S" horiz-adv-x="1515" d="M104 -350q0 7 27 61q32 79 46.5 117.5t37 117t37.5 167.5q57 321 57 546q0 45 -3.5 87t-7 62t-5.5 23q-22 68 -27.5 95.5t-5.5 79.5q0 91 35 166t89.5 122t123 80t132.5 46.5t122 13.5q56 0 129.5 -14.5t113 -26.5t52.5 -17q103 -34 141 -46t82.5 -21t83.5 -9 q60 0 101.5 36.5t41.5 78.5q0 30 -22 49l-10 11q0 8 16 8q18 0 36.5 -21.5t18.5 -48.5q0 -57 -59 -96q14 -25 14 -49q0 -28 -12 -47.5t-30.5 -26.5t-29.5 -9.5t-20 -2.5q-68 0 -172 84q-1 -17 -1 -39q0 -73 15 -195l31 -151q25 -19 39.5 -31.5t41 -44.5t42.5 -64t28.5 -84 t12.5 -112q0 -79 -24.5 -158t-77.5 -153t-128 -131t-183.5 -91.5t-235.5 -34.5q-95 0 -188 22.5t-152 72.5q-118 97 -146 114q-9 -25 -45 -174q-42 -152 -62 -205.5t-67 -150.5q-12 -21 -18 -21q-15 0 -15 15zM342 666q0 -8 3 -37t15.5 -91t32.5 -126.5t60 -136t92.5 -126 t135 -90.5t181.5 -36q95 0 174.5 34t127.5 87t74 112t26 115q0 43 -14.5 78t-36 58t-58 40t-67 26.5t-78.5 16t-76.5 8.5t-75.5 4q-92 5 -146.5 10.5t-128 20t-131 43.5t-104.5 74q-6 -60 -6 -84zM412 1055v-7q0 -98 80 -142q83 -44 301 -60q111 -8 164 -13t130.5 -17 t115 -30t82.5 -48t70.5 -74.5t43.5 -106.5h4v11.5v14.5t-0.5 16t-1.5 19.5t-3.5 21t-5.5 23.5t-7.5 24.5t-10.5 27t-14.5 27t-18.5 28.5q-55 78 -147 107t-254 41q-75 5 -115 8t-96.5 8.5t-85.5 10t-67.5 12t-59 16.5t-43 21t-35.5 27t-22 34h-4zM420 1165q0 -37 12 -66 t30 -48.5t52.5 -34.5t64.5 -23.5t83 -15t90.5 -9.5t102.5 -7h1q103 -6 149.5 -10t108 -15.5t123.5 -32.5q-11 93 -57.5 182.5t-115.5 158.5t-161.5 111t-187.5 42q-81 0 -142 -23.5t-92.5 -60.5t-46 -74t-14.5 -74z" />
<glyph unicode="T" horiz-adv-x="1599" d="M113 893q0 27 18 94q19 72 27.5 121.5t10 76.5t1.5 79q0 100 -18 151q-1 3 -12 25.5t-11 27.5q0 6 5.5 11.5t12.5 5.5q9 0 13.5 -5t23.5 -30q14 -22 39 -27t129 -8h1159q32 0 41 3t15 18q19 35 31 41q10 6 24 6q10 0 22.5 -9t12.5 -18q0 -10 -35 -20q-33 -10 -41 -70 q-14 -164 -14 -231q0 -55 6 -84.5t41 -145.5q-19 -5 -23 -4q-12 18 -55.5 107.5t-48.5 97.5q-41 72 -95.5 123.5t-99.5 75t-92.5 35t-69 12.5t-34.5 0q-13 -16 -17.5 -29t-5.5 -45q-12 -190 -12 -758v-135q0 -315 24 -330q2 -2 109 -22.5t211 -45.5t104 -38q0 -12 -14 -12 l-244 40q-141 23 -360 23q-252 0 -389 -45q-62 -19 -108 -42.5t-46 -41.5l10 -25q0 -10 -10.5 -18t-21.5 -8q-16 0 -27.5 12.5t-11.5 24.5t10.5 28t33 36.5t67.5 42t104 38.5l180 31q19 55 28.5 170t11 198.5t1.5 229.5v616q0 25 -1 37.5t-5 28.5t-14 23t-27 7 q-22 0 -79.5 -14t-133.5 -40.5t-148 -77t-102 -111.5q-18 -40 -57 -174q-2 -12 -11.5 -32t-17.5 -20q-6 0 -10 6t-4 13zM950 530q0 -326 15 -446q3 -23 12 -29t41 -6q22 0 22 10q0 5 -4.5 45t-9 132.5t-4.5 222.5q0 740 22 887q-12 16 -53 16q-23 0 -28.5 -2t-6.5 -12 l-4 -215z" />
<glyph unicode="U" horiz-adv-x="1536" d="M147 530q0 73 11 142t28 125.5t45.5 112t56.5 98t68.5 87.5t73 76.5t79 69t78 60t77.5 55.5v4q-266 10 -385 55q-16 6 -28 15.5t-17 16t-5 9.5q0 12 17 12l30 -8q100 -37 210.5 -49t256.5 -12l433 -6q143 0 327 32l74 13q10 0 13 -9t-1 -18q-17 -9 -122 -29t-115 -28 q-18 -15 -24 -135.5t-13 -640.5l-15 -472q0 -62 9.5 -151.5t25.5 -134.5q16 -48 58.5 -86.5t87.5 -38.5q24 0 45.5 11t21.5 34q0 16 -5.5 24t-20.5 21l37 10q36 -24 36 -67q0 -37 -28.5 -65t-75.5 -28q-85 0 -142.5 61t-64.5 128l-24 239q-77 -30 -122.5 -45t-118 -29 t-145.5 -14q-102 0 -201.5 18.5t-195.5 61.5t-168.5 105.5t-117 158t-44.5 211.5zM373 664q0 -62 11.5 -129.5t38 -147t82 -147.5t132.5 -105l4 4q-24 26 -41.5 48t-45 70t-45 100t-31 134t-13.5 175q0 275 88 448l-4 4q-47 -39 -82 -94.5t-52 -105.5t-27.5 -107t-12.5 -88 t-2 -59zM502 682q0 -121 25.5 -228.5t68 -185.5t97.5 -135t115 -85t120 -28q93 0 171 58t120 151q16 35 25.5 71t18.5 126.5t9 222.5v238q0 428 -4 463q-14 2 -35.5 2t-49 -1t-38.5 -1q-89 0 -404 14q-115 -119 -177 -294.5t-62 -387.5z" />
<glyph unicode="V" horiz-adv-x="1748" d="M150 1438q0 16 12 16l26 -8q111 -23 315 -35.5t339.5 -14.5t355.5 -1h156q21 0 80 1.5t153 6.5t146 12q45 6 73 6q23 0 23 -16q0 -13 -23 -20t-110 -21q-67 -11 -80.5 -15.5t-13.5 -17.5q0 -9 30 -49q39 -58 39 -141q0 -104 -84 -297.5t-210.5 -393.5t-246.5 -331 q-89 -98 -116 -120t-47 -22q-12 0 -19 5t-26 39.5t-49.5 103.5t-86.5 203l-225 549q-5 11 -37.5 83.5t-58.5 128.5t-59 125t-57 110t-34 46q-24 13 -131 37q-1 0 -4.5 1.5t-4.5 2t-4.5 2.5t-4.5 2.5t-4 2.5t-4 3t-3 3.5t-3 4t-1.5 4t-0.5 5.5zM614 1323q0 -34 109 -301 q82 -189 266 -631q103 -241 119 -241q12 0 51 63q-221 485 -436 1051q-29 88 -49 88q-60 0 -60 -29zM748 1323q0 -39 182 -486.5t260 -576.5h8q143 163 223 381t80 399q0 43 -11 88t-33 89t-63.5 77.5t-95.5 44.5q-35 8 -76 9.5t-182 1.5l-141 2q-111 0 -131 -6 q-20 -8 -20 -23z" />
<glyph unicode="W" horiz-adv-x="2068" d="M150 549q0 84 17 162.5t58.5 169t122.5 188t199 195.5q50 41 65 56.5t33 43.5q-30 -2 -60 -2q-67 0 -129 10q-90 14 -140 36t-50 44q0 10 10 10q4 0 12.5 -3.5t17.5 -7.5t11 -5q55 -21 164.5 -31.5t207.5 -11.5q49 0 117 -0.5t155 0.5q32 0 357 4t460 4q144 0 258 27 l47 22q12 0 12 -14q0 -17 -42 -37t-97 -27q-28 -4 -36.5 -8.5t-18.5 -15.5l-5 -43l11 -805v-602q0 -219 110 -219q7 0 20.5 4t33 18.5t24.5 36.5l10 -6l11 -25q0 -8 -4.5 -20t-15 -27t-34 -25t-55.5 -10q-79 0 -108.5 50t-32.5 170q-5 142 -11 155l-10 6q-46 -21 -121 -35 t-151 -14q-240 0 -426 117q-154 -113 -385 -113q-273 0 -422 119q-95 75 -142.5 200t-47.5 259zM362 596q0 -181 83 -327t202 -177l4 4q-190 177 -190 549q0 113 19.5 238t43.5 200l-4 4q-158 -131 -158 -491zM492 643q0 -284 121 -454.5t298 -170.5q45 0 78 12t52 34.5 t25.5 34.5t14.5 32q-16 14 -37.5 45t-48.5 82.5t-45 130t-18 164.5q0 99 18.5 189.5t48.5 156t55 106t50 70.5q49 62 143 153t146 113v15q-41 8 -162 8l-361 4l-176 -4q-78 -76 -140 -288.5t-62 -432.5zM1147 657q0 -45 6 -100t24.5 -126.5t46 -132t75 -111.5t108.5 -70l4 4 q-85 85 -128.5 253.5t-43.5 344.5q0 110 10 207q1 9 13 73t12 78q-45 -39 -75.5 -127t-41 -162t-10.5 -131zM1274 717q0 -263 86 -453q30 -68 65.5 -116.5t63.5 -72t64 -36.5t54.5 -14.5t47.5 -1.5q54 0 120 20t78 49q9 22 13 144q2 77 3 129q0 29 -1 51q0 522 -2.5 659.5 t-14.5 231.5q-6 44 -14.5 51.5t-48.5 7.5l-256 8q-45 0 -62.5 -12.5t-56.5 -69.5q-79 -115 -109 -257.5t-30 -317.5z" />
<glyph unicode="X" horiz-adv-x="1748" d="M111 1409q0 18 26 18l211 -8l662 -12q96 0 367.5 5.5t293.5 10.5q4 0 22 7.5t21 7.5t7.5 -4.5t4.5 -8.5q0 -15 -21 -28t-46 -13q-21 0 -21 -10q0 -4 11 -15.5t21.5 -37.5t10.5 -66q0 -174 -268 -305q-69 -33 -109 -45.5t-214 -56.5l112 -166q15 -20 127 -177 t209.5 -292.5t112.5 -153.5q17 -21 69 -26q9 0 23 -5.5t14 -15.5q0 -9 -12 -18q-14 1 -209 6h-217q-908 0 -959 -10q-30 -6 -73.5 -16.5l-72.5 -17.5t-34 -7q-16 0 -16 16q0 12 22 25q-19 96 -23.5 128t-4.5 72q0 253 201 405q102 78 316 163q17 7 60 24q-13 17 -78.5 113.5 t-78.5 112.5q-204 272 -280 341q-30 28 -46 31l-125 15q-16 5 -16 14zM422 260q0 -38 11.5 -116t31.5 -111q215 6 545 6q56 -1 93 -1q45 0 59 2q26 2 26 19q0 48 -153 294.5t-271 377.5q-69 -24 -125 -62.5t-91 -78t-60.5 -87.5t-37.5 -84.5t-19 -75.5t-8 -55t-1 -28z M582 1362q0 -4 10 -19.5t22 -32.5t15 -22q55 -75 260 -364.5t384 -544.5t185 -264q35 -58 51.5 -68t73.5 -10q27 0 27 12v4q-3 6 -102 144.5t-212 295t-133 185.5q-322 468 -393 563q-6 10 -50.5 65.5t-51.5 67.5l-62 4q-7 0 -15.5 -4.5t-8.5 -11.5zM737 1358 q0 -8 49.5 -80.5t132.5 -189.5t115 -164q25 -35 43 -35q19 0 121 51q71 45 124.5 118.5t53.5 149.5q0 33 -10.5 59t-26 42.5t-40.5 29t-45.5 19t-49.5 10.5t-44 4.5t-38 1.5q-28 1 -64 1q-18 -1 -38 -1q-60 0 -147.5 -1t-106.5 -1q-29 0 -29 -14z" />
<glyph unicode="Y" horiz-adv-x="1665" d="M119 1425q-3 11 6 27q136 -15 219 -18.5t344 -6.5q213 -3 408 -3q278 0 520 6q47 0 67 12q16 8 21 8q7 0 11.5 -5.5t4.5 -12.5q0 -22 -49 -35q-61 -11 -90 -22t-29 -32q0 -12 12.5 -32t25 -54.5t12.5 -80.5q0 -35 -9.5 -83.5t-31.5 -114t-68 -143.5t-109 -149 q-121 -135 -292.5 -272.5t-327.5 -231.5q-57 -35 -86 -53.5t-68 -46.5t-57.5 -48t-38 -47t-26.5 -55t-7 -61q0 -50 22 -88.5t55.5 -59.5t68 -31.5t65.5 -10.5q118 0 205.5 65.5t87.5 144.5q0 19 -13.5 33.5t-25 19.5t-14.5 5l-33 -2q-6 0 -6 10q0 21 38 51.5t85 30.5 q21 0 47.5 -8t53 -34t26.5 -65q0 -17 -6 -32l102 37q46 16 90 16q33 0 67 -9.5t66 -29.5t52 -56.5t20 -84.5q0 -35 -11.5 -63.5t-27.5 -43.5t-30 -23t-21 -8q-3 0 -6 1.5t-5.5 6t1.5 13.5q14 21 14 33q0 44 -48.5 78t-119.5 34q-50 0 -102 -13.5t-83 -26.5t-91 -42 q-173 -88 -308 -88q-116 0 -196 64t-80 176q0 35 8 67t19 56t33 50t37.5 41.5t47 38t47 32.5t50.5 32q57 34 57 66q0 9 -6 31t-19 59.5t-27.5 76.5t-37.5 98t-42.5 107.5t-49 122t-49.5 123.5t-52.5 129.5t-50.5 124.5q-88 215 -96 228q-10 18 -23.5 24.5t-52.5 16.5 q-55 14 -94 30zM543 1370q0 -19 19 -79t64.5 -181.5t75 -198.5t95.5 -247q80 -198 114 -250q21 -33 35 -33q9 0 27 15.5t18 27.5l-20 45q-185 390 -324 866q-14 58 -53 58q-51 0 -51 -23zM678 1366q0 -10 57 -192q83 -273 244 -621q23 -52 31.5 -67t17.5 -15q4 0 23.5 19 t50.5 57t59 80q26 41 43.5 74t37 86t29 123.5t9.5 156.5q0 138 -56 226.5t-143 90.5q-61 0 -383 5q-7 0 -13.5 -6.5t-6.5 -16.5z" />
<glyph unicode="Z" horiz-adv-x="1323" d="M74 854l26 219q13 147 13 213q0 122 -13 193q14 5 29 0l8 -68q28 -8 58 -8l188 4q62 0 382.5 -9t371.5 -9q44 0 54.5 -2.5t10.5 -12.5q0 -7 -85.5 -163.5t-190.5 -346t-127 -231.5q-53 -100 -155.5 -312.5t-102.5 -242.5q0 -16 11 -22.5t42 -6.5q14 0 76.5 13t184.5 57.5 t220 109.5q65 42 120 115.5t108 208.5l22 -8q-54 -125 -89 -233.5t-54 -211t-26.5 -162.5t-15.5 -165q-19 -6 -28 2q1 14 3.5 50t3.5 54t0.5 45.5t-3.5 48.5q-82 15 -194 15q-65 0 -376.5 7t-326.5 7l-113 2q-4 18 10.5 43t53.5 76q5 6 8 10q96 129 358.5 460.5t462.5 577.5 q115 154 115 164q0 7 -24 12t-58.5 7t-59 3t-38.5 1q-137 0 -283.5 -29.5t-253.5 -71.5t-179.5 -85.5t-82.5 -73.5l-35 -242q-12 -6 -26 -2z" />
<glyph unicode="[" horiz-adv-x="520" d="M115 -330v1809h348q35 0 35 -19q0 -10 -9 -12t-34 -2q-87 0 -166 -6v-1729q78 -8 182 -8q27 0 27 -14q0 -8 -10 -13.5t-25 -5.5h-348z" />
<glyph unicode="\" horiz-adv-x="598" d="M90 1505h90l381 -1880h-88z" />
<glyph unicode="]" horiz-adv-x="522" d="M53 -311q0 10 8.5 12t34.5 2q95 0 166 8v1729q-78 6 -182 6q-27 0 -27 14q0 19 33 19h350v-1809h-350q-13 0 -23 5.5t-10 13.5z" />
<glyph unicode="^" horiz-adv-x="1366" d="M236 666l409 718h82l406 -718h-160l-295 512l-291 -512h-151z" />
<glyph unicode="_" horiz-adv-x="1024" d="M-20 -154h1064v-102h-1064v102z" />
<glyph unicode="`" horiz-adv-x="681" d="M57 1505q0 13 11 13h245q38 0 49 -3t23 -16q20 -20 90 -128.5t70 -129.5q0 -8 -8 -13t-14 -6t-9 -1q-13 0 -32 10.5t-99 60.5q-54 36 -163.5 106t-125.5 77q-37 19 -37 30zM137 1483l352 -219q7 0 7 8q0 4 -41.5 43t-88 81.5t-53.5 51.5q-13 16 -47.5 27.5t-62.5 11.5 h-66v-4z" />
<glyph unicode="a" d="M74 133q20 68 20 160q0 96 -4 129q5 8 47 29q16 7 94 47q-139 56 -139 227q0 72 30 179.5t69.5 187t66.5 79.5q44 0 254 -77q168 -60 168 -74q0 -9 -8 -31.5t-8 -36.5v-792q0 -12 6.5 -22.5t13.5 -10.5q16 0 40.5 13.5t27.5 13.5q6 0 6 -11q0 -31 -109 -90 q-24 -13 -65 -37.5t-65 -37.5t-32 -13q-18 0 -18 27v96h-1q-20 0 -95 -59q-77 -60 -88 -60t-111 77t-100 87zM127 731q0 -115 57.5 -166t186.5 -51q69 0 90.5 8t21.5 33v254q0 89 -66.5 138.5t-185.5 49.5q-26 0 -47.5 -33.5t-33 -80.5t-17.5 -87.5t-6 -64.5zM274 260 q0 -50 48.5 -91.5t93.5 -41.5q32 0 49.5 18.5t17.5 51.5v252q0 15 -7.5 25.5t-18.5 10.5h-113q-70 0 -70 -45v-180z" />
<glyph unicode="b" d="M86 145q0 11 8 18t16.5 19t8.5 35v688q0 25 -19 47q-14 17 -14 27q0 11 14 22q19 19 19 37v385q0 6 3.5 10.5t8.5 4.5q4 0 21 -17q14 -18 18 -18q6 0 12 6l88 94q10 10 19 10q10 0 10 -28v-441q0 -26 16 -26q17 0 76.5 59.5t63.5 59.5q17 0 127 -69.5t110 -94.5v-768 q0 -53 -7 -68.5t-38 -30.5l-86 -38q-39 -18 -87 -43t-74 -38.5t-31 -13.5q-16 0 -150 78l-26 15q-76 43 -91.5 54t-15.5 25zM299 434q0 -138 44.5 -214.5t125.5 -76.5q43 0 43 70v616q0 42 -35.5 76.5t-73.5 50t-61 15.5t-33 -15.5t-10 -50.5v-471z" />
<glyph unicode="c" horiz-adv-x="661" d="M104 135q0 8 4 13t9.5 8.5t9.5 17.5t4 37v735q0 57 19 68q33 19 92 57t99.5 64t45.5 26q17 0 29 -2l141 -20q7 -2 31 6l24 8q5 2 11 4t9.5 3t6.5 1q6 0 14.5 -7t8.5 -13q0 -12 -44 -96t-63 -84q-12 0 -104.5 20t-106.5 20t-23.5 -11t-9.5 -21v-711q0 -43 54 -87t135 -44 q36 0 73 7t41 7q15 0 15 -20q0 -13 -138.5 -79.5t-158.5 -66.5q-8 0 -118 76t-110 84z" />
<glyph unicode="d" horiz-adv-x="788" d="M78 135q0 2 18.5 22t18.5 38v794q0 11 32 25q1 0 2.5 0.5t2.5 1.5l262 127q7 3 16.5 8t15 7.5t7.5 2.5q5 0 14 -6q33 -22 39 -22q4 0 4 10v235q0 25 -45.5 42.5t-112.5 17.5q-10 0 -10 4q0 6 18 11t41 5q22 0 84 -12q58 -14 72 -14q20 0 80 57q32 29 43 29q10 0 10 -13 v-1333q0 -18 8 -31.5t17 -13.5q5 0 31.5 14.5t31.5 14.5q10 0 10 -11q0 -21 -126 -113.5t-152 -92.5q-12 0 -12 26v80q0 22 -2.5 28.5t-10.5 6.5q-14 0 -93 -54.5t-97 -54.5q-14 0 -115.5 75.5t-101.5 88.5zM295 279q0 -32 71.5 -95t100.5 -63q43 0 43 69v707q0 24 -73 75.5 t-103 51.5q-15 0 -27 -15.5t-12 -35.5v-694z" />
<glyph unicode="e" horiz-adv-x="681" d="M113 141q0 5 11 27t11 43v788q0 8 6 15t19 14t26.5 13.5t37 17t42.5 20.5q14 7 50 28t65 36.5t35 15.5q22 0 104 -66.5t92 -66.5q15 0 31 18.5t23 18.5q16 0 16 -12q0 -6 -12 -27q-56 -88 -176.5 -267t-178.5 -270v-106q0 -124 33 -162q33 -33 114.5 -60.5t117.5 -27.5 q26 0 55 9.5t35 9.5q8 0 8 -13q0 -16 -64.5 -55t-201.5 -113l-150 78q-95 49 -122 66t-27 28zM315 547h4l37 55.5t36 53.5t30.5 46t27 42.5t19.5 32t14 26t4 14.5q0 19 -67 112t-80 93q-15 0 -20 -42t-5 -179v-254z" />
<glyph unicode="f" horiz-adv-x="446" d="M74 999v50q0 27 35 57q19 15 24 22.5t8 26.5v186q0 26 82 62q86 36 131 65q69 43 109 43q44 0 194 -49q14 -5 18.5 -9t4.5 -13q0 -33 -33 -91.5t-49 -58.5q-4 0 -111 51.5t-131 51.5q-34 0 -34 -45v-187q0 -36 12 -42.5t74 -6.5q24 0 30 -3.5t6 -18.5q0 -72 -6.5 -92.5 t-27.5 -20.5q-5 0 -31 2t-31 2q-17 0 -21.5 -10.5t-4.5 -44.5v-965q0 -20 -5 -25t-26 -8q-22 -3 -56 -15.5t-53 -25.5q-4 -4 -10 -4h-31v1059q0 19 -6.5 27.5t-14 10t-24.5 1.5q-13 0 -17.5 3.5t-4.5 14.5z" />
<glyph unicode="g" horiz-adv-x="854" d="M-4 -336q0 2 18.5 27.5t63.5 81t98 116.5q141 160 141 172q0 18 -59 48q-55 28 -105.5 66.5t-50.5 53.5q0 6 11.5 22.5t11.5 22.5v691q0 27 8 36.5t53 30.5q58 27 101 53q15 9 49.5 29t58 33.5t25.5 13.5q6 0 80 -20q185 -53 252 -64q44 -7 60.5 -17t16.5 -28 q0 -19 -18 -76t-45 -57q-17 0 -214.5 51t-217.5 51q-29 0 -29 -53v-590q0 -50 59.5 -88.5t135.5 -38.5q63 0 63 50q0 8 -16.5 126.5t-16.5 190.5q0 101 56 182.5t125 81.5q10 0 10 -10q0 -4 -6 -25q-21 -65 -21 -147q0 -72 12 -142.5t44 -195.5q35 -135 47 -208.5t12 -153.5 q0 -55 -8.5 -99.5t-20.5 -56.5q-7 -7 -164 -100q-8 -5 -38 -25t-49 -31.5t-42 -23t-34 -11.5q-19 0 -140.5 75t-148.5 75q-14 0 -49 -32.5t-66 -65.5t-35 -33q-6 0 -12 4.5t-6 7.5zM281 -49q100 -78 187 -129t110 -51q22 0 31 34t9 111q0 101 -14 196t-33 95q-18 0 -95 -65 t-165 -158z" />
<glyph unicode="h" d="M78 1024q0 4 15.5 27t15.5 28v344q0 21 14 21q4 0 24 -19.5t25 -19.5q18 0 39.5 27.5t40 55.5t27.5 28q10 0 10 -17v-444q0 -6 4 -6q19 0 103 56t98 56q23 0 121 -68.5t98 -80.5q0 -3 -14.5 -31.5t-14.5 -48.5v-746q0 -39 31 -39q3 0 18.5 3.5t18.5 3.5q10 0 10 -15 q0 -18 -19 -24q-141 -62 -225 -113q-15 -10 -16 -10q-8 0 -8 22q0 10 5 72t5 74v749q0 27 -24 50t-56 35t-57.5 19t-34.5 7q-17 0 -30 -10.5t-13 -22.5v-971l-180 -18v969q0 17 -15.5 33.5t-15.5 23.5z" />
<glyph unicode="i" horiz-adv-x="385" d="M41 1024q0 13 38 75t56 62q12 0 90 -67q12 -10 28.5 -23.5t25.5 -21t18.5 -16t13.5 -15t4 -12.5q0 -7 -4 -13q-16 -27 -16 -94v-688q0 -69 53 -105q17 -8 17 -16q0 -17 -62.5 -66t-73.5 -49q-24 0 -79.5 58t-55.5 71q0 4 6 13q15 23 15 71v707q0 35 -47 88q-27 30 -27 41 zM119 1298q0 57 42 99.5t99 42.5q31 0 47.5 -15t16.5 -41q0 -22 -8 -30t-29 -8q-4 0 -29.5 2t-30.5 2q-30 0 -46 -16.5t-36 -55.5q-6 -6 -10 -6q-6 0 -11 8t-5 18z" />
<glyph unicode="j" horiz-adv-x="411" d="M35 -348q0 5 28 39q47 65 63.5 126.5t16.5 178.5v872q0 37 -13 64t-46 59q-27 27 -27 37q0 7 9 16l63 74q40 43 53 43q7 0 15.5 -6.5t44.5 -42.5q17 -17 28 -27q72 -68 72 -75q0 -3 -9 -24t-9 -25v-965q0 -29 -8.5 -48.5t-34.5 -51.5l-41 -52l-84 -96q-66 -77 -82 -93.5 t-25 -16.5q-14 0 -14 14zM137 1286q0 9 10 34t29 55.5t54 53.5t77 23q26 0 45 -22t19 -54q0 -12 -6 -20t-15 -8q-5 0 -37.5 6t-38.5 6q-26 0 -43.5 -10.5t-37.5 -38.5q-34 -43 -46 -43q-10 0 -10 18z" />
<glyph unicode="k" horiz-adv-x="731" d="M86 963q0 6 10 16q20 20 23 39v405q0 15 10 15q12 0 29 -21q15 -22 28 -22q25 0 62 67q28 49 33 52q3 2 8 2q10 0 10 -19v-403q0 -25 16 -25q32 0 86 45q52 45 74 45q12 0 29 -14q28 -20 70 -51.5t75 -55.5q13 -9 13 -18q0 -20 -6 -94.5t-7 -98.5q-1 -29 -4.5 -40.5 t-20 -26.5t-55.5 -35q-31 -17 -54 -37t-23 -29t86 -272l18 -55q38 -113 56 -150t36 -37q4 0 16 4.5t17 4.5q14 0 14 -13q0 -8 -5 -16t-11 -13t-20 -16.5t-23 -19.5q-93 -84 -105 -84q-20 0 -66.5 120t-78.5 246q-48 195 -104 195q-9 0 -16 -5.5t-7 -12.5v-521l-180 -16v920 q0 4 -16.5 22.5t-16.5 22.5zM299 612q0 -8 8 -8q80 0 131 63.5t51 163.5q0 87 -40 138t-109 51q-17 0 -29 -9.5t-12 -21.5v-377z" />
<glyph unicode="l" horiz-adv-x="425" d="M100 115q0 11 18.5 33t18.5 42v728q0 4 -16.5 22.5t-16.5 22.5q0 5 11 16q19 19 22 39v397q0 10 5.5 16.5t11.5 6.5q5 0 22 -21q16 -20 21 -20q11 0 52 53t52 53q16 0 16 -22v-1270q0 -53 56 -78q20 -9 20 -18q0 -11 -39 -47l-100 -88q-15 -11 -21 -11t-17 11t-56 61 q-60 65 -60 74z" />
<glyph unicode="m" horiz-adv-x="1153" d="M39 1016q0 19 54.5 82t66.5 63q21 0 86.5 -60.5t77.5 -60.5q18 0 90 60.5t80 60.5q17 0 96.5 -55.5t95.5 -58.5q21 5 34 13.5t50 43.5q21 20 48.5 38.5t35.5 18.5q16 0 124.5 -67.5t108.5 -94.5q0 -3 -11 -31.5t-11 -47.5v-750q0 -40 5 -54t20 -14q5 0 14 2t14 2 q10 0 10 -12q0 -13 -15 -22t-56 -21q-11 -3 -50.5 -18t-73.5 -28t-36 -13q-12 0 -12 12v903q0 9 -30.5 33.5t-71.5 46t-66 21.5q-37 0 -37 -78v-930h-180v821q0 176 -154 176q-51 0 -51 -57v-940h-180q0 10 10 162t10 351t-20 405q-2 7 -39 47.5t-37 50.5z" />
<glyph unicode="n" d="M35 1020q0 23 56.5 77t68.5 54t66.5 -51t68.5 -51q13 0 29 10l172 104h2q16 -1 118 -69q108 -72 109 -84q0 -9 -12 -19q-27 -22 -27 -55v-766q0 -49 16 -49q4 0 23.5 10t22.5 10q6 0 9 -10t-1 -16q-218 -125 -236 -125q-9 0 -11.5 10.5t-2.5 46.5v789q0 75 -45.5 127.5 t-110.5 52.5q-38 0 -48.5 -20t-10.5 -91v-905h-180q8 219 8 496q0 401 -25 458q-7 16 -22 30t-26 22.5t-11 13.5z" />
<glyph unicode="o" d="M74 147q0 9 18.5 22.5t18.5 37.5v778q0 23 6.5 30.5t42.5 24.5q95 43 159 84q61 37 74 37q23 0 170.5 -74.5t147.5 -95.5q0 -13 -12.5 -20.5t-12.5 -28.5v-799q0 -12 -9.5 -20.5t-37.5 -20.5q-30 -14 -86.5 -47.5t-98.5 -57.5t-55 -24q-12 0 -184 88q-88 45 -114.5 61 t-26.5 25zM291 297q0 -37 13 -57t50 -37q111 -51 129 -51q23 0 23 49v673q0 20 -82.5 73.5t-106.5 53.5q-11 0 -18.5 -11.5t-7.5 -28.5v-664z" />
<glyph unicode="p" horiz-adv-x="788" d="M43 4q0 34 47 111q33 54 33 67v742q0 12 -36 55.5t-36 44.5q0 11 56.5 69t76.5 58q16 0 63.5 -55.5t61.5 -55.5q10 0 86 58.5t94 58.5q25 0 133.5 -71t108.5 -89q0 -14 -14 -20q-11 -5 -14 -10.5t-3 -20.5v-745q0 -69 -4 -85t-28 -34q-31 -21 -81.5 -57.5t-77.5 -55 t-32 -18.5q-53 9 -174 22v-176q0 -82 103 -123q34 -12 34 -22q0 -21 -49 -21q-81 0 -170 66q-17 14 -24 14q-4 0 -12.5 -14t-19 -34t-11.5 -21q-15 -11 -31 -11v344q-56 0 -68 4t-12 25zM303 168q0 -21 81 -41.5t103 -20.5q19 0 26 16t7 56v686q0 60 -52.5 106t-121.5 46 q-43 0 -43 -62v-786z" />
<glyph unicode="q" d="M84 145q0 5 8 13q21 24 21 59v782q0 21 14.5 34t67.5 40q11 5 52 27t76 41.5t37 19.5q10 0 20.5 -2.5t28 -9t32.5 -12.5t48 -20t60 -25q164 -70 164 -80q0 -6 -6 -15q-21 -30 -21 -63v-1104q0 -20 8 -85t8 -85q0 -25 -10 -25q-15 0 -19.5 10.5t-6.5 41.5q-6 118 -27 118 q-3 0 -18 -12.5t-37.5 -35.5t-40.5 -46q-12 -15 -17 -18.5t-14 -3.5q-18 0 -18 26q0 20 5 133.5t5 135.5v47q0 38 -2 49.5t-10 11.5q-34 0 -103 -55q-65 -49 -88 -49q-15 0 -112 65q-12 9 -19 13q-86 58 -86 79zM293 264q0 -53 63.5 -89t122.5 -36q27 0 27 15v677 q0 41 -42 77.5t-85 53.5t-64 17q-22 0 -22 -23v-692z" />
<glyph unicode="r" horiz-adv-x="598" d="M47 1001q0 15 16 35l74 88q18 21 25 21q14 0 80 -50.5t75 -50.5q20 0 49 27t53.5 53.5t33.5 26.5q23 0 87 -49.5t64 -81.5q0 -21 -14 -84q-25 -94 -27 -137q0 -29 -14 -29q-11 0 -18.5 8.5t-14.5 30.5q-22 66 -74.5 128t-87.5 62q-15 0 -25 -14t-10 -37v-690 q0 -52 21.5 -84t81.5 -70q4 -3 9.5 -6.5t8.5 -5t7 -4t5.5 -4t3.5 -3t2.5 -3t0.5 -2.5q0 -15 -80 -60q-83 -43 -88 -43q-14 0 -99.5 65t-85.5 81q0 9 11 20q14 14 18 28.5t4 49.5v578q0 98 -9.5 124t-55.5 52q-27 16 -27 30z" />
<glyph unicode="s" d="M51 6q0 65 45.5 167.5t118.5 201.5q33 41 33 55q0 19 -32.5 44.5t-65.5 50.5t-33 42q0 8 10 36.5t10 41.5v309q0 34 10 48t48 34l106 56q121 63 129 63q22 0 106.5 -93t96.5 -93q13 0 44 61.5t36 61.5q6 0 14 -8t8 -15q0 -21 -52 -124t-110 -189q-36 -59 -36 -64 q0 -15 51 -45.5t102 -61.5t51 -46q0 -6 -8 -17q-20 -29 -20 -78v-215q0 -75 -12 -97.5t-66 -47.5q-13 -6 -65.5 -35.5t-98 -54.5t-51.5 -25q-22 0 -94 29t-136 57.5t-67 28.5q-31 0 -31 -129q0 -11 -4 -14.5t-14 -3.5q-9 0 -16 20t-7 49zM225 295q0 -18 16.5 -32t82.5 -52 q7 -4 11.5 -6.5t11.5 -6.5t13 -8q108 -63 144 -63q28 0 28 109v102q0 75 -36 129.5t-86 54.5q-17 0 -101 -99t-84 -128zM317 686q0 -25 23.5 -57.5t40.5 -32.5q20 0 81.5 68t61.5 102q0 15 -55 90l-33 43q-48 66 -64.5 85.5t-29.5 19.5q-11 0 -18 -13.5t-7 -36.5v-268z" />
<glyph unicode="t" horiz-adv-x="641" d="M84 1047q0 11 29.5 39.5t156.5 142.5q15 13 29 25.5t20 18t12 10.5t8.5 6t6.5 1q10 0 10 -20v-133q0 -29 31 -29h229q23 0 23 -18q0 -113 -90 -113h-154q-23 0 -31 -12t-8 -45v-607q0 -37 9.5 -66t22.5 -47.5t35.5 -31.5t40.5 -19t47 -9.5t44.5 -4t42.5 -0.5q43 0 43 -20 q0 -18 -33 -33l-196 -105q-13 -8 -25 -8q-7 0 -125.5 82t-118.5 90q0 6 7 13q26 42 26 131v657q0 18 -46 54.5t-46 50.5z" />
<glyph unicode="u" d="M45 1018q0 2 41 69q8 12 15.5 24t11 18.5t8 13t6.5 9.5t5 5.5t5 3t6 0.5q13 0 91.5 -69t78.5 -78q0 -6 -6 -15q-14 -22 -14 -43v-559q0 -140 34.5 -200t116.5 -60q27 0 44.5 7t17.5 18v739q0 37 -27.5 70t-79.5 47q-20 6 -20 10q0 15 57.5 74t69.5 59q14 0 110.5 -65 t96.5 -86q0 -9 -6 -17q-12 -14 -16.5 -35.5t-4.5 -70.5v-690q0 -28 6.5 -36.5t28.5 -8.5q3 0 11 2t11 2q13 0 13 -15q0 -9 -11 -18.5t-43 -30.5q-31 -20 -54.5 -37.5t-57.5 -44t-43 -33.5q-27 -20 -31 -20q-9 0 -11 35q-1 14 -1 32q0 28 2 66q-51 -14 -115 -65 q-59 -50 -84 -50q-21 0 -76 43q-64 50 -112 78q-43 25 -43 39q0 6 9 14.5t18.5 23.5t9.5 36v678q0 59 -50 106q-18 15 -18 25z" />
<glyph unicode="v" d="M39 1026q0 20 58 74.5t69 54.5q8 0 33 -26t54.5 -52t47.5 -26q13 0 97 56t104 56q12 0 121.5 -70t109.5 -81q0 -6 -10 -13q-37 -30 -37 -112v-731q0 -8 -6.5 -14.5t-37.5 -24t-103 -54.5l-37 -18q-130 -65 -140 -65q-2 0 -35.5 18t-72 38t-43.5 23q-84 45 -107.5 61.5 t-23.5 31.5q0 4 8 12q14 13 19.5 34t5.5 72v617q0 39 -12 63.5t-42 48.5q-20 17 -20 27zM293 393q0 -107 49.5 -176.5t126.5 -69.5q20 0 28.5 20t8.5 66v605q0 82 -43 132t-113 50q-37 0 -47 -22.5t-10 -100.5v-504z" />
<glyph unicode="w" horiz-adv-x="1153" d="M37 1020q0 17 55.5 76t69.5 59q3 0 60 -52t73 -52q23 0 88 49q83 61 117 61q15 0 95 -55t99 -57q19 3 30.5 10t49.5 39q33 28 68 45.5t47 17.5q13 0 127 -74l22 -14q58 -37 68 -44.5t10 -18.5q0 -12 -10 -17q-17 -9 -23 -26t-6 -56v-733q0 -35 -11.5 -46.5t-82.5 -43.5 q-11 -5 -66.5 -33.5t-102.5 -51.5t-54 -23q-20 0 -121 59l-72 41q-13 -5 -63.5 -31t-94 -47.5t-47.5 -21.5q-16 0 -152 76t-136 96q0 1 16 21.5t16 43.5v678q0 70 -51 104q-18 12 -18 21zM287 414q0 -116 47.5 -190t122.5 -74q45 0 45 69v635q0 66 -48.5 116t-111.5 50 q-25 0 -40 -14t-15 -37v-555zM682 428q0 -120 50 -199t126 -79q39 0 39 65v633q0 69 -49.5 121.5t-114.5 52.5q-28 0 -39.5 -17t-11.5 -57v-520z" />
<glyph unicode="x" horiz-adv-x="788" d="M31 -131q0 14 11 53.5t47 116t89 149.5l27 37q50 73 84.5 136.5t46 96.5t8.5 42l-123 348q-19 55 -42.5 82t-76.5 55q-41 21 -41 37q0 4 6 11t24.5 26.5t35.5 40.5q48 61 63 61q21 0 96.5 -58.5t86.5 -58.5q15 0 48.5 29t62 58.5t30.5 29.5q4 0 16.5 -8t36.5 -24t37 -25 q87 -56 99 -68t12 -22q0 -22 -57 -99.5t-114 -158t-57 -109.5q0 -35 86 -264l9 -25q30 -90 51 -131t43 -57t67 -29q31 -8 31 -18q0 -14 -56.5 -74.5t-78.5 -60.5q-26 0 -86.5 47t-77.5 47q-15 0 -76 -58.5t-84 -58.5q-12 0 -78 38t-81 38q-20 0 -63.5 -96.5t-49.5 -96.5 q-4 0 -8 6.5t-4 14.5zM248 221q0 -11 13 -20.5t75 -40.5q31 -16 59 -28t41 -16.5t15 -4.5q12 0 12 12q0 21 -46.5 156t-56.5 135t-61 -91t-51 -102zM379 975q0 -29 37 -153t55 -124q9 0 43 58l74 118q1 2 1 5q1 20 -71 68q-82 54 -108 54q-31 0 -31 -26z" />
<glyph unicode="y" horiz-adv-x="811" d="M66 1028q0 5 18 25q90 108 104 108q6 0 86 -76t80 -79q0 -9 -12 -15q-16 -8 -16 -22v-617q0 -103 54.5 -173t133.5 -70q21 0 25 10.5t4 64.5v631q0 80 -31.5 134.5t-85.5 64.5q-14 3 -14 10q0 2 14.5 19t33 37t21.5 24q31 39 41 48t21 9q4 0 20 -10.5t41 -29t33 -23.5 l35 -22q34 -21 57 -37.5t23 -20.5q0 -8 -9 -17q-12 -14 -16 -29t-4 -48v-803q0 -27 -7 -34.5t-30 -10.5q-75 -9 -166.5 -31t-189 -57.5t-162 -90t-64.5 -116.5q0 -45 36.5 -78t88.5 -33q50 0 103 22.5t98 55t88 64.5t87 54.5t81 22.5q58 0 95.5 -38.5t37.5 -98.5 q0 -41 -15.5 -73.5t-35.5 -32.5q-16 0 -16 12q0 6 11 25.5t11 35.5q0 60 -76 60q-36 0 -89 -22.5t-102 -49.5t-117.5 -49.5t-131.5 -22.5q-84 0 -132 41.5t-48 112.5q0 68 46 116.5t161 100.5l-107 84q-28 23 -53 25q-19 3 -19 14q0 7 15 16t19.5 17.5t4.5 25.5v705 q0 37 -12.5 62t-44.5 46q-22 16 -22 27z" />
<glyph unicode="z" horiz-adv-x="854" d="M31 -66q0 36 84 166t168 256t84 152q0 10 -67 18t-67 15q0 8 41 86q13 23 21.5 36.5t23 25t29.5 11.5q8 0 53 -15t54 -15q17 0 28 22q6 12 34.5 56t52.5 83t24 46q0 10 -7.5 13.5t-33.5 8.5q-38 5 -107 23l-206 57q-92 25 -138 25q-23 0 -31 5t-8 17q0 18 62 90t80 72 q9 0 215 -65.5t250 -65.5q22 0 53 19.5t37 19.5q8 0 8 -11q0 -17 -32 -70t-72 -100q-44 -54 -82 -114t-55 -95t-17 -42q0 -10 18.5 -14.5t65.5 -6.5q52 -3 58 -11q3 -3 3 -7q0 -20 -96 -158q-5 -8 -18 -8q-9 0 -39.5 9.5t-57.5 18.5l-28 9q-8 0 -88 -136t-80 -151q0 -4 6 -5 t33 -1q23 0 163 -9.5t166 -9.5q25 0 74 1t72 1q45 0 59.5 -4.5t14.5 -19.5q0 -23 -50 -92q-4 -6 -12 -17t-14 -20t-10 -17q-14 -25 -23.5 -33t-26.5 -8t-73 11q-168 39 -357 39h-66t-43.5 -3t-31.5 -5.5t-18.5 -12.5t-16 -19t-14.5 -30q-16 -37 -29 -37q-5 0 -12.5 5 t-7.5 11z" />
<glyph unicode="{" horiz-adv-x="696" d="M109 573q0 31 12 39q60 40 117 105.5t57 134.5q0 45 -25 147q-24 98 -24 162q0 62 10 121t35 76q82 54 188 107t125 53q16 0 87 -30.5t71 -39.5q0 -7 -61.5 -61t-69.5 -54q-2 0 -74.5 37t-99.5 37q-18 0 -29.5 -10t-16.5 -32.5t-6.5 -43.5t-1.5 -57q2 -60 31 -209 q31 -136 31 -166q0 -83 -82 -172.5t-164 -118.5q-31 -12 -31 -25q0 -12 31 -24q82 -29 164 -118.5t82 -172.5q0 -30 -31 -166q-29 -149 -31 -209q0 -36 1.5 -57t6.5 -43.5t16.5 -32.5t29.5 -10q27 0 99.5 37t74.5 37q8 0 69.5 -54t61.5 -61q0 -9 -71 -39.5t-87 -30.5 q-19 0 -125 53t-188 107q-25 17 -35 76t-10 121q0 63 24 161q25 102 25 148q0 69 -57 134.5t-117 105.5q-12 8 -12 38z" />
<glyph unicode="|" horiz-adv-x="1079" d="M473 -512v2048h131v-2048h-131z" />
<glyph unicode="}" horiz-adv-x="696" d="M-25 -301q0 7 61.5 61t69.5 54q2 0 75 -37t100 -37q18 0 29.5 10t16.5 32.5t6 43t1 57.5q-2 60 -31 209q-31 136 -31 166q0 83 82 172.5t164 118.5q31 12 31 24q0 13 -31 25q-82 29 -164 118.5t-82 172.5q0 30 31 166q29 149 31 209q0 37 -1 57.5t-6 43t-16.5 32.5 t-29.5 10q-27 0 -100 -37t-75 -37q-8 0 -69.5 54t-61.5 61q0 9 71 39.5t87 30.5q19 0 125 -53t188 -107q25 -17 35.5 -76.5t10.5 -120.5q0 -60 -25 -162t-25 -147q0 -69 57 -134.5t117 -105.5q13 -9 13 -39q0 -29 -13 -38q-60 -40 -117 -105.5t-57 -134.5q0 -46 25 -148 t25 -161q0 -61 -10.5 -120.5t-35.5 -76.5q-82 -54 -188 -107t-125 -53q-16 0 -87 30.5t-71 39.5z" />
<glyph unicode="~" horiz-adv-x="1366" d="M193 506q56 86 118 133t148 47q109 0 241 -70q127 -69 205 -69q92 0 176 135l90 -94q-57 -88 -119 -136.5t-147 -48.5q-97 0 -229 74q-118 66 -217 66q-97 0 -176 -135z" />
<glyph unicode="&#xa1;" horiz-adv-x="405" d="M100 -334q0 34 38 296t42 310q9 99 13.5 124.5t13.5 25.5q25 0 31 -234q1 -69 16.5 -259t15.5 -208q0 -31 -20 -40q-117 -48 -129 -48t-16.5 7t-4.5 26zM109 647q0 9 44 59t56 50q11 0 53.5 -52t42.5 -61q0 -2 -4.5 -9t-14 -18t-20.5 -20q-12 -10 -28.5 -25t-26 -23.5 t-12.5 -8.5q-10 0 -27 20q-5 6 -16.5 19.5t-18 21.5t-14 18t-11 17t-3.5 12z" />
<glyph unicode="&#xa2;" horiz-adv-x="661" d="M94 297q0 9 10 16q19 22 19 47v424q0 40 18 58q23 20 224 135v145q0 20 3.5 27.5t14.5 7.5q18 0 18 -27v-145q8 -1 70.5 -10.5t75.5 -9.5q6 0 43.5 11t44.5 11q14 0 14 -16q0 -20 -61 -137q-15 -29 -22.5 -37.5t-18.5 -8.5q-15 0 -103 19.5t-104 19.5q-37 0 -37 -39v-364 q0 -51 58.5 -92t130.5 -41q8 0 54 5t54 5q21 0 21 -12q0 -21 -101 -64q-39 -15 -119 -55v-170q0 -33 -18 -33q-7 0 -12.5 9.5t-5.5 23.5v154q-23 -15 -39 -15q-9 0 -120.5 76t-111.5 82z" />
<glyph unicode="&#xa3;" horiz-adv-x="811" d="M72 604q0 10 29 50t40 40h66q9 0 6 15q-16 88 -16 131q0 51 21 102t54 91.5t74 78t81 64.5t75 47.5t56 30.5t24 10q38 0 166 -160l16 -21l-121 -122q-34 53 -73.5 96.5t-65 63.5t-33.5 20q-4 0 -16.5 -7t-30 -22t-33 -35t-26.5 -51t-11 -65q0 -54 41 -256l2 -11h189 q13 0 31 12.5t20 12.5q8 0 8 -12q0 -10 -29.5 -50.5t-40.5 -40.5h-149q-6 0 -6 -12q10 -58 10 -88q0 -119 -129 -274q68 -9 158 -45q111 -45 182 -45q38 0 59 12.5t58 58.5l33 -18q-94 -150 -120.5 -187.5t-41.5 -37.5q-45 0 -197.5 57t-220.5 57q-43 0 -92 -18l-13 26 q89 57 127.5 119.5t38.5 147.5q0 99 -41 247q-26 3 -100 0q-13 0 -31 -12t-20 -12q-8 0 -8 12z" />
<glyph unicode="&#xa4;" horiz-adv-x="1400" d="M158 121l200 201q-88 109 -88 260q0 75 24.5 145t63.5 115l-200 200l94 95l197 -201q117 88 264 88q151 0 260 -88l196 201l95 -95l-197 -200q84 -113 84 -260q0 -156 -84 -260l197 -201l-95 -94l-196 200q-104 -84 -260 -84q-160 0 -264 84l-197 -200zM393 582 q0 -130 93 -225t227 -95q131 0 223 95t92 225t-92 226.5t-223 96.5q-133 0 -226.5 -96t-93.5 -227z" />
<glyph unicode="&#xa5;" horiz-adv-x="1044" d="M-55 954q0 14 8 19q172 102 230 133t77 31q13 0 80.5 -118t149.5 -272t94 -174q168 325 237.5 444.5t98.5 119.5q108 0 180 -64q-5 -18 -23.5 -43.5t-40.5 -50.5t-26 -31q-49 37 -95 37q-21 0 -43 -23.5t-84.5 -131t-181.5 -334.5l277 2q18 0 50.5 15t33.5 15 q3 0 5.5 -2.5t2 -8t-5.5 -11.5l-39 -49q-9 -15 -60 -15l-266 2l4 -141h275q18 0 50.5 15.5t33.5 15.5q3 0 5.5 -2.5t2 -8t-5.5 -12.5l-39 -49q-8 -14 -60 -14l-262 4l8 -217q0 -41 -7.5 -51.5t-35.5 -10.5q-41 0 -68.5 -19t-43.5 -79q-6 -25 -19 -25q-14 0 -14 15 q0 12 17.5 185t15.5 202l-264 -2q-18 0 -50.5 -15.5t-33.5 -15.5q-3 0 -5.5 2.5t-2 8t5.5 12.5l39 49q8 14 59 14l254 -2l6 141l-272 -6q-18 0 -50.5 -15t-33.5 -15q-3 0 -5.5 2t-2 7.5t5.5 12.5l39 49q9 15 59 15l254 2q-97 183 -173 301.5t-119.5 164.5t-68.5 46 q-28 0 -81 -33t-68 -33q-8 0 -8 12z" />
<glyph unicode="&#xa6;" horiz-adv-x="1079" d="M473 -358v716h131v-716h-131zM473 666v716h131v-716h-131z" />
<glyph unicode="&#xa7;" horiz-adv-x="661" d="M43 586q0 46 1 74.5t10.5 59t16 45.5t31.5 46t42 48.5t63 64.5q-62 96 -75 122.5t-13 65.5q0 129 92 250q22 29 45 62.5t37 53.5t24 29q21 0 112.5 -47.5t180.5 -101.5q-47 -89 -98 -148q-119 73 -262 138q-12 -24 -12 -78q0 -59 34.5 -116.5t153.5 -197.5l29 -32 q96 -109 130 -157t46 -90.5t12 -121.5q0 -73 -8 -120.5t-33 -87.5t-48.5 -63.5t-78.5 -70.5q58 -70 75 -106t17 -89q0 -70 -27 -129.5t-100 -156.5q-37 -49 -73 -103q-145 62 -291 154q46 82 96 143l262 -139q15 47 15 86q0 54 -31 107.5t-125 162.5l-64 74 q-87 100 -120.5 147t-49.5 97t-16 125zM184 727q0 -139 41 -203q37 -58 112.5 -146t115.5 -126q32 43 40.5 73t8.5 101q0 52 -5 83.5t-16.5 65t-46 78.5t-76 93.5t-125.5 140.5q-49 -57 -49 -160z" />
<glyph unicode="&#xa8;" horiz-adv-x="681" d="M-70 1356q0 55 38.5 94t92.5 39t94 -39t40 -94q0 -54 -39.5 -92.5t-94.5 -38.5q-54 0 -92.5 38.5t-38.5 92.5zM-39 1354q0 -36 30 -70t87 -29q-29 48 -29 101q0 44 23 98q-51 1 -81 -29t-30 -71zM528 1356q0 56 38 94.5t93 38.5q54 0 94 -39t40 -94q0 -54 -39.5 -92.5 t-94.5 -38.5t-93 38.5t-38 92.5zM559 1356q0 -46 36.5 -76.5t82.5 -22.5q-29 60 -29 105q0 35 23 94q-32 -1 -55 -11.5t-34 -22.5t-17 -28t-6.5 -23.5t-0.5 -14.5z" />
<glyph unicode="&#xa9;" horiz-adv-x="1529" d="M55 809q0 144 56.5 275.5t152 226.5t227 151t275.5 56q115 0 223.5 -36t195.5 -101.5t152.5 -152.5t101.5 -195.5t36 -223.5t-36 -223.5t-101.5 -195.5t-152.5 -152.5t-195.5 -101.5t-223.5 -36q-144 0 -275.5 56t-227 151t-152 226.5t-56.5 275.5zM145 809 q0 -168 83.5 -311t226.5 -226.5t311 -83.5t311 83.5t226 226.5t83 311t-83 311t-226 226.5t-311 83.5t-311 -83.5t-226.5 -226.5t-83.5 -311zM334 799q0 192 124 316t316 124q86 0 197 -41q30 -12 45 -12q41 0 47 51h37v-264h-37q-20 100 -86 157.5t-160 57.5 q-123 0 -191.5 -95.5t-68.5 -267.5q0 -138 31.5 -217.5t103.5 -122.5q55 -34 119 -34q149 0 262 139v-72q-124 -127 -319 -127q-186 0 -303 114t-117 294z" />
<glyph unicode="&#xaa;" horiz-adv-x="468" d="M41 879q12 38 12 98q0 16 -1 42t-1 34t29 20q5 2 59 29q-86 35 -86 137q0 69 38 171.5t63 102.5q18 0 67 -16l92 -31q103 -35 103 -45q0 -5 -5 -19t-5 -22v-485q0 -8 4 -14.5t8 -6.5q9 0 25 8.5t18 8.5q4 0 4 -6q0 -17 -68 -56q-15 -8 -40.5 -23t-40 -22.5t-19.5 -7.5 q-12 0 -12 17v59q-11 0 -59 -37t-54 -37t-68.5 47.5t-62.5 53.5zM74 1243q0 -69 35.5 -100t113.5 -31q43 0 56.5 5t13.5 20v155q0 55 -40 85t-114 30q-16 0 -29.5 -20.5t-20.5 -49t-11 -54t-4 -40.5zM166 956q0 -31 29.5 -56.5t58.5 -25.5q39 0 39 44v153q0 23 -14 23h-70 q-43 0 -43 -27v-111z" />
<glyph unicode="&#xab;" horiz-adv-x="724" d="M59 569l295 512h33l-145 -512l145 -512h-33zM367 569l295 512h32l-145 -512l145 -512h-32z" />
<glyph unicode="&#xac;" horiz-adv-x="1366" d="M137 715v131h1090v-602h-131v471h-959z" />
<glyph unicode="&#xad;" horiz-adv-x="370" d="M70 524q0 12 7.5 21t31.5 24q209 123 217 123q2 0 5.5 -15.5t6 -37t2.5 -37.5q0 -10 -24 -26.5t-126 -75.5q-5 -2 -32.5 -18.5t-52 -31t-25.5 -14.5q-4 0 -5.5 3t-3 23t-1.5 62z" />
<glyph unicode="&#xae;" horiz-adv-x="1529" d="M55 809q0 144 56.5 275.5t152 226.5t227 151t275.5 56q115 0 223.5 -36t195.5 -101.5t152.5 -152.5t101.5 -195.5t36 -223.5t-36 -223.5t-101.5 -195.5t-152.5 -152.5t-195.5 -101.5t-223.5 -36q-144 0 -275.5 56t-227 151t-152 226.5t-56.5 275.5zM145 809 q0 -168 83.5 -311t226.5 -226.5t311 -83.5t311 83.5t226 226.5t83 311t-83 311t-226 226.5t-311 83.5t-311 -83.5t-226.5 -226.5t-83.5 -311zM371 412v34q61 0 82.5 25t21.5 111v473q0 78 -16.5 102.5t-73.5 28.5v35h363q151 0 220 -25.5t109 -95.5q27 -49 27 -99 q0 -75 -46 -128t-134 -78l137 -250q28 -50 50.5 -71.5t53.5 -27.5v-34h-241l-205 368h-45v-198q0 -85 21 -109t98 -27v-34h-422zM674 831q23 -4 55 -4q69 0 114.5 50.5t45.5 128.5q0 172 -178 172h-37v-347z" />
<glyph unicode="&#xaf;" horiz-adv-x="681" d="M20 1405q0 26 4.5 33.5t26.5 7.5l359 -6l233 6q16 0 19.5 -10t1.5 -31v-98q0 -28 -3 -34.5t-16 -6.5l-606 4q-14 2 -14 37zM55 1323q0 -14 6 -18l519 -7q10 0 13 5t3 20v31q0 12 -3.5 16t-14.5 4l-226 -4l-276 8q-21 0 -21 -24v-31z" />
<glyph unicode="&#xb0;" horiz-adv-x="819" d="M63 1038q0 142 102 244t245 102q142 0 244 -102t102 -244t-102 -244t-244 -102q-143 0 -245 102t-102 244zM195 1038q0 -89 63 -151t152 -62t152 62.5t63 150.5q0 89 -63 152t-152 63t-152 -63t-63 -152z" />
<glyph unicode="&#xb1;" horiz-adv-x="1366" d="M137 0v131h1090v-131h-1090zM137 635v131h479v371h132v-371h479v-131h-479v-373h-132v373h-479z" />
<glyph unicode="&#xb2;" horiz-adv-x="571" d="M51 1409q0 19 76 59.5t100 40.5q5 0 9 -2q21 -8 46.5 -23.5t58.5 -42.5t55 -67.5t22 -85.5q0 -70 -51 -167t-119 -156q-27 -24 -27 -33q0 -10 8.5 -13t49.5 -8q9 -1 75 -13.5t80 -12.5q22 0 37 11.5t21.5 22.5t9.5 11q10 0 10 -21q0 -59 -25.5 -101t-60.5 -42 q-18 0 -113 14.5t-129 14.5q-27 0 -51.5 -5.5t-39.5 -10.5t-19 -5q-6 0 -6 10q0 20 53 70q80 74 138 173.5t58 164.5q0 95 -66.5 166.5t-119.5 71.5q-20 0 -43.5 -13.5t-30.5 -13.5q-6 0 -6 6z" />
<glyph unicode="&#xb3;" horiz-adv-x="555" d="M35 1360q0 11 7.5 24t43.5 68q23 33 39 45t37 12q7 0 61 -12q50 -8 80 -8q8 0 18 1t22 2.5t19 2.5q30 6 56 6q18 0 18 -16q0 -15 -55 -72q-37 -37 -105 -119q50 -30 70 -42.5t48.5 -33.5t36.5 -32t19 -31t13 -40t2 -50q0 -172 -92 -217l-121 -62q-43 -22 -62 -22 q-10 0 -10 6q0 13 58 47q55 35 73.5 68.5t18.5 99.5q0 92 -26 132t-95 57q-47 9 -47 22q0 8 61.5 75t61.5 85q0 4 -8.5 5.5t-55.5 6.5q-6 1 -60.5 12t-64.5 11q-13 0 -19.5 -8.5t-19.5 -36.5q0 -5 -4 -5q-7 0 -12.5 5.5t-5.5 13.5z" />
<glyph unicode="&#xb4;" horiz-adv-x="681" d="M279 1247q0 6 33 57t71.5 108.5t44.5 68.5q14 19 18.5 24t13 8.5t25.5 4.5h254q33 0 33 -11q0 -7 -61 -45q-97 -57 -279 -174q-66 -44 -84.5 -54.5t-32.5 -10.5q-13 0 -24.5 7.5t-11.5 16.5zM326 1268q0 -11 8 -11q21 0 114 90.5t93 120.5q0 13 -10.5 16t-41.5 3 q-16 0 -23 -7t-36 -50z" />
<glyph unicode="&#xb5;" horiz-adv-x="1138" d="M80 -303q0 52 24.5 149t24.5 170v1008h168v-692q0 -105 48.5 -167.5t143.5 -62.5q86 0 158.5 64t83.5 117v741h168v-786q0 -105 17.5 -138.5t60.5 -33.5q42 0 64 37.5t22 105.5h49q3 -103 -48 -168.5t-149 -65.5q-169 0 -180 193h-8q-51 -88 -119 -140.5t-172 -52.5 q-75 0 -133 35t-88 88h-4v-82q0 -73 32.5 -170t32.5 -149q0 -67 -27 -109.5t-75 -42.5q-44 0 -69 42.5t-25 109.5z" />
<glyph unicode="&#xb6;" horiz-adv-x="1269" d="M82 932q0 117 43 215t112 160t151.5 96.5t166.5 34.5q28 0 188 -8q185 -9 193 -9q113 0 227 6q39 1 51.5 -4.5t12.5 -17.5q0 -16 -19 -16h-67q-22 0 -26.5 -14t-6.5 -72v-1489q0 -70 7 -87t30 -22q2 0 5 -1q27 -7 29 -16q1 -2 1 -5q0 -24 -58 -21q-9 0 -131.5 4t-169.5 4 q-79 0 -167 -3t-107 -3q-10 0 -16.5 5.5t-6.5 13.5q0 11 13.5 19.5t35.5 8.5l220 2q50 3 58.5 19t8.5 100v639q-60 -24 -89.5 -34t-79.5 -17.5t-116 -7.5q-118 0 -214.5 46.5t-156 122t-91 166t-31.5 185.5zM897 -168q-2 -85 12.5 -107t87.5 -22q54 0 64 16t10 93v1466 q3 22 0.5 39t-1.5 28.5t-5.5 19.5t-11.5 13t-19.5 7.5t-29.5 3t-41 0.5q-31 0 -43.5 -7.5t-18.5 -36t-4 -92.5v-1421z" />
<glyph unicode="&#xb7;" horiz-adv-x="512" d="M129 569q0 1 72 82q35 39 47 39t24 -12l82 -74q31 -24 31 -33q0 -6 -8 -14l-90 -102q-16 -21 -23 -21q-14 0 -61.5 45.5t-67.5 75.5q-6 12 -6 14z" />
<glyph unicode="&#xb8;" horiz-adv-x="681" d="M115 -311q0 9 5.5 14.5t12.5 5.5q10 0 31 -5t31 -5q77 0 115 35t38 71q0 28 -21.5 48t-40 26t-26.5 6q-5 0 -16.5 -2t-16.5 -2q-12 0 -12 19q0 7 7 10t32 8q9 2 24.5 7t43 20.5t45.5 34.5q92 4 147 -43t55 -113q0 -38 -21.5 -76.5t-53.5 -60.5q-65 -43 -191 -43 q-64 0 -126 12.5t-62 32.5zM272 -324v-4q89 0 136 11q68 18 100.5 61.5t32.5 83.5q0 44 -39 79t-88 40l-39 -33q33 -12 54.5 -39.5t21.5 -60.5q0 -60 -52.5 -95t-126.5 -43z" />
<glyph unicode="&#xb9;" horiz-adv-x="555" d="M88 1425q0 8 73.5 46t78.5 38q3 0 14.5 -4.5t28.5 -15.5t32.5 -26t27 -38.5t11.5 -50.5v-497q0 -14 -4.5 -19t-19.5 -6q-61 -8 -68 -68q-3 -18 -10 -18q-8 0 -15.5 10t-7.5 23v547q0 27 -22.5 52t-54.5 25q-11 0 -31.5 -3t-24.5 -3q-8 0 -8 8z" />
<glyph unicode="&#xba;" horiz-adv-x="468" d="M55 893q0 5 10.5 13.5t10.5 23.5v477q0 10 1 14t7 8t22 11q19 7 99 51q33 22 47 22t105.5 -46t91.5 -58q0 -7 -8.5 -12t-8.5 -17v-489q0 -7 -6 -12t-23 -13q-18 -8 -52 -28.5t-60.5 -36t-34.5 -15.5q-14 0 -115 56q-86 42 -86 51zM188 985q0 -22 8 -34.5t31 -24.5 q73 -31 80 -31q12 0 12 31v411q0 14 -50 46t-64 32q-6 0 -11.5 -7t-5.5 -17v-406z" />
<glyph unicode="&#xbb;" horiz-adv-x="724" d="M59 57l146 512l-146 512h33l295 -512l-295 -512h-33zM367 57l145 512l-145 512h32l295 -512l-295 -512h-32z" />
<glyph unicode="&#xbc;" horiz-adv-x="1218" d="M109 1053q0 8 73 46t78 38q3 0 14.5 -4.5t28.5 -15.5t33 -26t27.5 -39t11.5 -51v-497q0 -14 -5 -19t-20 -6q-60 -8 -67 -67q-3 -19 -11 -19t-15 10t-7 23v547q0 27 -23 52.5t-55 25.5q-11 0 -31 -3.5t-24 -3.5q-8 0 -8 9zM225 -33q0 4 3 10l8.5 17t9.5 20l547 1098 q13 25 61 25q33 0 33 -19q0 -4 -3 -10l-8.5 -17t-9.5 -20l-555 -1098q-13 -24 -45 -24q-41 0 -41 18zM610 338q0 11 23.5 34t99.5 87q16 13 96 80t121 99t47 32q17 0 17 -21v-262q0 -12 24 -12q3 0 24 3t25 3q23 0 23 -29q0 -33 -5 -41t-30 -8q-4 0 -26.5 2t-26.5 2 q-8 0 -8 -4v-217q0 -17 -5 -25.5t-20 -19.5q-61 -38 -71 -94q-5 -21 -19 -21t-14 35v348q-41 4 -223 4q-29 0 -40.5 5.5t-11.5 19.5zM707 389q0 -14 28 -14q46 0 148 4q4 54 4 82q0 76 -17 76q-1 0 -41.5 -33.5t-81 -70.5t-40.5 -44z" />
<glyph unicode="&#xbd;" horiz-adv-x="1261" d="M109 1053q0 8 73 46t78 38q3 0 14.5 -4.5t28.5 -15.5t33 -26t27.5 -39t11.5 -51v-497q0 -14 -5 -19t-20 -6q-60 -8 -67 -67q-3 -19 -11 -19t-15 10t-7 23v547q0 27 -23 52.5t-55 25.5q-11 0 -31 -3.5t-24 -3.5q-8 0 -8 9zM225 -33q0 4 3 10l8.5 17t9.5 20l547 1098 q13 25 61 25q33 0 33 -19q0 -4 -3 -10l-8.5 -17t-9.5 -20l-555 -1098q-13 -24 -45 -24q-41 0 -41 18zM692 592q0 19 76 59.5t100 40.5q5 0 9 -2q21 -8 46.5 -23.5t58.5 -42.5t55 -67.5t22 -85.5q0 -70 -51 -167.5t-119 -156.5q-27 -24 -27 -32q0 -10 8.5 -13t49.5 -8 q9 -1 75 -13.5t80 -12.5q22 0 37 11t21.5 22.5t9.5 11.5q10 0 10 -21q0 -59 -25.5 -101t-60.5 -42q-3 0 -113 14q-82 14 -129 14q-43 0 -73 -10q-7 -2 -15.5 -4.5t-13.5 -4t-8 -1.5q-6 0 -6 10q0 20 53 70q80 74 138 173.5t58 164.5q0 95 -66.5 166t-119.5 71 q-20 0 -43.5 -13t-30.5 -13q-6 0 -6 6z" />
<glyph unicode="&#xbe;" horiz-adv-x="1275" d="M57 987q0 14 36 67q10 16 16 25q23 34 39 46t36 12q4 0 62 -13q50 -8 80 -8q8 0 18 1t22 2.5t19 2.5q30 6 55 6q19 0 19 -16q0 -14 -56 -72q-36 -36 -104 -118q48 -29 69.5 -42.5t48.5 -33.5t36 -32t19.5 -32t12.5 -40t2 -50q0 -172 -92 -217l-121 -61q-45 -23 -61 -23 q-10 0 -10 6q0 14 57 47q55 35 73.5 68.5t18.5 99.5q0 92 -26 132t-95 57q-47 9 -47 22q0 8 61.5 75t61.5 85q0 4 -8 5.5t-55 6.5q-6 1 -60.5 12t-64.5 11q-13 0 -19.5 -8.5t-19.5 -36.5q0 -4 -4 -4q-8 0 -13.5 5.5t-5.5 12.5zM309 -33q0 4 3 10l8.5 17t9.5 20l547 1098 q13 25 61 25q33 0 33 -19q0 -4 -3 -10l-8.5 -17t-9.5 -20l-555 -1098q-13 -24 -45 -24q-41 0 -41 18zM694 338q0 11 23.5 34t99.5 87q16 13 96 80t121 99t47 32q17 0 17 -21v-262q0 -12 24 -12q3 0 24 3t25 3q23 0 23 -29q0 -33 -5 -41t-30 -8q-4 0 -26.5 2t-26.5 2 q-8 0 -8 -4v-217q0 -17 -5 -25.5t-20 -19.5q-62 -39 -72 -94q-5 -21 -18 -21q-14 0 -14 35v348q-41 4 -224 4q-29 0 -40 5.5t-11 19.5zM791 389q0 -14 28 -14q46 0 148 4q4 54 4 82q0 76 -17 76q-1 0 -41.5 -33.5t-81 -70.5t-40.5 -44z" />
<glyph unicode="&#xbf;" horiz-adv-x="618" d="M94 -147q0 62 31.5 151t77.5 160q33 47 131 67q46 11 66 23t20 31t-17.5 48t-42.5 52q-22 22 -24 35q2 12 12 12q21 0 68 -52.5t86 -120t39 -103.5q0 -25 -15.5 -35t-58.5 -15l-29 -4q-194 -19 -256 -43q-4 -12 -4 -28q0 -124 63.5 -193t141.5 -69q4 0 30 9t31 9 q9 0 9 -8q0 -22 -65.5 -85t-88.5 -63q-5 0 -25 6t-51.5 22.5t-59.5 40t-48.5 64t-20.5 89.5zM219 647q0 6 4 10l80 91q9 11 19 19.5t15 11.5t7 3q3 0 13.5 -6.5t28 -21.5t32.5 -33l39 -45q7 -8 -47.5 -72.5t-73.5 -64.5q-12 0 -64.5 47t-52.5 61z" />
<glyph unicode="&#xc0;" horiz-adv-x="1812" d="M94 -285q186 220 279 527l-6 8q-44 -14 -95 -14q-66 0 -98.5 48.5t-32.5 129.5q0 120 54.5 242.5t152.5 258.5q137 189 412 412q-24 2 -145 8.5t-178.5 11t-151.5 14.5t-164 23l-4 11l8 20q153 -27 242 -35q191 -18 426 -18q415 0 649 10t350 43q10 -13 10 -31l-141 -30 q-17 -3 -24.5 -14t-10.5 -35q-12 -105 -12 -369q0 -176 14 -522t41 -367l191 -22l-5 -31q-35 1 -129 5.5t-145 4.5q-31 0 -92 -2t-92 -2q-99 0 -295.5 3t-294.5 3q-138 0 -302 -5.5t-181 -14.5q-7 -4 -32 -43.5t-52.5 -85t-36.5 -56.5q-55 -71 -97 -102zM336 37l221 -2 q132 0 389 5t277 15q24 12 37.5 122t13.5 183v258q0 35 -15 51.5t-53 16.5q-81 0 -192 -12q-1 -8 8.5 -21.5t9.5 -21.5q0 -24 -16 -43t-51 -19q-30 0 -51 15.5t-21 33.5q0 21 11 36.5t11 19.5q-296 -30 -389 -68l-106 -344q-4 -14 -41.5 -109.5t-42.5 -115.5zM582 1700 q0 12 10 12h246q38 0 48.5 -2.5t22.5 -15.5q20 -20 90 -128.5t70 -129.5q0 -8 -8 -13t-14 -6.5t-9 -1.5q-11 0 -29.5 9.5t-68.5 41.5q-21 13 -33 21q-51 34 -161.5 104.5t-127.5 77.5q-36 18 -36 31zM598 809q0 -28 25 -37q39 -13 172 -10l114 2l4 12q-18 23 -18 58 q0 19 18.5 35t44.5 16q34 0 50 -22.5t16 -39.5t-35 -41l12 -12q101 0 236 31q18 5 25 12.5t12.5 43.5t5.5 110q0 236 -29 331q-2 9 -8.5 15t-18.5 9.5t-22 6t-29.5 3.5t-32 1h-36.5q-244 0 -273 -14q-37 -21 -93.5 -121t-98 -215t-41.5 -174zM662 1677l352 -219q6 0 6 8 q0 4 -41.5 43t-87.5 81.5t-53 51.5q-13 16 -48 27.5t-63 11.5h-65v-4zM1507 1044q0 -149 8 -517.5t11 -446.5q0 -22 10 -26.5t55 -4.5q11 0 17 7t6 16q0 15 -9 124t-17.5 299.5t-8.5 401.5q0 127 4 224.5t8 144t4 49.5q0 9 -5.5 15.5t-12.5 6.5l-55 -8q-5 -5 -10 -118 t-5 -167z" />
<glyph unicode="&#xc1;" horiz-adv-x="1812" d="M94 -285q186 220 279 527l-6 8q-44 -14 -95 -14q-66 0 -98.5 48.5t-32.5 129.5q0 120 54.5 242.5t152.5 258.5q137 189 412 412q-24 2 -145 8.5t-178.5 11t-151.5 14.5t-164 23l-4 11l8 20q153 -27 242 -35q191 -18 426 -18q415 0 649 10t350 43q10 -13 10 -31l-141 -30 q-17 -3 -24.5 -14t-10.5 -35q-12 -105 -12 -369q0 -176 14 -522t41 -367l191 -22l-5 -31q-35 1 -129 5.5t-145 4.5q-31 0 -92 -2t-92 -2q-99 0 -295.5 3t-294.5 3q-138 0 -302 -5.5t-181 -14.5q-7 -4 -32 -43.5t-52.5 -85t-36.5 -56.5q-55 -71 -97 -102zM336 37l221 -2 q132 0 389 5t277 15q24 12 37.5 122t13.5 183v258q0 35 -15 51.5t-53 16.5q-81 0 -192 -12q-1 -8 8.5 -21.5t9.5 -21.5q0 -24 -16 -43t-51 -19q-30 0 -51 15.5t-21 33.5q0 21 11 36.5t11 19.5q-296 -30 -389 -68l-106 -344q-4 -14 -41.5 -109.5t-42.5 -115.5zM598 809 q0 -28 25 -37q39 -13 172 -10l114 2l4 12q-18 23 -18 58q0 19 18.5 35t44.5 16q34 0 50 -22.5t16 -39.5t-35 -41l12 -12q101 0 236 31q18 5 25 12.5t12.5 43.5t5.5 110q0 236 -29 331q-2 9 -8.5 15t-18.5 9.5t-22 6t-29.5 3.5t-32 1h-36.5q-244 0 -273 -14 q-37 -21 -93.5 -121t-98 -215t-41.5 -174zM946 1442q0 6 33 57t72 108t45 68q14 19 18.5 24t13 8.5t25.5 4.5h254h5.5h5.5h5h4.5t4 -0.5t3.5 -1.5t2.5 -2t2 -2.5t0.5 -3.5q0 -3 -4.5 -7.5t-13 -10t-15.5 -10t-16.5 -10t-12.5 -7.5q-87 -51 -278 -174q-68 -45 -86 -55.5 t-31 -10.5t-25 8t-12 17zM993 1462q0 -10 8 -10q21 0 114 90.5t93 120.5q0 13 -10 15.5t-41 2.5q-16 0 -23 -7t-36 -50zM1507 1044q0 -149 8 -517.5t11 -446.5q0 -22 10 -26.5t55 -4.5q11 0 17 7t6 16q0 15 -9 124t-17.5 299.5t-8.5 401.5q0 127 4 224.5t8 144t4 49.5 q0 9 -5.5 15.5t-12.5 6.5l-55 -8q-5 -5 -10 -118t-5 -167z" />
<glyph unicode="&#xc2;" horiz-adv-x="1812" d="M94 -285q186 220 279 527l-6 8q-44 -14 -95 -14q-66 0 -98.5 48.5t-32.5 129.5q0 120 54.5 242.5t152.5 258.5q137 189 412 412q-24 2 -145 8.5t-178.5 11t-151.5 14.5t-164 23l-4 11l8 20q153 -27 242 -35q191 -18 426 -18q415 0 649 10t350 43q10 -13 10 -31l-141 -30 q-17 -3 -24.5 -14t-10.5 -35q-12 -105 -12 -369q0 -176 14 -522t41 -367l191 -22l-5 -31q-35 1 -129 5.5t-145 4.5q-31 0 -92 -2t-92 -2q-99 0 -295.5 3t-294.5 3q-138 0 -302 -5.5t-181 -14.5q-7 -4 -32 -43.5t-52.5 -85t-36.5 -56.5q-55 -71 -97 -102zM336 37l221 -2 q132 0 389 5t277 15q24 12 37.5 122t13.5 183v258q0 35 -15 51.5t-53 16.5q-81 0 -192 -12q-1 -8 8.5 -21.5t9.5 -21.5q0 -24 -16 -43t-51 -19q-30 0 -51 15.5t-21 33.5q0 21 11 36.5t11 19.5q-296 -30 -389 -68l-106 -344q-4 -14 -41.5 -109.5t-42.5 -115.5zM598 809 q0 -28 25 -37q39 -13 172 -10l114 2l4 12q-18 23 -18 58q0 19 18.5 35t44.5 16q34 0 50 -22.5t16 -39.5t-35 -41l12 -12q101 0 236 31q18 5 25 12.5t12.5 43.5t5.5 110q0 236 -29 331q-2 9 -8.5 15t-18.5 9.5t-22 6t-29.5 3.5t-32 1h-36.5q-244 0 -273 -14 q-37 -21 -93.5 -121t-98 -215t-41.5 -174zM721 1458q0 12 15.5 29t76.5 72l168 161q19 15 45 15q18 0 34.5 -12.5t96.5 -80.5q184 -154 205 -167q4 -2 10 -8.5t6 -10.5q0 -6 -6 -11t-12 -5q-21 0 -116 71t-150 123q-4 -4 -62.5 -59t-103.5 -93.5t-56 -39.5h-116 q-35 0 -35 16zM766 1473h82q5 5 96 91t109 107l-41 35zM1507 1044q0 -149 8 -517.5t11 -446.5q0 -22 10 -26.5t55 -4.5q11 0 17 7t6 16q0 15 -9 124t-17.5 299.5t-8.5 401.5q0 127 4 224.5t8 144t4 49.5q0 9 -5.5 15.5t-12.5 6.5l-55 -8q-5 -5 -10 -118t-5 -167z" />
<glyph unicode="&#xc3;" horiz-adv-x="1812" d="M94 -285q186 220 279 527l-6 8q-44 -14 -95 -14q-66 0 -98.5 48.5t-32.5 129.5q0 120 54.5 242.5t152.5 258.5q137 189 412 412q-24 2 -145 8.5t-178.5 11t-151.5 14.5t-164 23l-4 11l8 20q153 -27 242 -35q191 -18 426 -18q415 0 649 10t350 43q10 -13 10 -31l-141 -30 q-17 -3 -24.5 -14t-10.5 -35q-12 -105 -12 -369q0 -176 14 -522t41 -367l191 -22l-5 -31q-35 1 -129 5.5t-145 4.5q-31 0 -92 -2t-92 -2q-99 0 -295.5 3t-294.5 3q-138 0 -302 -5.5t-181 -14.5q-7 -4 -32 -43.5t-52.5 -85t-36.5 -56.5q-55 -71 -97 -102zM336 37l221 -2 q132 0 389 5t277 15q24 12 37.5 122t13.5 183v258q0 35 -15 51.5t-53 16.5q-81 0 -192 -12q-1 -8 8.5 -21.5t9.5 -21.5q0 -24 -16 -43t-51 -19q-30 0 -51 15.5t-21 33.5q0 21 11 36.5t11 19.5q-296 -30 -389 -68l-106 -344q-4 -14 -41.5 -109.5t-42.5 -115.5zM598 809 q0 -28 25 -37q39 -13 172 -10l114 2l4 12q-18 23 -18 58q0 19 18.5 35t44.5 16q34 0 50 -22.5t16 -39.5t-35 -41l12 -12q101 0 236 31q18 5 25 12.5t12.5 43.5t5.5 110q0 236 -29 331q-2 9 -8.5 15t-18.5 9.5t-22 6t-29.5 3.5t-32 1h-36.5q-244 0 -273 -14 q-37 -21 -93.5 -121t-98 -215t-41.5 -174zM639 1712q0 10 9.5 16.5t19.5 6.5q3 0 6 -0.5t5 -2.5l3.5 -3.5t3.5 -5t2.5 -4t1.5 -5.5l2 -4q9 -24 38.5 -56t68.5 -32q29 0 172 66q106 47 162 47q36 0 66 -10.5t48 -23.5t34.5 -34.5t23 -33.5t14.5 -29q9 -18 24 -68.5t15 -65.5 q0 -16 -23 -16q-10 0 -16 6.5t-21 34.5q-41 68 -92 68q-47 0 -153 -54q-108 -55 -176 -55q-50 0 -92.5 22t-68.5 53.5t-44 69t-25.5 66.5t-7.5 47zM713 1626q11 -29 30 -49t40 -28t34 -10.5t23 -2.5q23 0 48 7.5t39 14t58 27.5q103 57 172 57q83 0 137 -65l4 4 q-14 25 -21.5 37t-29 37.5t-50 38t-64.5 12.5q-47 0 -150 -47q-106 -47 -134.5 -57.5t-53.5 -10.5q-18 0 -42 9t-36 30zM1507 1044q0 -149 8 -517.5t11 -446.5q0 -22 10 -26.5t55 -4.5q11 0 17 7t6 16q0 15 -9 124t-17.5 299.5t-8.5 401.5q0 127 4 224.5t8 144t4 49.5 q0 9 -5.5 15.5t-12.5 6.5l-55 -8q-5 -5 -10 -118t-5 -167z" />
<glyph unicode="&#xc4;" horiz-adv-x="1812" d="M94 -285q186 220 279 527l-6 8q-44 -14 -95 -14q-66 0 -98.5 48.5t-32.5 129.5q0 120 54.5 242.5t152.5 258.5q137 189 412 412q-24 2 -145 8.5t-178.5 11t-151.5 14.5t-164 23l-4 11l8 20q153 -27 242 -35q191 -18 426 -18q415 0 649 10t350 43q10 -13 10 -31l-141 -30 q-17 -3 -24.5 -14t-10.5 -35q-12 -105 -12 -369q0 -176 14 -522t41 -367l191 -22l-5 -31q-35 1 -129 5.5t-145 4.5q-31 0 -92 -2t-92 -2q-99 0 -295.5 3t-294.5 3q-138 0 -302 -5.5t-181 -14.5q-7 -4 -32 -43.5t-52.5 -85t-36.5 -56.5q-55 -71 -97 -102zM336 37l221 -2 q132 0 389 5t277 15q24 12 37.5 122t13.5 183v258q0 35 -15 51.5t-53 16.5q-81 0 -192 -12q-1 -8 8.5 -21.5t9.5 -21.5q0 -24 -16 -43t-51 -19q-30 0 -51 15.5t-21 33.5q0 21 11 36.5t11 19.5q-296 -30 -389 -68l-106 -344q-4 -14 -41.5 -109.5t-42.5 -115.5zM598 809 q0 -28 25 -37q39 -13 172 -10l114 2l4 12q-18 23 -18 58q0 19 18.5 35t44.5 16q34 0 50 -22.5t16 -39.5t-35 -41l12 -12q101 0 236 31q18 5 25 12.5t12.5 43.5t5.5 110q0 236 -29 331q-2 9 -8.5 15t-18.5 9.5t-22 6t-29.5 3.5t-32 1h-36.5q-244 0 -273 -14 q-37 -21 -93.5 -121t-98 -215t-41.5 -174zM618 1591q0 55 39 94t93 39t93.5 -39t39.5 -94q0 -54 -39 -92.5t-94 -38.5q-54 0 -93 38.5t-39 92.5zM649 1589q0 -36 29.5 -69.5t87.5 -28.5q-29 48 -29 100q0 45 23 99q-51 1 -81 -29.5t-30 -71.5zM1217 1591q0 57 38.5 95 t92.5 38t93.5 -39t39.5 -94q0 -54 -39 -92.5t-94 -38.5t-93 38.5t-38 92.5zM1247 1591q0 -46 36.5 -76t82.5 -22q-29 60 -29 104q0 36 23 95q-32 -1 -55 -11.5t-34 -22.5t-17 -28.5t-6.5 -24t-0.5 -14.5zM1507 1044q0 -149 8 -517.5t11 -446.5q0 -22 10 -26.5t55 -4.5 q11 0 17 7t6 16q0 15 -9 124t-17.5 299.5t-8.5 401.5q0 127 4 224.5t8 144t4 49.5q0 9 -5.5 15.5t-12.5 6.5l-55 -8q-5 -5 -10 -118t-5 -167z" />
<glyph unicode="&#xc5;" horiz-adv-x="1812" d="M94 -285q186 220 279 527l-6 8q-44 -14 -95 -14q-66 0 -98.5 48.5t-32.5 129.5q0 120 54.5 242.5t152.5 258.5q137 189 412 412q-24 2 -145 8.5t-178.5 11t-151.5 14.5t-164 23l-4 11l8 20q153 -27 242 -35q191 -18 426 -18q415 0 649 10t350 43q10 -13 10 -31l-141 -30 q-17 -3 -24.5 -14t-10.5 -35q-12 -105 -12 -369q0 -176 14 -522t41 -367l191 -22l-5 -31q-35 1 -129 5.5t-145 4.5q-31 0 -92 -2t-92 -2q-99 0 -295.5 3t-294.5 3q-138 0 -302 -5.5t-181 -14.5q-7 -4 -32 -43.5t-52.5 -85t-36.5 -56.5q-55 -71 -97 -102zM336 37l221 -2 q132 0 389 5t277 15q24 12 37.5 122t13.5 183v258q0 35 -15 51.5t-53 16.5q-81 0 -192 -12q-1 -8 8.5 -21.5t9.5 -21.5q0 -24 -16 -43t-51 -19q-30 0 -51 15.5t-21 33.5q0 21 11 36.5t11 19.5q-296 -30 -389 -68l-106 -344q-4 -14 -41.5 -109.5t-42.5 -115.5zM598 809 q0 -28 25 -37q39 -13 172 -10l114 2l4 12q-18 23 -18 58q0 19 18.5 35t44.5 16q34 0 50 -22.5t16 -39.5t-35 -41l12 -12q101 0 236 31q18 5 25 12.5t12.5 43.5t5.5 110q0 236 -29 331q-2 9 -8.5 15t-18.5 9.5t-22 6t-29.5 3.5t-32 1h-36.5q-244 0 -273 -14 q-37 -21 -93.5 -121t-98 -215t-41.5 -174zM829 1597q0 23 9.5 49.5t29.5 52.5t56.5 43t83.5 17q90 0 136 -49.5t46 -110.5q0 -24 -8.5 -49t-27 -51.5t-56 -43.5t-88.5 -17q-49 0 -86.5 16t-57 41.5t-28.5 51.5t-9 50zM862 1595q0 -9 2.5 -20.5t9.5 -29t24 -29t42 -11.5 q31 0 51.5 24.5t20.5 61.5q0 40 -20 69.5t-56 29.5q-25 0 -41.5 -12.5t-22.5 -32t-8 -30.5t-2 -20zM981 1704q68 -33 68 -119q0 -65 -58 -92l4 -4q31 1 53.5 11.5t33.5 23.5t17.5 30t7.5 25.5t1 15.5q0 38 -29.5 73.5t-93.5 39.5zM1507 1044q0 -149 8 -517.5t11 -446.5 q0 -22 10 -26.5t55 -4.5q11 0 17 7t6 16q0 15 -9 124t-17.5 299.5t-8.5 401.5q0 127 4 224.5t8 144t4 49.5q0 9 -5.5 15.5t-12.5 6.5l-55 -8q-5 -5 -10 -118t-5 -167z" />
<glyph unicode="&#xc6;" horiz-adv-x="1810" d="M111 -47q0 16 58.5 101.5t369.5 525.5q-103 37 -182.5 91t-123.5 106.5t-72 111.5t-37 102.5t-9 83.5q0 118 74.5 215t205.5 152t291 55q226 0 428 -108q32 49 59 75.5t66 48.5q-16 -80 -18 -120q96 51 198 114q25 -6 115.5 -35.5t169.5 -54t90 -24.5q24 0 49 22q4 4 6 4 q6 0 12.5 -6.5t6.5 -11.5q0 -27 -65 -90t-143 -123.5t-143 -116t-65 -70.5q0 -14 16 -14q150 0 248 10q-24 -239 -24 -280q0 -15 6 -53.5t6 -45.5q0 -12 -10 -12q-14 0 -23.5 35.5t-9.5 93.5v25q-1 33 -10 40t-49 7h-340q-32 0 -43 -10.5t-11 -44.5v-211q0 -32 -11 -49 t-46 -39q-52 -30 -123 -95q381 -157 559 -157q70 0 119.5 14.5t68 31.5t32.5 31.5t22 14.5q6 0 12 -7t6 -14q0 -19 -47 -63l-67 -64q-115 -108 -166 -140t-109 -32q-83 0 -385 127q-77 33 -92 33q-23 0 -90 -59q-61 -53 -117 -88q-12 4 -58 19.5t-75 24.5t-74 21t-87.5 17.5 t-82.5 5.5q-99 0 -171 -38t-89 -99q0 -9 -6 -9q-8 0 -14 7.5t-6 17.5zM178 1040q0 -51 23.5 -108.5t69 -116t123.5 -109t177 -79.5l226 313q97 133 120 168t23 49q0 15 -32 45.5t-83 62t-125.5 55t-146.5 23.5q-160 0 -267.5 -87t-107.5 -216zM297 170q0 -6 4 -6q12 0 27 6 q87 41 268 41q105 0 299 -27q12 -2 26 -4t22 -3t11 -1q25 0 25 31v303q0 22 -2 26.5t-14 4.5q-13 0 -56.5 -2t-72.5 -2q-132 0 -256 28l-105 -145q-176 -246 -176 -250zM612 614q51 -10 80.5 -12t102.5 -2q84 0 184 12v205q0 214 37 309q10 25 10 37q0 11 -6 11 q-29 0 -154 -205q-79 -132 -254 -355zM1210 877q44 21 82 51l160 129q166 134 166 166q0 7 -50 33t-151 56t-207 34v-469z" />
<glyph unicode="&#xc7;" horiz-adv-x="1556" d="M76 666q0 41 2 73t12.5 89t29 106t56.5 111t90 118q123 131 288 202t345 71q273 0 498 -174q7 0 10 8.5t6 32.5q4 31 28 70.5t36 39.5q14 0 14 -24l-10 -43q-17 -123 -31 -456.5t-14 -545.5q0 -196 6 -264l16 -152q0 -10 -6 -16t-14 -6q-17 0 -21.5 10.5t-7.5 50.5 q0 9 -5 49t-9 45q-4 11 -15 11l-43 -17q-133 -49 -185 -61.5t-189 -30.5q25 -17 36 -25t28.5 -26t24.5 -39.5t7 -50.5q0 -36 -21.5 -75t-54.5 -60q-62 -43 -190 -43q-63 0 -125 12.5t-62 32.5q0 8 6 14t11 6l63 -10q76 0 114 35t38 71q0 28 -21.5 48t-39.5 26t-25 6l-35 -4 q-1 0 -3.5 2.5t-4.5 7t-2 9.5q0 7 6.5 10t31.5 8q56 14 93 43q-173 7 -318.5 60.5t-243.5 140.5q-200 177 -200 504zM344 666q0 -87 12.5 -163t33 -129t38 -85t35.5 -56q21 -26 34.5 -41t38.5 -33.5t44 -17.5q-154 249 -154 531q0 142 23 256.5t96 251.5q-6 1 -27 -17 t-50.5 -59.5t-57 -98.5t-47 -147t-19.5 -192zM465 705q0 -314 136.5 -504.5t348.5 -190.5q51 0 88 8.5t78 34t74.5 54t95.5 86.5q74 70 89.5 104.5t15.5 108.5l12 448q0 104 -31 194t-81.5 152t-115.5 106.5t-134 65.5t-136 21q-121 0 -224 -102t-159.5 -259.5t-56.5 -326.5 zM762 -324v-4q90 0 137 11q68 18 99.5 61.5t31.5 83.5q0 45 -38 79.5t-87 39.5l-41 -33q33 -12 55.5 -39.5t22.5 -60.5q0 -60 -52.5 -95t-127.5 -43z" />
<glyph unicode="&#xc8;" horiz-adv-x="1556" d="M74 657q0 130 33 241t87 189t127 140.5t148.5 100.5t156 63t146 35t121.5 10q117 0 226 -35.5t245 -114.5q7 -4 16.5 -10.5t15.5 -10t9 -3.5q14 0 49 96t53 96q15 0 15 -14t-14 -47t-31 -80.5t-31 -173t-14 -301.5q0 -726 14 -828l37 -284q0 -6 -4.5 -11.5t-10.5 -5.5 q-20 0 -36.5 56t-25.5 136t-14 139t-6 93q-25 -24 -41.5 -38t-60 -39t-91 -39t-127.5 -25.5t-177 -11.5q-381 0 -598 177t-217 500zM336 696q0 -118 34 -241.5t98 -216.5t140 -111l4 4q-76 79 -129 239.5t-53 340.5q0 292 131 501l-4 5q-78 -53 -129 -139.5t-71.5 -180.5 t-20.5 -201zM469 655q11 -142 45.5 -254t94 -196t150.5 -129t208 -45q40 0 65.5 4.5t68.5 22t97 60t123 111.5q52 50 62 86.5t10 145.5q0 39 -0.5 59t-2.5 48.5t-7 43.5t-13 21q-27 18 -207.5 28.5t-296.5 10.5q-288 0 -397 -17zM469 774q33 -4 109 -4q108 0 242 7t250 16 t142 10q132 6 164 24q6 24 6 47q0 105 -29 194t-76.5 148.5t-109 101t-126 60.5t-128.5 19q-81 0 -154 -38t-126 -101.5t-91.5 -143.5t-56.5 -168t-16 -172zM516 1782q0 12 10 12h246q38 0 49 -2.5t23 -15.5q20 -20 90 -128.5t70 -129.5q0 -8 -8 -13t-14 -6.5t-9 -1.5 q-11 0 -29.5 9.5t-68.5 41.5q-21 13 -33 21q-51 34 -161.5 104.5t-127.5 77.5q-37 19 -37 31zM596 1759l352 -219q6 0 6 8q0 4 -41.5 43t-87.5 81.5t-53 51.5q-13 16 -47.5 27.5t-62.5 11.5h-66v-4z" />
<glyph unicode="&#xc9;" horiz-adv-x="1556" d="M74 657q0 130 33 241t87 189t127 140.5t148.5 100.5t156 63t146 35t121.5 10q117 0 226 -35.5t245 -114.5q7 -4 16.5 -10.5t15.5 -10t9 -3.5q14 0 49 96t53 96q15 0 15 -14t-14 -47t-31 -80.5t-31 -173t-14 -301.5q0 -726 14 -828l37 -284q0 -6 -4.5 -11.5t-10.5 -5.5 q-20 0 -36.5 56t-25.5 136t-14 139t-6 93q-25 -24 -41.5 -38t-60 -39t-91 -39t-127.5 -25.5t-177 -11.5q-381 0 -598 177t-217 500zM336 696q0 -118 34 -241.5t98 -216.5t140 -111l4 4q-76 79 -129 239.5t-53 340.5q0 292 131 501l-4 5q-78 -53 -129 -139.5t-71.5 -180.5 t-20.5 -201zM469 655q11 -142 45.5 -254t94 -196t150.5 -129t208 -45q40 0 65.5 4.5t68.5 22t97 60t123 111.5q52 50 62 86.5t10 145.5q0 39 -0.5 59t-2.5 48.5t-7 43.5t-13 21q-27 18 -207.5 28.5t-296.5 10.5q-288 0 -397 -17zM469 774q33 -4 109 -4q108 0 242 7t250 16 t142 10q132 6 164 24q6 24 6 47q0 105 -29 194t-76.5 148.5t-109 101t-126 60.5t-128.5 19q-81 0 -154 -38t-126 -101.5t-91.5 -143.5t-56.5 -168t-16 -172zM799 1524q0 6 33 57t71.5 108t44.5 68q18 25 26 30.5t32 6.5h254h6q26 0 26 -10q0 -7 -61 -45q-97 -57 -279 -174 q-69 -46 -86 -56t-30 -10t-25 8t-12 17zM846 1544q0 -10 8 -10q21 0 114 90.5t93 120.5q0 13 -10 15.5t-41 2.5q-16 0 -24 -7.5t-36 -49.5z" />
<glyph unicode="&#xca;" horiz-adv-x="1556" d="M74 657q0 130 33 241t87 189t127 140.5t148.5 100.5t156 63t146 35t121.5 10q117 0 226 -35.5t245 -114.5q7 -4 16.5 -10.5t15.5 -10t9 -3.5q14 0 49 96t53 96q15 0 15 -14t-14 -47t-31 -80.5t-31 -173t-14 -301.5q0 -726 14 -828l37 -284q0 -6 -4.5 -11.5t-10.5 -5.5 q-20 0 -36.5 56t-25.5 136t-14 139t-6 93q-25 -24 -41.5 -38t-60 -39t-91 -39t-127.5 -25.5t-177 -11.5q-381 0 -598 177t-217 500zM336 696q0 -118 34 -241.5t98 -216.5t140 -111l4 4q-76 79 -129 239.5t-53 340.5q0 292 131 501l-4 5q-78 -53 -129 -139.5t-71.5 -180.5 t-20.5 -201zM469 655q11 -142 45.5 -254t94 -196t150.5 -129t208 -45q40 0 65.5 4.5t68.5 22t97 60t123 111.5q52 50 62 86.5t10 145.5q0 39 -0.5 59t-2.5 48.5t-7 43.5t-13 21q-27 18 -207.5 28.5t-296.5 10.5q-288 0 -397 -17zM469 774q33 -4 109 -4q108 0 242 7t250 16 t142 10q132 6 164 24q6 24 6 47q0 105 -29 194t-76.5 148.5t-109 101t-126 60.5t-128.5 19q-81 0 -154 -38t-126 -101.5t-91.5 -143.5t-56.5 -168t-16 -172zM573 1499q0 12 14.5 27t78.5 73l168 162q19 15 45 15q18 0 34.5 -12.5t96.5 -80.5q187 -157 204 -167 q4 -2 10.5 -8.5t6.5 -10.5q0 -6 -6.5 -11t-12.5 -5q-21 0 -116 71t-150 123q-5 -4 -62.5 -59t-102.5 -93.5t-56 -39.5h-117q-35 0 -35 16zM618 1513h82q3 3 95 90.5t110 108.5l-41 35z" />
<glyph unicode="&#xcb;" horiz-adv-x="1556" d="M74 657q0 130 33 241t87 189t127 140.5t148.5 100.5t156 63t146 35t121.5 10q117 0 226 -35.5t245 -114.5q7 -4 16.5 -10.5t15.5 -10t9 -3.5q14 0 49 96t53 96q15 0 15 -14t-14 -47t-31 -80.5t-31 -173t-14 -301.5q0 -726 14 -828l37 -284q0 -6 -4.5 -11.5t-10.5 -5.5 q-20 0 -36.5 56t-25.5 136t-14 139t-6 93q-25 -24 -41.5 -38t-60 -39t-91 -39t-127.5 -25.5t-177 -11.5q-381 0 -598 177t-217 500zM336 696q0 -118 34 -241.5t98 -216.5t140 -111l4 4q-76 79 -129 239.5t-53 340.5q0 292 131 501l-4 5q-78 -53 -129 -139.5t-71.5 -180.5 t-20.5 -201zM469 655q11 -142 45.5 -254t94 -196t150.5 -129t208 -45q40 0 65.5 4.5t68.5 22t97 60t123 111.5q52 50 62 86.5t10 145.5q0 39 -0.5 59t-2.5 48.5t-7 43.5t-13 21q-27 18 -207.5 28.5t-296.5 10.5q-288 0 -397 -17zM469 774q33 -4 109 -4q108 0 242 7t250 16 t142 10q132 6 164 24q6 24 6 47q0 105 -29 194t-76.5 148.5t-109 101t-126 60.5t-128.5 19q-81 0 -154 -38t-126 -101.5t-91.5 -143.5t-56.5 -168t-16 -172zM471 1612q0 55 38.5 94t92.5 39t93.5 -39t39.5 -94q0 -54 -39 -92.5t-94 -38.5q-54 0 -92.5 38.5t-38.5 92.5z M502 1610q0 -37 29.5 -70.5t86.5 -28.5q-28 47 -28 101q0 46 22 98q-51 1 -80.5 -29t-29.5 -71zM1069 1612q0 56 38.5 94.5t92.5 38.5t93.5 -39t39.5 -94q0 -54 -39 -92.5t-94 -38.5t-93 38.5t-38 92.5zM1100 1612q0 -46 36.5 -76.5t82.5 -22.5q-29 60 -29 105q0 37 22 94 q-32 -1 -55 -11.5t-33.5 -22t-16.5 -28.5t-6.5 -24t-0.5 -14z" />
<glyph unicode="&#xcc;" horiz-adv-x="1130" d="M117 1448q0 13 7.5 23t20.5 10q11 0 22 -7.5t11 -17.5q0 -37 4 -41q21 -16 127.5 -33.5t233.5 -17.5q123 0 251.5 9.5t194.5 27.5q88 22 101 22q24 0 24 -16q0 -7 -10.5 -14t-29.5 -13t-39 -11.5t-47 -11t-46 -9.5t-42.5 -8t-29.5 -5q-27 -84 -42 -270t-15 -297 q0 -206 13 -354t25 -201t34 -123q9 -27 19.5 -32t53.5 -5l158 -12q76 -6 76 -29q0 -7 -8.5 -11.5t-18.5 -4.5q-47 0 -170 5t-170 5q-395 0 -585 -35q-4 -1 -31 -10.5t-31 -9.5q-24 0 -24 18q0 20 21.5 35t37.5 19t31 6q21 4 209 16q20 290 15.5 717t-15.5 555 q-18 4 -106 13.5t-101 12.5q-24 5 -48 13.5t-52.5 33.5t-28.5 58zM242 1782q0 12 10 12h246q38 0 48.5 -2.5t22.5 -15.5q20 -20 90 -128.5t70 -129.5q0 -8 -8 -13t-14 -6.5t-9 -1.5q-11 0 -29.5 9.5t-68.5 41.5q-21 13 -33 21q-53 35 -162.5 105t-125.5 77q-37 19 -37 31z M322 1759l352 -219q6 0 6 8q0 4 -41.5 43t-87.5 81.5t-53 51.5q-13 16 -48 27.5t-63 11.5h-65v-4zM705 752q0 -77 1.5 -150t7.5 -220.5t24 -238t46 -90.5q30 0 42 4t12 17l-23 110q-13 77 -18.5 124.5t-11 171t-5.5 315.5q0 115 14 298t29 238q-82 0 -88 -16 q-2 -4 -8.5 -64.5t-14 -200.5t-7.5 -298z" />
<glyph unicode="&#xcd;" horiz-adv-x="1130" d="M117 1448q0 13 7.5 23t20.5 10q11 0 22 -7.5t11 -17.5q0 -37 4 -41q21 -16 127.5 -33.5t233.5 -17.5q123 0 251.5 9.5t194.5 27.5q88 22 101 22q24 0 24 -16q0 -7 -10.5 -14t-29.5 -13t-39 -11.5t-47 -11t-46 -9.5t-42.5 -8t-29.5 -5q-27 -84 -42 -270t-15 -297 q0 -206 13 -354t25 -201t34 -123q9 -27 19.5 -32t53.5 -5l158 -12q76 -6 76 -29q0 -7 -8.5 -11.5t-18.5 -4.5q-47 0 -170 5t-170 5q-395 0 -585 -35q-4 -1 -31 -10.5t-31 -9.5q-24 0 -24 18q0 20 21.5 35t37.5 19t31 6q21 4 209 16q20 290 15.5 717t-15.5 555 q-18 4 -106 13.5t-101 12.5q-24 5 -48 13.5t-52.5 33.5t-28.5 58zM504 1524q0 6 33 57t71.5 108t44.5 68q18 25 26 30.5t32 6.5h254h6q26 0 26 -10q0 -7 -61 -45q-97 -57 -279 -174q-69 -46 -86 -56t-30 -10t-25 8t-12 17zM551 1544q0 -10 8 -10q21 0 114 90.5t93 120.5 q0 13 -10 15.5t-41 2.5q-16 0 -24 -7.5t-36 -49.5zM705 752q0 -77 1.5 -150t7.5 -220.5t24 -238t46 -90.5q30 0 42 4t12 17l-23 110q-13 77 -18.5 124.5t-11 171t-5.5 315.5q0 115 14 298t29 238q-82 0 -88 -16q-2 -4 -8.5 -64.5t-14 -200.5t-7.5 -298z" />
<glyph unicode="&#xce;" horiz-adv-x="1130" d="M117 1448q0 13 7.5 23t20.5 10q11 0 22 -7.5t11 -17.5q0 -37 4 -41q21 -16 127.5 -33.5t233.5 -17.5q123 0 251.5 9.5t194.5 27.5q88 22 101 22q24 0 24 -16q0 -7 -10.5 -14t-29.5 -13t-39 -11.5t-47 -11t-46 -9.5t-42.5 -8t-29.5 -5q-27 -84 -42 -270t-15 -297 q0 -206 13 -354t25 -201t34 -123q9 -27 19.5 -32t53.5 -5l158 -12q76 -6 76 -29q0 -7 -8.5 -11.5t-18.5 -4.5q-47 0 -170 5t-170 5q-395 0 -585 -35q-4 -1 -31 -10.5t-31 -9.5q-24 0 -24 18q0 20 21.5 35t37.5 19t31 6q21 4 209 16q20 290 15.5 717t-15.5 555 q-18 4 -106 13.5t-101 12.5q-24 5 -48 13.5t-52.5 33.5t-28.5 58zM340 1479q0 12 14.5 27.5t77.5 72.5l168 162q18 14 45 14q18 0 36 -13t95 -79q188 -158 205 -168q4 -2 10 -8t6 -10q0 -6 -6 -11.5t-12 -5.5q-21 0 -115.5 71.5t-150.5 123.5q-6 -5 -63 -59.5t-102 -93.5 t-56 -40h-117q-35 0 -35 17zM385 1493h82q3 3 95 90.5t110 108.5l-41 34zM705 752q0 -77 1.5 -150t7.5 -220.5t24 -238t46 -90.5q30 0 42 4t12 17l-23 110q-13 77 -18.5 124.5t-11 171t-5.5 315.5q0 115 14 298t29 238q-82 0 -88 -16q-2 -4 -8.5 -64.5t-14 -200.5t-7.5 -298 z" />
<glyph unicode="&#xcf;" horiz-adv-x="1130" d="M117 1448q0 13 7.5 23t20.5 10q11 0 22 -7.5t11 -17.5q0 -37 4 -41q21 -16 127.5 -33.5t233.5 -17.5q123 0 251.5 9.5t194.5 27.5q88 22 101 22q24 0 24 -16q0 -7 -10.5 -14t-29.5 -13t-39 -11.5t-47 -11t-46 -9.5t-42.5 -8t-29.5 -5q-27 -84 -42 -270t-15 -297 q0 -206 13 -354t25 -201t34 -123q9 -27 19.5 -32t53.5 -5l158 -12q76 -6 76 -29q0 -7 -8.5 -11.5t-18.5 -4.5q-47 0 -170 5t-170 5q-395 0 -585 -35q-4 -1 -31 -10.5t-31 -9.5q-24 0 -24 18q0 20 21.5 35t37.5 19t31 6q21 4 209 16q20 290 15.5 717t-15.5 555 q-18 4 -106 13.5t-101 12.5q-24 5 -48 13.5t-52.5 33.5t-28.5 58zM217 1612q0 55 38.5 94t92.5 39t93.5 -39t39.5 -94q0 -54 -39 -92.5t-94 -38.5q-54 0 -92.5 38.5t-38.5 92.5zM248 1610q0 -36 30 -70t87 -29q-29 48 -29 101q0 46 22 98q-51 1 -80.5 -29t-29.5 -71z M705 752q0 -77 1.5 -150t7.5 -220.5t24 -238t46 -90.5q30 0 42 4t12 17l-23 110q-13 77 -18.5 124.5t-11 171t-5.5 315.5q0 115 14 298t29 238q-82 0 -88 -16q-2 -4 -8.5 -64.5t-14 -200.5t-7.5 -298zM815 1612q0 56 38.5 94.5t92.5 38.5t93.5 -39t39.5 -94q0 -54 -39 -92.5 t-94 -38.5t-93 38.5t-38 92.5zM846 1612q0 -46 36.5 -76.5t82.5 -22.5q-29 60 -29 105q0 37 22 94q-32 -1 -55 -11.5t-33.5 -22t-16.5 -28.5t-6.5 -24t-0.5 -14z" />
<glyph unicode="&#xd0;" horiz-adv-x="1898" d="M59 1352q0 14 4 30.5t22.5 35t49.5 18.5q28 0 50 -15.5t22 -29.5q0 -4 -3 -8.5t-7 -4.5l-29 6q-21 0 -31 -16t-10 -37q0 -35 52 -68.5t149 -33.5q71 0 155.5 20t229.5 72q159 57 251 79.5t193 22.5q149 0 276 -50.5t220 -144t145.5 -235.5t52.5 -317q0 -89 -16.5 -170 t-44.5 -141.5t-54 -101.5t-55 -73q-49 -57 -109 -98.5t-112.5 -63t-115.5 -33.5t-106 -15t-97 -3q-33 0 -193.5 10t-173.5 11q-148 8 -328 8q-158 0 -262 -35l-34 -14q-11 0 -11 8q0 20 52 38t96.5 25t68.5 9q37 4 45 24t13 107q12 216 14 485l-289 4q-65 7 -65 25t24 18 l176 -12h156q0 228 -16 408q-7 58 -15.5 80t-31.5 22q-308 0 -308 154zM643 668q0 -285 72 -508q10 -29 14 -39.5t13 -27t18.5 -22t25 -10t37.5 -4.5q12 0 27.5 4t15.5 13l-16 30q-119 200 -119 553q0 142 12 256t29.5 177t34.5 104.5t29 61.5t12 24t-4.5 8t-9.5 4 q-20 0 -52 -12t-45 -31q-31 -43 -62.5 -197.5t-31.5 -383.5zM762 655q0 -46 2 -91.5t10 -112t21.5 -123.5t38.5 -116.5t58.5 -101.5t84.5 -69t113 -27q13 0 31.5 2.5t58.5 17t76.5 38.5t79 74.5t73.5 118t51.5 175.5t20.5 240q0 129 -17 236t-44 178t-64 125.5t-73 84 t-76 48.5t-68.5 24.5t-53.5 5.5q-49 0 -93.5 -19.5t-87.5 -67.5t-73.5 -121.5t-49.5 -190t-19 -264.5q0 -15 17.5 -25.5t49.5 -9.5l107 4q112 0 194 4l74 6q19 0 19 -20q0 -21 -43 -21q-33 0 -191.5 -1.5t-226.5 -0.5zM1384 1339q0 -3 30 -26t64.5 -50t41.5 -34 q39 -37 69.5 -79.5t61.5 -111t48 -171t17 -230.5q0 -249 -166 -483q-1 -2 -25 -28.5t-24 -33.5q0 -6 6 -6q28 0 110 81t101 114q107 187 107 403q0 110 -22.5 205.5t-58 161.5t-80 120t-87.5 86.5t-82 54t-61.5 30t-28.5 8.5q-21 0 -21 -11z" />
<glyph unicode="&#xd1;" horiz-adv-x="1898" d="M41 1163q0 43 31 68.5t65 25.5q8 0 16.5 -4t8.5 -10q0 -3 -18.5 -15t-20.5 -14q-8 -10 -8 -28q0 -35 28 -55.5t56 -20.5q42 0 85.5 19t186.5 102q121 72 290.5 135.5t321.5 63.5q36 0 82 -4.5t118.5 -21t140.5 -43t139.5 -76.5t124 -115.5t86.5 -165t34 -220.5 q0 -174 -84.5 -335.5t-265.5 -323.5l-53 -45l-4 -12q0 -21 22 -21q169 0 238 -5.5t190 -27.5l37 -6q8 -4 8 -10q0 -14 -16 -14q-12 0 -127 13t-139 13l-275 -6q-7 0 -12 6t-6.5 12t-1.5 11q0 23 37 78q66 106 113 273t47 374q0 126 -13.5 221.5t-56.5 177.5 q-23 45 -54.5 84.5t-75.5 76t-103.5 58t-125.5 21.5t-129 -22t-90 -46q-56 -49 -74 -76t-24.5 -70.5t-5.5 -152.5l6 -717l-4 -131q0 -123 18 -131q8 -3 53 -11t50 -9l-6 -27h-224q-72 2 -192 -2t-160 -16l-139 -47q-14 0 -14 12q0 14 72 43.5t138 38.5q13 1 19 5t14.5 25.5 t16.5 65.5q41 206 41 565q0 44 -1.5 95.5t-7.5 139t-21.5 143.5t-39.5 56q-8 0 -33 -9.5t-54 -22t-32 -13.5q-71 -22 -119 -22q-18 0 -39 6t-43 31t-22 65zM641 1194l10 -526v-234l-8 -342q0 -35 6 -41l35 -4h43l4 19l-2 686q0 430 10 534q-6 0 -14.5 -1t-24 -6.5t-28 -14.5 t-22 -27.5t-9.5 -42.5zM682 1743q0 10 9.5 16t19.5 6q7 0 12.5 -5t6.5 -7.5t5 -11.5q9 -24 38.5 -56t68.5 -32q31 0 172 65q106 47 162 47q36 0 66 -10.5t48 -23.5t34.5 -34.5t23 -33.5t14.5 -29q9 -18 24 -68t15 -65q0 -16 -23 -16q-10 0 -16 6.5t-21 34.5q-40 67 -92 67 q-49 0 -153 -53q-108 -55 -176 -55q-50 0 -92.5 22t-68.5 53.5t-44 69t-25.5 66.5t-7.5 47zM756 1657q11 -29 30 -49t40 -28t34 -10.5t23 -2.5q23 0 48 7.5t39 14t58 27.5q103 57 172 57q83 0 137 -65l4 4q-14 25 -21.5 37t-29 37.5t-50 38t-64.5 12.5q-47 0 -150 -47 q-106 -47 -134.5 -57.5t-53.5 -10.5q-18 0 -42 9t-36 30z" />
<glyph unicode="&#xd2;" horiz-adv-x="1728" d="M94 694q0 141 41 261t114 207.5t173 149.5t219.5 93t251.5 31q140 0 257 -32t196 -83.5t140.5 -122t96.5 -141t57 -146.5t29.5 -133t7.5 -106q0 -117 -32.5 -219.5t-89.5 -179t-132.5 -137t-164 -98.5t-182.5 -57.5t-189 -19.5q-160 0 -302.5 49t-252 140t-174 231.5 t-64.5 312.5zM346 729q0 -19 1 -42.5t6 -78t14.5 -104.5t29.5 -113t47 -113t70 -95t96 -68l4 4q-87 103 -131.5 259.5t-44.5 315.5q0 110 10 195.5t32.5 153.5t41.5 108t53 102l-4 4q-39 -20 -77 -62t-72 -105.5t-55 -157.5t-21 -203zM475 692q0 -134 25.5 -248t68 -192.5 t98 -134t114.5 -81.5t118 -26q166 0 281.5 205.5t115.5 544.5q0 56 -9.5 121.5t-28.5 138t-52.5 139t-77 120.5t-106.5 86t-137 32q-21 0 -40.5 -2t-63.5 -16t-80.5 -38.5t-80.5 -77.5t-74 -124.5t-50.5 -187.5t-20.5 -259zM520 1782q0 12 10 12h246q38 0 49 -2.5t23 -15.5 q20 -20 90 -128.5t70 -129.5q0 -8 -8 -13t-14 -6.5t-9 -1.5q-11 0 -29.5 9.5t-68.5 41.5q-21 13 -33 21q-51 34 -161.5 104.5t-127.5 77.5q-37 19 -37 31zM600 1759l352 -219q6 0 6 8q0 4 -41.5 43t-87.5 81.5t-53 51.5q-13 16 -47.5 27.5t-62.5 11.5h-66v-4zM1303 1288 q40 -43 65.5 -72.5t65 -90.5t62.5 -120.5t40.5 -149t17.5 -189.5q0 -78 -15 -149.5t-35 -121.5t-56.5 -107t-62 -89t-70.5 -84l4 -4q99 37 175 130t114.5 208.5t38.5 232.5q0 98 -29.5 201.5t-77 187t-109.5 144t-124 77.5z" />
<glyph unicode="&#xd3;" horiz-adv-x="1728" d="M94 694q0 141 41 261t114 207.5t173 149.5t219.5 93t251.5 31q140 0 257 -32t196 -83.5t140.5 -122t96.5 -141t57 -146.5t29.5 -133t7.5 -106q0 -117 -32.5 -219.5t-89.5 -179t-132.5 -137t-164 -98.5t-182.5 -57.5t-189 -19.5q-160 0 -302.5 49t-252 140t-174 231.5 t-64.5 312.5zM346 729q0 -19 1 -42.5t6 -78t14.5 -104.5t29.5 -113t47 -113t70 -95t96 -68l4 4q-87 103 -131.5 259.5t-44.5 315.5q0 110 10 195.5t32.5 153.5t41.5 108t53 102l-4 4q-39 -20 -77 -62t-72 -105.5t-55 -157.5t-21 -203zM475 692q0 -134 25.5 -248t68 -192.5 t98 -134t114.5 -81.5t118 -26q166 0 281.5 205.5t115.5 544.5q0 56 -9.5 121.5t-28.5 138t-52.5 139t-77 120.5t-106.5 86t-137 32q-21 0 -40.5 -2t-63.5 -16t-80.5 -38.5t-80.5 -77.5t-74 -124.5t-50.5 -187.5t-20.5 -259zM803 1524q0 6 33 57t71.5 108t44.5 68 q18 25 26 30.5t32 6.5h254h6q26 0 26 -10q0 -7 -61 -45q-97 -57 -279 -174q-69 -46 -86 -56t-30 -10t-25 8t-12 17zM850 1544q0 -10 8 -10q21 0 114 90.5t93 120.5q0 13 -10 15.5t-41 2.5q-16 0 -24 -7.5t-36 -49.5zM1303 1288q40 -43 65.5 -72.5t65 -90.5t62.5 -120.5 t40.5 -149t17.5 -189.5q0 -78 -15 -149.5t-35 -121.5t-56.5 -107t-62 -89t-70.5 -84l4 -4q99 37 175 130t114.5 208.5t38.5 232.5q0 98 -29.5 201.5t-77 187t-109.5 144t-124 77.5z" />
<glyph unicode="&#xd4;" horiz-adv-x="1728" d="M94 694q0 141 41 261t114 207.5t173 149.5t219.5 93t251.5 31q140 0 257 -32t196 -83.5t140.5 -122t96.5 -141t57 -146.5t29.5 -133t7.5 -106q0 -117 -32.5 -219.5t-89.5 -179t-132.5 -137t-164 -98.5t-182.5 -57.5t-189 -19.5q-160 0 -302.5 49t-252 140t-174 231.5 t-64.5 312.5zM346 729q0 -19 1 -42.5t6 -78t14.5 -104.5t29.5 -113t47 -113t70 -95t96 -68l4 4q-87 103 -131.5 259.5t-44.5 315.5q0 110 10 195.5t32.5 153.5t41.5 108t53 102l-4 4q-39 -20 -77 -62t-72 -105.5t-55 -157.5t-21 -203zM475 692q0 -134 25.5 -248t68 -192.5 t98 -134t114.5 -81.5t118 -26q166 0 281.5 205.5t115.5 544.5q0 56 -9.5 121.5t-28.5 138t-52.5 139t-77 120.5t-106.5 86t-137 32q-21 0 -40.5 -2t-63.5 -16t-80.5 -38.5t-80.5 -77.5t-74 -124.5t-50.5 -187.5t-20.5 -259zM578 1499q0 12 14.5 27.5t77.5 72.5l168 162 q19 15 45 15q18 0 34.5 -12.5t96.5 -80.5q184 -154 205 -167q4 -2 10 -8.5t6 -10.5q0 -6 -6 -11t-12 -5q-21 0 -116.5 71.5t-150.5 122.5q-5 -4 -62.5 -59t-102.5 -93.5t-56 -39.5h-117q-34 0 -34 16zM623 1513h82q2 2 93.5 90t110.5 109l-41 35zM1303 1288 q40 -43 65.5 -72.5t65 -90.5t62.5 -120.5t40.5 -149t17.5 -189.5q0 -78 -15 -149.5t-35 -121.5t-56.5 -107t-62 -89t-70.5 -84l4 -4q99 37 175 130t114.5 208.5t38.5 232.5q0 98 -29.5 201.5t-77 187t-109.5 144t-124 77.5z" />
<glyph unicode="&#xd5;" horiz-adv-x="1728" d="M94 694q0 141 41 261t114 207.5t173 149.5t219.5 93t251.5 31q140 0 257 -32t196 -83.5t140.5 -122t96.5 -141t57 -146.5t29.5 -133t7.5 -106q0 -117 -32.5 -219.5t-89.5 -179t-132.5 -137t-164 -98.5t-182.5 -57.5t-189 -19.5q-160 0 -302.5 49t-252 140t-174 231.5 t-64.5 312.5zM346 729q0 -19 1 -42.5t6 -78t14.5 -104.5t29.5 -113t47 -113t70 -95t96 -68l4 4q-87 103 -131.5 259.5t-44.5 315.5q0 110 10 195.5t32.5 153.5t41.5 108t53 102l-4 4q-39 -20 -77 -62t-72 -105.5t-55 -157.5t-21 -203zM475 692q0 -134 25.5 -248t68 -192.5 t98 -134t114.5 -81.5t118 -26q166 0 281.5 205.5t115.5 544.5q0 56 -9.5 121.5t-28.5 138t-52.5 139t-77 120.5t-106.5 86t-137 32q-21 0 -40.5 -2t-63.5 -16t-80.5 -38.5t-80.5 -77.5t-74 -124.5t-50.5 -187.5t-20.5 -259zM547 1743q0 10 9 16t19 6q15 0 25 -24 q9 -24 38.5 -56t68.5 -32q31 0 172 65q106 47 161 47q127 0 187 -131q9 -18 24 -68t15 -65q0 -16 -23 -16q-10 0 -16 6.5t-21 34.5q-40 67 -92 67q-49 0 -153 -53q-108 -55 -177 -55q-50 0 -92.5 22t-68 53.5t-44 69t-25.5 66.5t-7 47zM621 1657q11 -29 30 -49t40 -28 t34 -10.5t23 -2.5q23 0 48 7.5t39 14t58 27.5q103 57 172 57q83 0 137 -65l4 4q-10 19 -15.5 28t-22 31t-32 33.5t-41.5 22t-55 10.5q-46 0 -149 -47q-105 -47 -134 -57.5t-55 -10.5q-18 0 -41.5 9t-35.5 30zM1303 1288q40 -43 65.5 -72.5t65 -90.5t62.5 -120.5t40.5 -149 t17.5 -189.5q0 -78 -15 -149.5t-35 -121.5t-56.5 -107t-62 -89t-70.5 -84l4 -4q99 37 175 130t114.5 208.5t38.5 232.5q0 98 -29.5 201.5t-77 187t-109.5 144t-124 77.5z" />
<glyph unicode="&#xd6;" horiz-adv-x="1728" d="M94 694q0 141 41 261t114 207.5t173 149.5t219.5 93t251.5 31q140 0 257 -32t196 -83.5t140.5 -122t96.5 -141t57 -146.5t29.5 -133t7.5 -106q0 -117 -32.5 -219.5t-89.5 -179t-132.5 -137t-164 -98.5t-182.5 -57.5t-189 -19.5q-160 0 -302.5 49t-252 140t-174 231.5 t-64.5 312.5zM346 729q0 -19 1 -42.5t6 -78t14.5 -104.5t29.5 -113t47 -113t70 -95t96 -68l4 4q-87 103 -131.5 259.5t-44.5 315.5q0 110 10 195.5t32.5 153.5t41.5 108t53 102l-4 4q-39 -20 -77 -62t-72 -105.5t-55 -157.5t-21 -203zM475 692q0 -134 25.5 -248t68 -192.5 t98 -134t114.5 -81.5t118 -26q166 0 281.5 205.5t115.5 544.5q0 56 -9.5 121.5t-28.5 138t-52.5 139t-77 120.5t-106.5 86t-137 32q-21 0 -40.5 -2t-63.5 -16t-80.5 -38.5t-80.5 -77.5t-74 -124.5t-50.5 -187.5t-20.5 -259zM475 1612q0 55 38.5 94t92.5 39t93.5 -39 t39.5 -94q0 -54 -39 -92.5t-94 -38.5q-54 0 -92.5 38.5t-38.5 92.5zM506 1610q0 -36 30 -70t87 -29q-29 48 -29 101q0 46 22 98q-51 1 -80.5 -29t-29.5 -71zM1073 1612q0 56 38.5 94.5t92.5 38.5t93.5 -39t39.5 -94q0 -54 -39 -92.5t-94 -38.5t-93 38.5t-38 92.5zM1104 1612 q0 -46 36.5 -76.5t82.5 -22.5q-29 60 -29 105q0 35 23 94q-32 -1 -55 -11.5t-34 -22.5t-17 -28t-6.5 -23.5t-0.5 -14.5zM1303 1288q40 -43 65.5 -72.5t65 -90.5t62.5 -120.5t40.5 -149t17.5 -189.5q0 -78 -15 -149.5t-35 -121.5t-56.5 -107t-62 -89t-70.5 -84l4 -4 q99 37 175 130t114.5 208.5t38.5 232.5q0 98 -29.5 201.5t-77 187t-109.5 144t-124 77.5z" />
<glyph unicode="&#xd7;" horiz-adv-x="1366" d="M182 954l92 93l408 -410l410 410l92 -95l-408 -407l404 -406l-93 -92l-405 406l-406 -406l-92 92l406 406z" />
<glyph unicode="&#xd8;" horiz-adv-x="1728" d="M94 -20q0 8 25 28l182 172q-207 207 -207 508q0 150 44 275t119.5 211t178 146t217.5 88t240 28q347 0 551 -193l190 178q15 15 25 15q6 0 11 -4.5t5 -10.5q0 -11 -14 -22l-195 -180q85 -88 148 -232.5t63 -314.5q0 -140 -46.5 -259t-124 -200.5t-180 -139.5t-214 -85 t-225.5 -27q-139 0 -298 49.5t-263 145.5l-170 -160q-1 0 -23 -17.5t-24 -17.5q-5 0 -10 6t-5 13zM348 729q0 -25 1.5 -54.5t8 -97.5t24 -130.5t44.5 -130t74.5 -121t109.5 -80.5l4 4q-87 103 -131.5 259.5t-44.5 315.5q0 110 10 195.5t32.5 153.5t41.5 108t53 102l-4 4 q-39 -20 -76.5 -62t-71.5 -105.5t-54.5 -157.5t-20.5 -203zM475 692q0 -78 7.5 -143.5t13.5 -91.5t20 -76l729 680q-16 40 -27 65.5t-31.5 65t-38.5 64.5t-46.5 54.5t-59 46.5t-71 28.5t-86.5 11.5q-15 0 -28.5 -1t-44 -8t-57.5 -18.5t-62.5 -37t-64.5 -59.5t-58.5 -88.5 t-49.5 -122t-32.5 -163t-12.5 -207.5zM530 346q45 -141 146.5 -238.5t222.5 -97.5q80 0 151.5 51.5t126 145.5t87 238t32.5 317q0 122 -39 264zM1303 1288q40 -43 65.5 -72.5t65 -90.5t62.5 -120.5t40.5 -149t17.5 -189.5q0 -78 -15 -149.5t-35 -121.5t-56.5 -107t-62 -89 t-70.5 -84l4 -4q99 37 175 130t114.5 208.5t38.5 232.5q0 98 -29.5 201.5t-77 187t-109.5 144t-124 77.5z" />
<glyph unicode="&#xd9;" horiz-adv-x="1536" d="M147 530q0 73 11 142t28 125.5t45.5 112t56.5 98t68.5 87.5t73 76.5t79 69t78 60t77.5 55.5v4q-266 10 -385 55q-16 6 -28 15.5t-17 16t-5 9.5q0 12 17 12l30 -8q100 -37 210.5 -49t256.5 -12l433 -6q143 0 327 32l74 13q10 0 13 -9t-1 -18q-17 -9 -122 -29t-115 -28 q-18 -15 -23.5 -135.5t-13.5 -640.5l-15 -472q0 -62 9.5 -151.5t25.5 -134.5q16 -48 58.5 -86.5t87.5 -38.5q24 0 45.5 11t21.5 34q0 16 -5.5 24t-20.5 21l37 10q36 -24 36 -67q0 -37 -28.5 -65t-75.5 -28q-85 0 -142.5 61t-64.5 128l-24 239q-77 -30 -122.5 -45t-118 -29 t-145.5 -14q-102 0 -201.5 18.5t-195.5 61.5t-168.5 105.5t-117 158t-44.5 211.5zM373 664q0 -62 11.5 -129.5t38 -147t82 -147.5t132.5 -105l4 4q-24 26 -41.5 48t-45 70t-45 100t-31 134t-13.5 175q0 275 88 448l-4 4q-47 -39 -82 -94.5t-52 -105.5t-27.5 -107t-12.5 -88 t-2 -59zM502 682q0 -121 25.5 -228.5t68 -185.5t97.5 -135t115 -85t120 -28q93 0 171 58t120 151q16 35 25.5 71t18.5 126.5t9 222.5v238q0 428 -4 463q-14 2 -35.5 2t-49 -1t-38.5 -1q-89 0 -404 14q-115 -119 -177 -294.5t-62 -387.5zM567 1741q0 12 11 12h245 q39 0 49.5 -2.5t22.5 -15.5q20 -20 90 -128.5t70 -129.5q0 -8 -8 -13t-14 -6.5t-9 -1.5q-11 0 -29.5 9.5t-68.5 41.5q-21 13 -33 21q-51 34 -161.5 104.5t-127.5 77.5q-37 18 -37 31zM647 1718l352 -219q7 0 7 8q0 4 -41.5 43t-88 81.5t-53.5 51.5q-13 16 -47.5 27.5 t-62.5 11.5h-66v-4z" />
<glyph unicode="&#xda;" horiz-adv-x="1536" d="M147 530q0 73 11 142t28 125.5t45.5 112t56.5 98t68.5 87.5t73 76.5t79 69t78 60t77.5 55.5v4q-266 10 -385 55q-16 6 -28 15.5t-17 16t-5 9.5q0 12 17 12l30 -8q100 -37 210.5 -49t256.5 -12l433 -6q143 0 327 32l74 13q10 0 13 -9t-1 -18q-17 -9 -122 -29t-115 -28 q-18 -15 -23.5 -135.5t-13.5 -640.5l-15 -472q0 -62 9.5 -151.5t25.5 -134.5q16 -48 58.5 -86.5t87.5 -38.5q24 0 45.5 11t21.5 34q0 16 -5.5 24t-20.5 21l37 10q36 -24 36 -67q0 -37 -28.5 -65t-75.5 -28q-85 0 -142.5 61t-64.5 128l-24 239q-77 -30 -122.5 -45t-118 -29 t-145.5 -14q-102 0 -201.5 18.5t-195.5 61.5t-168.5 105.5t-117 158t-44.5 211.5zM373 664q0 -62 11.5 -129.5t38 -147t82 -147.5t132.5 -105l4 4q-24 26 -41.5 48t-45 70t-45 100t-31 134t-13.5 175q0 275 88 448l-4 4q-47 -39 -82 -94.5t-52 -105.5t-27.5 -107t-12.5 -88 t-2 -59zM502 682q0 -121 25.5 -228.5t68 -185.5t97.5 -135t115 -85t120 -28q93 0 171 58t120 151q16 35 25.5 71t18.5 126.5t9 222.5v238q0 428 -4 463q-14 2 -35.5 2t-49 -1t-38.5 -1q-89 0 -404 14q-115 -119 -177 -294.5t-62 -387.5zM850 1483q0 6 33 57t71.5 108 t44.5 68q18 25 26 30.5t32 6.5h254h6q26 0 26 -10q0 -7 -61 -45q-87 -51 -278 -174q-68 -45 -86 -55.5t-31 -10.5t-25 8t-12 17zM897 1503q0 -10 8 -10q21 0 114 90.5t93 120.5q0 13 -10 15.5t-41 2.5q-16 0 -24 -7.5t-36 -49.5z" />
<glyph unicode="&#xdb;" horiz-adv-x="1536" d="M147 530q0 73 11 142t28 125.5t45.5 112t56.5 98t68.5 87.5t73 76.5t79 69t78 60t77.5 55.5v4q-266 10 -385 55q-16 6 -28 15.5t-17 16t-5 9.5q0 12 17 12l30 -8q100 -37 210.5 -49t256.5 -12l433 -6q143 0 327 32l74 13q10 0 13 -9t-1 -18q-17 -9 -122 -29t-115 -28 q-18 -15 -23.5 -135.5t-13.5 -640.5l-15 -472q0 -62 9.5 -151.5t25.5 -134.5q16 -48 58.5 -86.5t87.5 -38.5q24 0 45.5 11t21.5 34q0 16 -5.5 24t-20.5 21l37 10q36 -24 36 -67q0 -37 -28.5 -65t-75.5 -28q-85 0 -142.5 61t-64.5 128l-24 239q-77 -30 -122.5 -45t-118 -29 t-145.5 -14q-102 0 -201.5 18.5t-195.5 61.5t-168.5 105.5t-117 158t-44.5 211.5zM373 664q0 -62 11.5 -129.5t38 -147t82 -147.5t132.5 -105l4 4q-24 26 -41.5 48t-45 70t-45 100t-31 134t-13.5 175q0 275 88 448l-4 4q-47 -39 -82 -94.5t-52 -105.5t-27.5 -107t-12.5 -88 t-2 -59zM502 682q0 -121 25.5 -228.5t68 -185.5t97.5 -135t115 -85t120 -28q93 0 171 58t120 151q16 35 25.5 71t18.5 126.5t9 222.5v238q0 428 -4 463q-14 2 -35.5 2t-49 -1t-38.5 -1q-89 0 -404 14q-115 -119 -177 -294.5t-62 -387.5zM625 1499q0 12 14.5 27.5t77.5 72.5 l168 162q19 15 45 15q18 0 34.5 -12.5t96.5 -80.5q184 -154 205 -167q4 -2 10 -8.5t6 -10.5q0 -6 -6 -11t-12 -5q-21 0 -116.5 71.5t-150.5 122.5q-5 -4 -62.5 -59t-102.5 -93.5t-56 -39.5h-117q-34 0 -34 16zM670 1513h82q2 2 93.5 90t110.5 109l-41 35z" />
<glyph unicode="&#xdc;" horiz-adv-x="1536" d="M147 530q0 73 11 142t28 125.5t45.5 112t56.5 98t68.5 87.5t73 76.5t79 69t78 60t77.5 55.5v4q-266 10 -385 55q-16 6 -28 15.5t-17 16t-5 9.5q0 12 17 12l30 -8q100 -37 210.5 -49t256.5 -12l433 -6q143 0 327 32l74 13q10 0 13 -9t-1 -18q-17 -9 -122 -29t-115 -28 q-18 -15 -23.5 -135.5t-13.5 -640.5l-15 -472q0 -62 9.5 -151.5t25.5 -134.5q16 -48 58.5 -86.5t87.5 -38.5q24 0 45.5 11t21.5 34q0 16 -5.5 24t-20.5 21l37 10q36 -24 36 -67q0 -37 -28.5 -65t-75.5 -28q-85 0 -142.5 61t-64.5 128l-24 239q-77 -30 -122.5 -45t-118 -29 t-145.5 -14q-102 0 -201.5 18.5t-195.5 61.5t-168.5 105.5t-117 158t-44.5 211.5zM373 664q0 -62 11.5 -129.5t38 -147t82 -147.5t132.5 -105l4 4q-24 26 -41.5 48t-45 70t-45 100t-31 134t-13.5 175q0 275 88 448l-4 4q-47 -39 -82 -94.5t-52 -105.5t-27.5 -107t-12.5 -88 t-2 -59zM502 682q0 -121 25.5 -228.5t68 -185.5t97.5 -135t115 -85t120 -28q93 0 171 58t120 151q16 35 25.5 71t18.5 126.5t9 222.5v238q0 428 -4 463q-14 2 -35.5 2t-49 -1t-38.5 -1q-89 0 -404 14q-115 -119 -177 -294.5t-62 -387.5zM502 1612q0 55 38.5 94t92.5 39 t93.5 -39t39.5 -94q0 -54 -39 -92.5t-94 -38.5q-54 0 -92.5 38.5t-38.5 92.5zM532 1610q0 -36 30 -70t87 -29q-28 47 -28 101q0 46 22 98q-51 1 -81 -29t-30 -71zM1100 1612q0 56 38 94.5t93 38.5q54 0 93.5 -39t39.5 -94q0 -54 -39 -92.5t-94 -38.5t-93 38.5t-38 92.5z M1130 1612q0 -46 36.5 -76.5t82.5 -22.5q-28 58 -28 105q0 37 22 94q-32 -1 -55 -11.5t-34 -22.5t-17 -28t-6.5 -23.5t-0.5 -14.5z" />
<glyph unicode="&#xdd;" horiz-adv-x="1665" d="M119 1425q-3 11 6 27q136 -15 219 -18.5t344 -6.5q517 -7 928 3q47 0 67 12q16 8 21 8q7 0 11.5 -5.5t4.5 -12.5q0 -22 -49 -35q-61 -11 -90 -22t-29 -32q0 -12 12.5 -32t25 -54.5t12.5 -80.5q0 -35 -9.5 -83.5t-31.5 -114t-68 -143.5t-109 -149q-121 -135 -292.5 -272.5 t-327.5 -231.5q-57 -35 -86 -53.5t-68 -46.5t-57.5 -48t-38 -47t-26.5 -55t-7 -61q0 -50 22 -88.5t55.5 -59.5t68 -31.5t65.5 -10.5q118 0 205.5 65.5t87.5 144.5q0 19 -13.5 33.5t-25 19.5t-14.5 5l-33 -2q-6 0 -6 10q0 21 38 51.5t85 30.5q21 0 47.5 -8t53 -34t26.5 -65 q0 -17 -6 -32l102 37q46 16 90 16q33 0 67 -9.5t66 -29.5t52 -56.5t20 -84.5q0 -35 -11.5 -63.5t-27.5 -43.5t-30 -23t-21 -8q-3 0 -6 1.5t-5.5 6t1.5 13.5q14 21 14 33q0 44 -48.5 78t-119.5 34q-50 0 -102 -13.5t-83 -26.5t-91 -42q-173 -88 -308 -88q-116 0 -196 64 t-80 176q0 35 8 67t19 56t33 50t37.5 41.5t47 38t47 32.5t50.5 32q57 34 57 66q0 9 -6 31t-19 59.5t-27.5 76.5t-37.5 98t-42.5 107.5t-49 122t-49.5 123.5t-52.5 129.5t-50.5 124.5q-88 215 -96 228q-10 18 -23.5 24.5t-52.5 16.5q-55 14 -94 30zM543 1370q0 -19 19 -79 t64.5 -181.5t75 -198.5t95.5 -247q80 -198 114 -250q21 -33 35 -33q9 0 27 15.5t18 27.5l-20 45q-185 390 -324 866q-14 58 -53 58q-51 0 -51 -23zM678 1366q0 -10 57 -192q83 -273 244 -621q23 -52 31.5 -67t17.5 -15q4 0 23.5 19t50.5 57t59 80q26 41 43.5 74t37 86 t29 123.5t9.5 156.5q0 138 -56 226.5t-143 90.5q-61 0 -383 5q-7 0 -13.5 -6.5t-6.5 -16.5zM811 1524q0 6 33 57t72 108t45 68q14 19 18.5 24t13 8.5t25.5 4.5h254h5.5h5.5h5h4.5t4 -0.5t3.5 -1.5t2.5 -2t2 -2.5t0.5 -3.5q0 -3 -4.5 -7.5t-13 -10t-15.5 -10t-16.5 -10 t-12.5 -7.5q-87 -51 -278 -174q-68 -45 -86 -55.5t-31 -10.5t-25 8t-12 17zM858 1544q0 -10 8 -10q21 0 114 90.5t93 120.5q0 13 -10 15.5t-41 2.5q-16 0 -23 -7t-36 -50z" />
<glyph unicode="&#xde;" horiz-adv-x="1792" d="M-6 1446q0 11 9 21t22 10q6 0 10 -4t4 -7l-10 -28q0 -28 47 -49t131 -21q104 0 280 62q18 8 72.5 28.5t61.5 20.5q22 0 22 -64l-12 -241q240 133 375 133q64 0 133.5 -15.5t140 -46t133.5 -80.5t112 -113t78 -150t29 -185q0 -123 -50.5 -225t-137 -170t-202.5 -105 t-247 -37q-90 0 -190.5 18.5t-173.5 49.5v-277q5 -108 -4 -188t-22.5 -112.5t-26.5 -32.5q-7 0 -11 4t-4 8l23 88q14 69 14 117q0 155 -92 155q-53 0 -141 -48t-117 -77q-3 -3 -12.5 -17.5t-19 -27t-13.5 -12.5q-12 0 -12 14q0 3 17 60.5t36 123.5t22 85q29 156 29 467 q0 335 -14 684q-1 22 -3 32.5t-8.5 19.5t-19.5 9q-48 0 -72.5 1t-58.5 9t-64 25q-27 15 -45 40t-18 48zM504 57q0 -12 6.5 -15.5t34.5 -8.5l43 -6q8 54 8 145l-6 377q0 366 20 747l8 68q0 18 -0.5 26.5t-1.5 19.5t-4.5 15.5t-9.5 4.5q-14 0 -34.5 -9t-24.5 -22 q-26 -75 -33 -830l2 -331zM621 737q0 -340 22 -405q13 -43 86.5 -61.5t140.5 -18.5q77 0 138.5 25.5t101 63t68.5 92.5t43 103t22.5 105.5t10 89t1.5 64.5q0 112 -33 200.5t-85.5 139t-111.5 76.5t-118 26q-44 0 -86 -15.5t-72 -40t-49 -44.5t-32 -39q-22 -34 -33 -103.5 t-12.5 -120t-1.5 -137.5zM1270 272l4 -4q152 42 237.5 166.5t85.5 286.5q0 61 -14 123t-46.5 130.5t-95.5 129.5t-151 100l-4 -4q215 -215 215 -471q0 -118 -55 -238.5t-176 -218.5z" />
<glyph unicode="&#xdf;" d="M94 963q0 3 16.5 22t16.5 33v287q0 41 14 56.5t68 41.5q39 17 88 46t81 46.5t46 17.5q54 0 148 -30t94 -47q0 -18 -19 -58l-39 -80q-8 -16 -18 -16q-12 0 -115 58.5t-127 58.5t-32.5 -20t-8.5 -76v-306q44 28 84 68.5t63 65t38 24.5q26 0 92 -41.5t94 -69.5 q31 -31 33 -59q0 -19 -5.5 -119t-5.5 -114q0 -40 -34.5 -72t-163.5 -109l24 -14q93 -54 132 -80t51 -41t12 -35v-405q0 -29 -8.5 -48.5t-34.5 -51.5l-41 -52l-84 -96q-66 -77 -82 -93.5t-25 -16.5q-14 0 -14 14q0 4 29 39q47 65 63.5 126.5t16.5 178.5v336q0 188 -101 188 q-39 0 -133 -65v-486q0 -20 -7 -27t-30 -10q-57 -8 -125 -49h-18v1035q0 4 -16.5 22.5t-16.5 22.5zM307 547q1 -4 12 -9.5t17 -5.5q14 0 53 25q86 53 113.5 111t27.5 149q0 180 -120 180q-19 0 -35 -10q-21 -10 -68 -47v-393z" />
<glyph unicode="&#xe0;" d="M74 133q20 68 20 160q0 96 -4 129q5 8 47 29q16 7 94 47q-139 56 -139 227q0 72 30 179.5t69.5 187t66.5 79.5q44 0 254 -77q168 -60 168 -74q0 -9 -8 -31.5t-8 -36.5v-792q0 -12 6.5 -22.5t13.5 -10.5q16 0 40.5 13.5t27.5 13.5q6 0 6 -11q0 -31 -109 -90 q-24 -13 -65 -37.5t-65 -37.5t-32 -13q-18 0 -18 27v96q-19 1 -96 -59t-88 -60t-111 77t-100 87zM127 731q0 -115 57.5 -166t186.5 -51q69 0 90.5 8t21.5 33v254q0 89 -66.5 138.5t-185.5 49.5q-26 0 -47.5 -33.5t-33 -80.5t-17.5 -87.5t-6 -64.5zM141 1548h224l104 -346 h-33zM274 260q0 -50 48.5 -91.5t93.5 -41.5q32 0 49.5 18.5t17.5 51.5v252q0 15 -7.5 25.5t-18.5 10.5h-113q-70 0 -70 -45v-180z" />
<glyph unicode="&#xe1;" d="M74 133q20 68 20 160q0 96 -4 129q5 8 47 29q16 7 94 47q-139 56 -139 227q0 72 30 179.5t69.5 187t66.5 79.5q44 0 254 -77q168 -60 168 -74q0 -9 -8 -31.5t-8 -36.5v-792q0 -12 6.5 -22.5t13.5 -10.5q16 0 40.5 13.5t27.5 13.5q6 0 6 -11q0 -31 -109 -90 q-24 -13 -65 -37.5t-65 -37.5t-32 -13q-18 0 -18 27v96q-19 1 -96 -59t-88 -60t-111 77t-100 87zM127 731q0 -115 57.5 -166t186.5 -51q69 0 90.5 8t21.5 33v254q0 89 -66.5 138.5t-185.5 49.5q-26 0 -47.5 -33.5t-33 -80.5t-17.5 -87.5t-6 -64.5zM274 260q0 -50 48.5 -91.5 t93.5 -41.5q32 0 49.5 18.5t17.5 51.5v252q0 15 -7.5 25.5t-18.5 10.5h-113q-70 0 -70 -45v-180zM299 1202l107 346h223l-295 -346h-35z" />
<glyph unicode="&#xe2;" d="M74 133q20 68 20 160q0 96 -4 129q5 8 47 29q16 7 94 47q-139 56 -139 227q0 72 30 179.5t69.5 187t66.5 79.5q44 0 254 -77q168 -60 168 -74q0 -9 -8 -31.5t-8 -36.5v-792q0 -12 6.5 -22.5t13.5 -10.5q16 0 40.5 13.5t27.5 13.5q6 0 6 -11q0 -31 -109 -90 q-24 -13 -65 -37.5t-65 -37.5t-32 -13q-18 0 -18 27v96q-19 1 -96 -59t-88 -60t-111 77t-100 87zM127 731q0 -115 57.5 -166t186.5 -51q69 0 90.5 8t21.5 33v254q0 89 -66.5 138.5t-185.5 49.5q-26 0 -47.5 -33.5t-33 -80.5t-17.5 -87.5t-6 -64.5zM143 1194l189 330h184 l191 -330h-31l-273 213l-229 -213h-31zM274 260q0 -50 48.5 -91.5t93.5 -41.5q32 0 49.5 18.5t17.5 51.5v252q0 15 -7.5 25.5t-18.5 10.5h-113q-70 0 -70 -45v-180z" />
<glyph unicode="&#xe3;" d="M74 133q20 68 20 160q0 96 -4 129q5 8 47 29q16 7 94 47q-139 56 -139 227q0 72 30 179.5t69.5 187t66.5 79.5q44 0 254 -77q168 -60 168 -74q0 -9 -8 -31.5t-8 -36.5v-792q0 -12 6.5 -22.5t13.5 -10.5q16 0 40.5 13.5t27.5 13.5q6 0 6 -11q0 -31 -109 -90 q-24 -13 -65 -37.5t-65 -37.5t-32 -13q-18 0 -18 27v96q-19 1 -96 -59t-88 -60t-111 77t-100 87zM96 1249q3 126 52.5 193t138.5 67q42 0 84 -17.5t110 -64.5q88 -57 127 -57q40 0 62 31.5t35 107.5h30q1 -71 -16 -124t-47.5 -82t-64 -42.5t-70.5 -13.5q-71 0 -189 80 q-60 40 -82 51t-49 11q-22 0 -37 -9.5t-25 -32t-15 -41.5t-13 -57h-31zM127 731q0 -115 57.5 -166t186.5 -51q69 0 90.5 8t21.5 33v254q0 89 -66.5 138.5t-185.5 49.5q-26 0 -47.5 -33.5t-33 -80.5t-17.5 -87.5t-6 -64.5zM274 260q0 -50 48.5 -91.5t93.5 -41.5 q32 0 49.5 18.5t17.5 51.5v252q0 15 -7.5 25.5t-18.5 10.5h-113q-70 0 -70 -45v-180z" />
<glyph unicode="&#xe4;" d="M74 133q20 68 20 160q0 96 -4 129q5 8 47 29q16 7 94 47q-139 56 -139 227q0 72 30 179.5t69.5 187t66.5 79.5q44 0 254 -77q168 -60 168 -74q0 -9 -8 -31.5t-8 -36.5v-792q0 -12 6.5 -22.5t13.5 -10.5q16 0 40.5 13.5t27.5 13.5q6 0 6 -11q0 -31 -109 -90 q-24 -13 -65 -37.5t-65 -37.5t-32 -13q-18 0 -18 27v96q-19 1 -96 -59t-88 -60t-111 77t-100 87zM127 731q0 -115 57.5 -166t186.5 -51q69 0 90.5 8t21.5 33v254q0 89 -66.5 138.5t-185.5 49.5q-26 0 -47.5 -33.5t-33 -80.5t-17.5 -87.5t-6 -64.5zM147 1362q0 1 62 68 q32 32 39 32q10 0 20 -10l68 -61q24 -19 24 -27q0 -4 -6 -10l-75 -86q-12 -17 -19 -17q-11 0 -49 37.5t-55 61.5q-1 3 -5 6.5t-4 5.5zM274 260q0 -50 48.5 -91.5t93.5 -41.5q32 0 49.5 18.5t17.5 51.5v252q0 15 -7.5 25.5t-18.5 10.5h-113q-70 0 -70 -45v-180zM451 1362 q0 5 59 68q32 32 39 32q10 0 20 -10l68 -61q25 -19 25 -27q0 -3 -7 -10l-75 -86q-12 -17 -17 -17q-12 0 -50.5 37t-55.5 62q-1 3 -3.5 6.5t-2.5 5.5z" />
<glyph unicode="&#xe5;" d="M74 133q20 68 20 160q0 96 -4 129q5 8 47 29q16 7 94 47q-139 56 -139 227q0 72 30 179.5t69.5 187t66.5 79.5q44 0 254 -77q168 -60 168 -74q0 -9 -8 -31.5t-8 -36.5v-792q0 -12 6.5 -22.5t13.5 -10.5q16 0 40.5 13.5t27.5 13.5q6 0 6 -11q0 -31 -109 -90 q-24 -13 -65 -37.5t-65 -37.5t-32 -13q-18 0 -18 27v96q-19 1 -96 -59t-88 -60t-111 77t-100 87zM127 731q0 -115 57.5 -166t186.5 -51q69 0 90.5 8t21.5 33v254q0 89 -66.5 138.5t-185.5 49.5q-26 0 -47.5 -33.5t-33 -80.5t-17.5 -87.5t-6 -64.5zM193 1376q0 80 56.5 136.5 t135.5 56.5q78 0 134 -57t56 -136q0 -78 -56 -134t-134 -56q-79 0 -135.5 56t-56.5 134zM262 1376q0 -50 36 -85.5t87 -35.5t86 35.5t35 85.5q0 51 -35 87t-86 36t-87 -36t-36 -87zM274 260q0 -50 48.5 -91.5t93.5 -41.5q32 0 49.5 18.5t17.5 51.5v252q0 15 -7.5 25.5 t-18.5 10.5h-113q-70 0 -70 -45v-180z" />
<glyph unicode="&#xe6;" horiz-adv-x="1052" d="M61 135q0 10 15 19q18 10 21 18q2 3 3 8q2 8 2 113q0 28 -2 73.5t-2 53.5q0 11 47 31q49 24 99 51q-150 57 -150 231q0 60 16.5 123.5t30 92.5t37.5 77q49 97 61.5 118t24.5 21q45 0 119.5 -25.5t138 -51t80.5 -25.5q20 0 106.5 51t92.5 51q17 0 90 -75.5t92 -75.5 q14 0 35 35q10 14 18 14q7 0 12 -4.5t5 -9.5q0 -3 -13 -23l-321 -489q-27 -40 -35 -61.5t-8 -63.5q0 -156 45 -201q37 -37 94.5 -61.5t108.5 -24.5q35 0 74 10l40 10q11 0 11 -14q0 -24 -133 -92t-158 -68q-14 0 -120 63.5t-128 63.5q-25 0 -114.5 -63.5t-94.5 -63.5 q-141 103 -192 127q-30 14 -39 21.5t-9 15.5zM123 741q0 -111 70 -168t206 -57q63 0 79.5 6.5t17.5 34.5v297q0 36 -3.5 46.5t-15.5 19.5q-33 22 -118 49.5t-123 27.5q-31 0 -58 -49t-41 -107.5t-14 -99.5zM283 248q0 -32 59 -76.5t113 -44.5q23 0 32 13.5t9 47.5v263 q0 41 -25 41h-143q-24 0 -34.5 -11.5t-10.5 -38.5v-194zM676 578q0 -21 8 -21q11 0 27 23l145 217q6 9 6 18q0 15 -33 59l-88 123q-26 37 -47 37q-18 0 -18 -30v-426z" />
<glyph unicode="&#xe7;" horiz-adv-x="661" d="M104 135q0 8 4 13t9.5 8.5t9.5 17.5t4 37v735q0 57 19 68q33 19 92 57t99.5 64t45.5 26q17 0 29 -2l141 -20q7 -2 31 6l24 8q5 2 11 4t9.5 3t6.5 1q6 0 14.5 -7t8.5 -13q0 -12 -44 -96t-63 -84q-12 0 -104.5 20t-106.5 20t-23.5 -11t-9.5 -21v-711q0 -43 54 -87t135 -44 q36 0 73 7t41 7q15 0 15 -20q0 -8 -78 -48t-150 -71l-51 -72q82 -12 120 -46t38 -95q0 -82 -74.5 -136t-187.5 -54q-35 0 -111 16l8 35q46 -10 70 -10q60 0 98.5 31.5t38.5 80.5q0 86 -153 80l114 156q-21 10 -114 75t-93 72z" />
<glyph unicode="&#xe8;" horiz-adv-x="681" d="M113 141q0 5 11 27t11 43v788q0 8 6 15t19 14t26.5 13.5t37 17t42.5 20.5q14 7 50 28t65 36.5t35 15.5q22 0 104 -66.5t92 -66.5q15 0 31 18.5t23 18.5q16 0 16 -12q0 -6 -12 -27q-56 -88 -176.5 -267t-178.5 -270v-106q0 -124 33 -162q33 -33 114.5 -60.5t117.5 -27.5 q26 0 55 9.5t35 9.5q8 0 8 -13q0 -16 -64.5 -55t-201.5 -113l-150 78q-95 49 -122 66t-27 28zM119 1548h223l104 -346h-32zM315 547h4l37 55.5t36 53.5t30.5 46t27 42.5t19.5 32t14 26t4 14.5q0 19 -67 112t-80 93q-15 0 -20 -42t-5 -179v-254z" />
<glyph unicode="&#xe9;" horiz-adv-x="681" d="M113 141q0 5 11 27t11 43v788q0 8 6 15t19 14t26.5 13.5t37 17t42.5 20.5q14 7 50 28t65 36.5t35 15.5q22 0 104 -66.5t92 -66.5q15 0 31 18.5t23 18.5q16 0 16 -12q0 -6 -12 -27q-56 -88 -176.5 -267t-178.5 -270v-106q0 -124 33 -162q33 -33 114.5 -60.5t117.5 -27.5 q26 0 55 9.5t35 9.5q8 0 8 -13q0 -16 -64.5 -55t-201.5 -113l-150 78q-95 49 -122 66t-27 28zM315 547h4l37 55.5t36 53.5t30.5 46t27 42.5t19.5 32t14 26t4 14.5q0 19 -67 112t-80 93q-15 0 -20 -42t-5 -179v-254zM358 1212l107 347h223l-295 -347h-35z" />
<glyph unicode="&#xea;" horiz-adv-x="681" d="M113 141q0 5 11 27t11 43v788q0 8 6 15t19 14t26.5 13.5t37 17t42.5 20.5q14 7 50 28t65 36.5t35 15.5q22 0 104 -66.5t92 -66.5q15 0 31 18.5t23 18.5q16 0 16 -12q0 -6 -12 -27q-56 -88 -176.5 -267t-178.5 -270v-106q0 -124 33 -162q33 -33 114.5 -60.5t117.5 -27.5 q26 0 55 9.5t35 9.5q8 0 8 -13q0 -16 -64.5 -55t-201.5 -113l-150 78q-95 49 -122 66t-27 28zM121 1174l188 329h185l190 -329h-31l-272 212l-229 -212h-31zM315 547h4l37 55.5t36 53.5t30.5 46t27 42.5t19.5 32t14 26t4 14.5q0 19 -67 112t-80 93q-15 0 -20 -42t-5 -179 v-254z" />
<glyph unicode="&#xeb;" horiz-adv-x="681" d="M113 141q0 5 11 27t11 43v788q0 8 6 15t19 14t26.5 13.5t37 17t42.5 20.5q14 7 50 28t65 36.5t35 15.5q22 0 104 -66.5t92 -66.5q15 0 31 18.5t23 18.5q16 0 16 -12q0 -6 -12 -27q-56 -88 -176.5 -267t-178.5 -270v-106q0 -124 33 -162q33 -33 114.5 -60.5t117.5 -27.5 q26 0 55 9.5t35 9.5q8 0 8 -13q0 -16 -64.5 -55t-201.5 -113l-150 78q-95 49 -122 66t-27 28zM125 1362q0 2 61 68q32 32 39 32q11 0 21 -10l67 -61q25 -19 25 -27q0 -4 -6 -10l-76 -86q-12 -17 -18 -17q-11 0 -49.5 37.5t-55.5 61.5q-1 3 -4.5 6.5t-3.5 5.5zM315 547h4 l37 55.5t36 53.5t30.5 46t27 42.5t19.5 32t14 26t4 14.5q0 19 -67 112t-80 93q-15 0 -20 -42t-5 -179v-254zM428 1362q0 5 59 68q32 32 39 32q11 0 21 -10l67 -61q25 -19 25 -27q0 -4 -6 -10l-76 -86q-12 -17 -16 -17q-13 0 -51.5 37t-55.5 62q-1 3 -3.5 6.5t-2.5 5.5z" />
<glyph unicode="&#xec;" horiz-adv-x="385" d="M-72 1548h224l104 -346h-33zM41 1024q0 13 38 75t56 62q12 0 90 -67q12 -10 28.5 -23.5t25.5 -21t18.5 -16t13.5 -15t4 -12.5q0 -7 -4 -13q-16 -27 -16 -94v-688q0 -69 53 -105q17 -8 17 -16q0 -17 -62.5 -66t-73.5 -49q-24 0 -79.5 58t-55.5 71q0 4 6 13q15 23 15 71 v707q0 35 -47 88q-27 30 -27 41z" />
<glyph unicode="&#xed;" horiz-adv-x="385" d="M41 1024q0 13 38 75t56 62q12 0 90 -67q12 -10 28.5 -23.5t25.5 -21t18.5 -16t13.5 -15t4 -12.5q0 -7 -4 -13q-16 -27 -16 -94v-688q0 -69 53 -105q17 -8 17 -16q0 -17 -62.5 -66t-73.5 -49q-24 0 -79.5 58t-55.5 71q0 4 6 13q15 23 15 71v707q0 35 -47 88q-27 30 -27 41 zM106 1202l107 346h223l-295 -346h-35z" />
<glyph unicode="&#xee;" horiz-adv-x="385" d="M-80 1174l189 329h184l190 -329h-30l-273 212l-229 -212h-31zM41 1024q0 13 38 75t56 62q12 0 90 -67q12 -10 28.5 -23.5t25.5 -21t18.5 -16t13.5 -15t4 -12.5q0 -7 -4 -13q-16 -27 -16 -94v-688q0 -69 53 -105q17 -8 17 -16q0 -17 -62.5 -66t-73.5 -49q-24 0 -79.5 58 t-55.5 71q0 4 6 13q15 23 15 71v707q0 35 -47 88q-27 30 -27 41z" />
<glyph unicode="&#xef;" horiz-adv-x="385" d="M-66 1362q0 1 62 68q32 32 39 32q10 0 20 -10l68 -61q24 -19 24 -27q0 -4 -6 -10l-75 -86q-12 -17 -19 -17q-11 0 -49 37.5t-55 61.5q-1 3 -5 6.5t-4 5.5zM41 1024q0 13 38 75t56 62q12 0 90 -67q12 -10 28.5 -23.5t25.5 -21t18.5 -16t13.5 -15t4 -12.5q0 -7 -4 -13 q-16 -27 -16 -94v-688q0 -69 53 -105q17 -8 17 -16q0 -17 -62.5 -66t-73.5 -49q-24 0 -79.5 58t-55.5 71q0 4 6 13q15 23 15 71v707q0 35 -47 88q-27 30 -27 41zM238 1362q0 5 59 68q32 32 39 32q10 0 20 -10l68 -61q25 -19 25 -27q0 -3 -7 -10l-75 -86q-12 -17 -17 -17 q-12 0 -50.5 37t-55.5 62q-1 3 -3.5 6.5t-2.5 5.5z" />
<glyph unicode="&#xf0;" d="M53 1444q0 8 15 8q2 0 48 -10t64 -10q22 0 30.5 6.5t8.5 21.5q0 6 -2 18.5t-2 18.5q0 19 10 19q8 0 13 -5l155 -159l195 102q12 5 21 0t9 -16.5t-12 -18.5l-184 -96l242 -250q15 -16 22.5 -41t8.5 -41.5t1 -50.5v-797q0 -12 -9.5 -20.5t-37.5 -20.5q-30 -14 -86 -47.5 t-98.5 -57.5t-54.5 -24q-13 0 -185 88q-88 45 -114.5 61t-26.5 25t18.5 22.5t18.5 37.5v768q0 36 24 49l203 113l-96 98l-141 -74q-30 -17 -38 4q-4 16 7 23l145 76l-162 166q-10 10 -10 14zM301 297q0 -37 13.5 -57t50.5 -37q111 -51 129 -51q22 0 22 49v737q0 26 -32.5 63 t-43.5 37t-75 -39.5t-64 -54.5v-647z" />
<glyph unicode="&#xf1;" d="M35 1020q0 23 56.5 77t68.5 54t66.5 -51t68.5 -51q13 0 29 10l172 104q12 4 120.5 -68.5t108.5 -84.5q0 -9 -12 -19q-27 -22 -27 -55v-766q0 -49 16 -49q4 0 23.5 10t22.5 10q6 0 9 -10t-1 -16q-218 -125 -236 -125q-9 0 -11.5 10.5t-2.5 46.5v789q0 75 -45.5 127.5 t-110.5 52.5q-38 0 -48.5 -20t-10.5 -91v-905h-180q8 219 8 496q0 401 -25 458q-7 16 -22 30t-26 22.5t-11 13.5zM76 1249q3 126 52 193t138 67q42 0 84.5 -17.5t110.5 -64.5q88 -57 127 -57q40 0 61 31t35 108h31q1 -71 -16.5 -124t-47.5 -82t-64 -42.5t-71 -13.5 q-70 0 -188 80q-60 40 -82 51t-49 11q-18 0 -31.5 -7.5t-22 -18t-16 -31.5t-11.5 -37.5t-10 -45.5h-30z" />
<glyph unicode="&#xf2;" d="M74 147q0 9 18.5 22.5t18.5 37.5v778q0 23 6.5 30.5t42.5 24.5q95 43 159 84q61 37 74 37q23 0 170.5 -74.5t147.5 -95.5q0 -13 -12.5 -20.5t-12.5 -28.5v-799q0 -12 -9.5 -20.5t-37.5 -20.5q-30 -14 -86.5 -47.5t-98.5 -57.5t-55 -24q-12 0 -184 88q-88 45 -114.5 61 t-26.5 25zM121 1548h223l105 -346h-33zM291 297q0 -37 13 -57t50 -37q111 -51 129 -51q23 0 23 49v673q0 20 -82.5 73.5t-106.5 53.5q-11 0 -18.5 -11.5t-7.5 -28.5v-664z" />
<glyph unicode="&#xf3;" d="M74 147q0 9 18.5 22.5t18.5 37.5v778q0 23 6.5 30.5t42.5 24.5q95 43 159 84q61 37 74 37q23 0 170.5 -74.5t147.5 -95.5q0 -13 -12.5 -20.5t-12.5 -28.5v-799q0 -12 -9.5 -20.5t-37.5 -20.5q-30 -14 -86.5 -47.5t-98.5 -57.5t-55 -24q-12 0 -184 88q-88 45 -114.5 61 t-26.5 25zM291 297q0 -37 13 -57t50 -37q111 -51 129 -51q23 0 23 49v673q0 20 -82.5 73.5t-106.5 53.5q-11 0 -18.5 -11.5t-7.5 -28.5v-664zM350 1212l107 347h223l-295 -347h-35z" />
<glyph unicode="&#xf4;" d="M74 147q0 9 18.5 22.5t18.5 37.5v778q0 23 6.5 30.5t42.5 24.5q95 43 159 84q61 37 74 37q23 0 170.5 -74.5t147.5 -95.5q0 -13 -12.5 -20.5t-12.5 -28.5v-799q0 -12 -9.5 -20.5t-37.5 -20.5q-30 -14 -86.5 -47.5t-98.5 -57.5t-55 -24q-12 0 -184 88q-88 45 -114.5 61 t-26.5 25zM123 1174l188 329h185l190 -329h-31l-272 212l-229 -212h-31zM291 297q0 -37 13 -57t50 -37q111 -51 129 -51q23 0 23 49v673q0 20 -82.5 73.5t-106.5 53.5q-11 0 -18.5 -11.5t-7.5 -28.5v-664z" />
<glyph unicode="&#xf5;" d="M74 147q0 9 18.5 22.5t18.5 37.5v778q0 23 6.5 30.5t42.5 24.5q95 43 159 84q61 37 74 37q23 0 170.5 -74.5t147.5 -95.5q0 -13 -12.5 -20.5t-12.5 -28.5v-799q0 -12 -9.5 -20.5t-37.5 -20.5q-30 -14 -86.5 -47.5t-98.5 -57.5t-55 -24q-12 0 -184 88q-88 45 -114.5 61 t-26.5 25zM76 1249q3 126 52 193t138 67q42 0 84.5 -17.5t110.5 -64.5q88 -57 127 -57q40 0 61 31t35 108h31q1 -71 -16.5 -124t-47.5 -82t-64 -42.5t-71 -13.5q-70 0 -188 80q-60 40 -82 51t-49 11q-18 0 -31.5 -7.5t-22 -18t-16 -31.5t-11.5 -37.5t-10 -45.5h-30zM291 297 q0 -37 13 -57t50 -37q111 -51 129 -51q23 0 23 49v673q0 20 -82.5 73.5t-106.5 53.5q-11 0 -18.5 -11.5t-7.5 -28.5v-664z" />
<glyph unicode="&#xf6;" d="M74 147q0 9 18.5 22.5t18.5 37.5v778q0 23 6.5 30.5t42.5 24.5q95 43 159 84q61 37 74 37q23 0 170.5 -74.5t147.5 -95.5q0 -13 -12.5 -20.5t-12.5 -28.5v-799q0 -12 -9.5 -20.5t-37.5 -20.5q-30 -14 -86.5 -47.5t-98.5 -57.5t-55 -24q-12 0 -184 88q-88 45 -114.5 61 t-26.5 25zM147 1341q0 1 62 68q33 33 39 33q10 0 20 -10l68 -62q24 -19 24 -27q0 -4 -6 -10l-75 -86q-11 -16 -19 -16q-11 0 -49 37t-55 61q-1 3 -5 6.5t-4 5.5zM291 297q0 -37 13 -57t50 -37q111 -51 129 -51q23 0 23 49v673q0 20 -82.5 73.5t-106.5 53.5 q-11 0 -18.5 -11.5t-7.5 -28.5v-664zM451 1341q0 5 59 68q33 33 39 33q10 0 20 -10l68 -62q25 -19 25 -27q0 -3 -7 -10l-75 -86q-11 -16 -17 -16q-13 0 -51 36.5t-55 61.5q-1 3 -3.5 6.5t-2.5 5.5z" />
<glyph unicode="&#xf7;" horiz-adv-x="1366" d="M137 479v131h1090v-131h-1090zM596 201q0 35 25.5 60.5t60.5 25.5t59.5 -25t24.5 -59q0 -35 -24.5 -60.5t-59.5 -25.5t-60.5 25t-25.5 59zM596 893q2 33 26.5 56.5t59.5 23.5q34 0 58 -25t24 -59q0 -35 -24 -60.5t-58 -25.5q-35 0 -60.5 26.5t-25.5 63.5z" />
<glyph unicode="&#xf8;" horiz-adv-x="798" d="M74 147q0 9 18.5 22.5t18.5 37.5v778q0 23 6.5 30.5t42.5 24.5q95 43 159 84q61 37 74 37t98 -39t146 -75l53 98q12 21 29 13t4 -32l-53 -100q41 -24 41 -35q0 -13 -12.5 -20.5t-12.5 -28.5v-799q0 -12 -9.5 -20.5t-37.5 -20.5q-30 -14 -86.5 -47.5t-98.5 -57.5t-55 -24 q-12 0 -184 88q-46 24 -49 27l-51 -96q-8 -15 -20 -16.5t-16 9t1 23.5l53 98q-59 30 -59 41zM291 264q0 -31 63 -61q111 -51 129 -51q23 0 23 49v553l-215 -467v-23zM291 367l215 467v40q0 20 -82.5 73.5t-106.5 53.5q-11 0 -18.5 -11.5t-7.5 -28.5v-594z" />
<glyph unicode="&#xf9;" d="M45 1018q0 2 41 69q8 12 15.5 24t11 18.5t8 13t6.5 9.5t5 5.5t5 3t6 0.5q13 0 91.5 -69t78.5 -78q0 -6 -6 -15q-14 -22 -14 -43v-559q0 -140 34.5 -200t116.5 -60q27 0 44.5 7t17.5 18v739q0 37 -27.5 70t-79.5 47q-20 6 -20 10q0 15 57.5 74t69.5 59q14 0 110.5 -65 t96.5 -86q0 -9 -6 -17q-12 -14 -16.5 -35.5t-4.5 -70.5v-690q0 -28 6.5 -36.5t28.5 -8.5q3 0 11 2t11 2q13 0 13 -15q0 -9 -11 -18.5t-43 -30.5q-31 -20 -54.5 -37.5t-57.5 -44t-43 -33.5q-27 -20 -31 -20q-9 0 -11 35t1 98q-51 -14 -115 -65q-59 -50 -84 -50q-21 0 -76 43 q-64 50 -112 78q-43 25 -43 39q0 6 9 14.5t18.5 23.5t9.5 36v678q0 59 -50 106q-18 15 -18 25zM70 1548h223l104 -346h-32z" />
<glyph unicode="&#xfa;" d="M45 1018q0 2 41 69q8 12 15.5 24t11 18.5t8 13t6.5 9.5t5 5.5t5 3t6 0.5q13 0 91.5 -69t78.5 -78q0 -6 -6 -15q-14 -22 -14 -43v-559q0 -140 34.5 -200t116.5 -60q27 0 44.5 7t17.5 18v739q0 37 -27.5 70t-79.5 47q-20 6 -20 10q0 15 57.5 74t69.5 59q14 0 110.5 -65 t96.5 -86q0 -9 -6 -17q-12 -14 -16.5 -35.5t-4.5 -70.5v-690q0 -28 6.5 -36.5t28.5 -8.5q3 0 11 2t11 2q13 0 13 -15q0 -9 -11 -18.5t-43 -30.5q-31 -20 -54.5 -37.5t-57.5 -44t-43 -33.5q-27 -20 -31 -20q-9 0 -11 35t1 98q-51 -14 -115 -65q-59 -50 -84 -50q-21 0 -76 43 q-64 50 -112 78q-43 25 -43 39q0 6 9 14.5t18.5 23.5t9.5 36v678q0 59 -50 106q-18 15 -18 25zM299 1212l107 347h223l-295 -347h-35z" />
<glyph unicode="&#xfb;" d="M45 1018q0 2 41 69q8 12 15.5 24t11 18.5t8 13t6.5 9.5t5 5.5t5 3t6 0.5q13 0 91.5 -69t78.5 -78q0 -6 -6 -15q-14 -22 -14 -43v-559q0 -140 34.5 -200t116.5 -60q27 0 44.5 7t17.5 18v739q0 37 -27.5 70t-79.5 47q-20 6 -20 10q0 15 57.5 74t69.5 59q14 0 110.5 -65 t96.5 -86q0 -9 -6 -17q-12 -14 -16.5 -35.5t-4.5 -70.5v-690q0 -28 6.5 -36.5t28.5 -8.5q3 0 11 2t11 2q13 0 13 -15q0 -9 -11 -18.5t-43 -30.5q-31 -20 -54.5 -37.5t-57.5 -44t-43 -33.5q-27 -20 -31 -20q-9 0 -11 35t1 98q-51 -14 -115 -65q-59 -50 -84 -50q-21 0 -76 43 q-64 50 -112 78q-43 25 -43 39q0 6 9 14.5t18.5 23.5t9.5 36v678q0 59 -50 106q-18 15 -18 25zM102 1194l189 330h184l191 -330h-31l-273 213l-229 -213h-31z" />
<glyph unicode="&#xfc;" d="M45 1018q0 2 41 69q8 12 15.5 24t11 18.5t8 13t6.5 9.5t5 5.5t5 3t6 0.5q13 0 91.5 -69t78.5 -78q0 -6 -6 -15q-14 -22 -14 -43v-559q0 -140 34.5 -200t116.5 -60q27 0 44.5 7t17.5 18v739q0 37 -27.5 70t-79.5 47q-20 6 -20 10q0 15 57.5 74t69.5 59q14 0 110.5 -65 t96.5 -86q0 -9 -6 -17q-12 -14 -16.5 -35.5t-4.5 -70.5v-690q0 -28 6.5 -36.5t28.5 -8.5q3 0 11 2t11 2q13 0 13 -15q0 -9 -11 -18.5t-43 -30.5q-31 -20 -54.5 -37.5t-57.5 -44t-43 -33.5q-27 -20 -31 -20q-9 0 -11 35t1 98q-51 -14 -115 -65q-59 -50 -84 -50q-21 0 -76 43 q-64 50 -112 78q-43 25 -43 39q0 6 9 14.5t18.5 23.5t9.5 36v678q0 59 -50 106q-18 15 -18 25zM117 1362q0 2 61 68q32 32 39 32q11 0 21 -10l67 -61q25 -19 25 -27q0 -4 -6 -10l-76 -86q-12 -17 -19 -17q-11 0 -49 37.5t-55 61.5q-1 3 -4.5 6.5t-3.5 5.5zM420 1362 q0 5 59 68q32 32 39 32q11 0 21 -10l67 -61q25 -19 25 -27q0 -4 -6 -10l-76 -86q-12 -17 -17 -17q-12 0 -50.5 37t-55.5 62q-1 3 -3.5 6.5t-2.5 5.5z" />
<glyph unicode="&#xfd;" horiz-adv-x="811" d="M66 1028q0 5 18 25q90 108 104 108q6 0 86 -76t80 -79q0 -9 -12 -15q-16 -8 -16 -22v-617q0 -103 54.5 -173t133.5 -70q21 0 25 10.5t4 64.5v631q0 80 -31.5 134.5t-85.5 64.5q-14 3 -14 10q0 2 14.5 19t33 37t21.5 24q31 39 41 48t21 9q4 0 20 -10.5t41 -29t33 -23.5 l35 -22q34 -21 57 -37.5t23 -20.5q0 -8 -9 -17q-12 -14 -16 -29t-4 -48v-803q0 -27 -7 -34.5t-30 -10.5q-75 -9 -166.5 -31t-189 -57.5t-162 -90t-64.5 -116.5q0 -45 36.5 -78t88.5 -33q50 0 103 22.5t98 55t88 64.5t87 54.5t81 22.5q58 0 95.5 -38.5t37.5 -98.5 q0 -41 -15.5 -73.5t-35.5 -32.5q-16 0 -16 12q0 6 11 25.5t11 35.5q0 60 -76 60q-36 0 -89 -22.5t-102 -49.5t-117.5 -49.5t-131.5 -22.5q-84 0 -132 41.5t-48 112.5q0 68 46 116.5t161 100.5l-107 84q-28 23 -53 25q-19 3 -19 14q0 7 15 16t19.5 17.5t4.5 25.5v705 q0 37 -12.5 62t-44.5 46q-22 16 -22 27zM319 1202l107 346h223l-295 -346h-35z" />
<glyph unicode="&#xfe;" horiz-adv-x="788" d="M43 4q0 34 47 111q33 54 33 67v725q0 26 -19 45q-14 14 -14 27q0 10 14 22q19 14 19 37v385q0 15 10 15q8 0 21 -17q16 -16 20 -16q11 0 55.5 54t57.5 54q16 0 16 -34v-439q35 10 98.5 63.5t87.5 53.5q25 0 133.5 -71t108.5 -89q0 -14 -14 -20q-11 -5 -14 -10.5t-3 -20.5 v-745q0 -69 -4 -85t-28 -34q-31 -21 -81.5 -57.5t-77.5 -55t-32 -18.5q-53 9 -174 22v-176q0 -82 103 -123q34 -12 34 -22q0 -21 -49 -21q-81 0 -170 66q-17 14 -24 14q-4 0 -12.5 -14t-19 -34t-11.5 -21q-15 -11 -31 -11v344q-56 0 -68 4t-12 25zM303 168q0 -21 81 -41.5 t103 -20.5q19 0 26 16t7 56v686q0 60 -52.5 106t-121.5 46q-43 0 -43 -62v-786z" />
<glyph unicode="&#xff;" horiz-adv-x="811" d="M66 1028q0 5 18 25q90 108 104 108q6 0 86 -76t80 -79q0 -9 -12 -15q-16 -8 -16 -22v-617q0 -103 54.5 -173t133.5 -70q21 0 25 10.5t4 64.5v631q0 80 -31.5 134.5t-85.5 64.5q-14 3 -14 10q0 2 14.5 19t33 37t21.5 24q31 39 41 48t21 9q4 0 20 -10.5t41 -29t33 -23.5 l35 -22q34 -21 57 -37.5t23 -20.5q0 -8 -9 -17q-12 -14 -16 -29t-4 -48v-803q0 -27 -7 -34.5t-30 -10.5q-75 -9 -166.5 -31t-189 -57.5t-162 -90t-64.5 -116.5q0 -45 36.5 -78t88.5 -33q50 0 103 22.5t98 55t88 64.5t87 54.5t81 22.5q58 0 95.5 -38.5t37.5 -98.5 q0 -41 -15.5 -73.5t-35.5 -32.5q-16 0 -16 12q0 6 11 25.5t11 35.5q0 60 -76 60q-36 0 -89 -22.5t-102 -49.5t-117.5 -49.5t-131.5 -22.5q-84 0 -132 41.5t-48 112.5q0 68 46 116.5t161 100.5l-107 84q-28 23 -53 25q-19 3 -19 14q0 7 15 16t19.5 17.5t4.5 25.5v705 q0 37 -12.5 62t-44.5 46q-22 16 -22 27zM137 1362q0 1 62 68q32 32 39 32q10 0 20 -10l68 -61q24 -19 24 -27q0 -4 -6 -10l-76 -86q-12 -17 -18 -17q-11 0 -49.5 37.5t-55.5 61.5q-1 3 -4.5 6.5t-3.5 5.5zM440 1362q0 4 60 68q32 32 39 32q10 0 20 -10l68 -61q24 -19 24 -27 q0 -4 -6 -10l-76 -86q-12 -17 -16 -17q-13 0 -51.5 37t-55.5 62q-1 3 -3.5 6.5t-2.5 5.5z" />
<glyph unicode="&#x152;" horiz-adv-x="2048" d="M137 705q0 135 29.5 250t78 196t114.5 145.5t135.5 104.5t144.5 66t137.5 36t118.5 10q278 0 487 -165l260 161q24 -6 117 -34.5t173.5 -52t90.5 -23.5q29 0 50 18q4 4 6 4q6 0 12 -6.5t6 -11.5q0 -24 -66 -86.5t-145 -125t-145 -118.5t-66 -69q0 -15 17 -15 q147 0 252 10q-25 -157 -25 -258q0 -17 2 -55t2 -55q0 -14 -2.5 -19.5t-11.5 -5.5q-5 0 -11 20.5t-12 60.5t-10 91q-2 20 -9 24.5t-40 4.5h-354q-16 0 -25.5 -6.5t-9.5 -16.5v-219q0 -46 -14 -68.5t-58 -50.5q-48 -29 -79.5 -56.5t-72.5 -74.5q175 -57 372 -86.5t267 -29.5 q58 0 102 15.5t63.5 33.5t35 33.5t23.5 15.5q6 0 12 -7t6 -14q0 -19 -47 -63l-68 -63q-118 -111 -166 -144t-96 -33q-146 0 -418 90q-200 -90 -405 -90q-336 0 -547 204t-211 528zM360 864q0 -228 65.5 -423.5t139.5 -274.5h4v1227q-209 -151 -209 -529zM606 135 q125 -119 271 -119q61 0 123.5 25t99.5 63q33 33 55 81.5t32.5 105.5t16 126.5t5 145t-0.5 160.5q-30 -26 -51.5 -44.5t-43 -38.5t-32.5 -30q-104 -96 -125 -96q-15 0 -78 74t-81 74q-10 0 -65.5 -44.5t-125.5 -107.5v-375zM606 551l322 274q39 31 51 31q17 0 76.5 -73.5 t68.5 -73.5q17 0 84 63v105q0 202 -24 294.5t-94 161.5q-58 57 -139.5 88t-170.5 31q-103 0 -174 -39v-862zM1438 907q0 -26 8 -26t27 14l331 281q35 27 35 43q0 27 -160.5 78t-220.5 51q-20 0 -20 -11v-430z" />
<glyph unicode="&#x153;" horiz-adv-x="1067" d="M84 139q0 11 14 19q13 8 18 15.5t5 25.5v802q0 12 12.5 19.5t51 23t73.5 35.5q12 7 49 30.5t63 38.5t31 15q12 0 109.5 -46t118.5 -46t96 46t86 46q14 0 93 -67.5t91 -67.5q9 0 23 17.5t22 17.5q17 0 17 -12q0 -4 -13 -27l-256 -416q-68 -111 -78 -138q-12 -31 -12 -81 q0 -114 37 -151q40 -40 107 -72.5t112 -32.5q27 0 57.5 8.5t35.5 8.5q8 0 8 -13q0 -17 -121 -91.5t-146 -74.5q-8 0 -92.5 50.5t-99.5 50.5q-16 0 -102 -50.5t-105 -50.5q-3 0 -6.5 1t-9 3t-11.5 5l-16 8l-19 9.5t-24.5 13t-28.5 15.5t-35 18.5t-40 21.5q-79 42 -97 53.5 t-18 19.5zM301 307q0 -32 10.5 -57t24.5 -35l67 -45q77 -51 97 -51q18 0 18 41v686q0 29 -16 41l-101 78q-62 47 -82 47q-18 0 -18 -37v-668zM698 553h9q11 12 24.5 29t23.5 31.5t26.5 41t24 38.5t26.5 44t24 41q21 38 21 53q0 16 -23 46l-111 137q-17 20 -26 20 q-8 0 -13.5 -9t-5.5 -24v-448z" />
<glyph unicode="&#x178;" horiz-adv-x="1665" d="M119 1425q-3 11 6 27q136 -15 219 -18.5t344 -6.5q517 -7 928 3q47 0 67 12q16 8 21 8q7 0 11.5 -5.5t4.5 -12.5q0 -22 -49 -35q-61 -11 -90 -22t-29 -32q0 -12 12.5 -32t25 -54.5t12.5 -80.5q0 -35 -9.5 -83.5t-31.5 -114t-68 -143.5t-109 -149q-121 -135 -292.5 -272.5 t-327.5 -231.5q-57 -35 -86 -53.5t-68 -46.5t-57.5 -48t-38 -47t-26.5 -55t-7 -61q0 -50 22 -88.5t55.5 -59.5t68 -31.5t65.5 -10.5q118 0 205.5 65.5t87.5 144.5q0 19 -13.5 33.5t-25 19.5t-14.5 5l-33 -2q-6 0 -6 10q0 21 38 51.5t85 30.5q21 0 47.5 -8t53 -34t26.5 -65 q0 -17 -6 -32l102 37q46 16 90 16q33 0 67 -9.5t66 -29.5t52 -56.5t20 -84.5q0 -35 -11.5 -63.5t-27.5 -43.5t-30 -23t-21 -8q-3 0 -6 1.5t-5.5 6t1.5 13.5q14 21 14 33q0 44 -48.5 78t-119.5 34q-50 0 -102 -13.5t-83 -26.5t-91 -42q-173 -88 -308 -88q-116 0 -196 64 t-80 176q0 35 8 67t19 56t33 50t37.5 41.5t47 38t47 32.5t50.5 32q57 34 57 66q0 9 -6 31t-19 59.5t-27.5 76.5t-37.5 98t-42.5 107.5t-49 122t-49.5 123.5t-52.5 129.5t-50.5 124.5q-88 215 -96 228q-10 18 -23.5 24.5t-52.5 16.5q-55 14 -94 30zM463 1632q0 55 38.5 94 t92.5 39t93.5 -39t39.5 -94q0 -54 -39 -92.5t-94 -38.5q-54 0 -92.5 38.5t-38.5 92.5zM494 1630q0 -36 29.5 -69.5t86.5 -28.5q-28 47 -28 100q0 47 22 99q-51 1 -80.5 -29.5t-29.5 -71.5zM543 1370q0 -19 19 -79t64.5 -181.5t75 -198.5t95.5 -247q80 -198 114 -250 q21 -33 35 -33q9 0 27 15.5t18 27.5l-20 45q-185 390 -324 866q-14 58 -53 58q-51 0 -51 -23zM678 1366q0 -10 57 -192q83 -273 244 -621q23 -52 31.5 -67t17.5 -15q4 0 23.5 19t50.5 57t59 80q26 41 43.5 74t37 86t29 123.5t9.5 156.5q0 138 -56 226.5t-143 90.5 q-61 0 -383 5q-7 0 -13.5 -6.5t-6.5 -16.5zM1061 1632q0 56 38.5 94.5t92.5 38.5t93.5 -39t39.5 -94q0 -54 -39 -92.5t-94 -38.5t-93 38.5t-38 92.5zM1092 1632q0 -46 36 -76t82 -22q-28 58 -28 104q0 38 22 95q-32 -1 -55 -11.5t-33.5 -22.5t-16.5 -29t-6.5 -24t-0.5 -14z " />
<glyph unicode="&#x2c6;" horiz-adv-x="681" d="M33 1223q0 12 14.5 27.5t77.5 72.5l168 162q18 14 45 14q18 0 36 -13t95 -79q188 -158 205 -168q4 -2 10 -8t6 -10q0 -6 -6 -11.5t-12 -5.5q-21 0 -115.5 71.5t-150.5 123.5q-5 -4 -63 -59t-103 -94t-56 -40h-116q-35 0 -35 17zM78 1237h82q3 3 95 90.5t110 108.5l-41 34 z" />
<glyph unicode="&#x2dc;" horiz-adv-x="681" d="M2 1477q0 10 9.5 16t19.5 6q7 0 12.5 -5t6.5 -7.5t5 -11.5q9 -24 38.5 -56.5t68.5 -32.5q29 0 172 66q106 47 162 47q36 0 66 -10.5t48 -23.5t34.5 -34.5t23 -33.5t14.5 -29q9 -18 24 -68t15 -65q0 -16 -23 -16q-10 0 -15 6t-21 35q-40 67 -93 67q-49 0 -153 -53 q-108 -55 -176 -55q-50 0 -92.5 22t-68.5 53.5t-44 69t-25.5 66.5t-7.5 47zM76 1391q14 -38 44 -60.5t49 -26.5t34 -4q9 0 18 1t16 2t17.5 5t15 5.5t18 7.5t17.5 8l21 10.5t22 10.5q103 57 172 57q82 0 137 -66l5 5q-13 24 -21.5 37t-29.5 37.5t-50 37t-65 12.5 q-47 0 -150 -47q-104 -46 -133 -56.5t-55 -10.5q-18 0 -42 9t-36 30z" />
<glyph unicode="&#x2000;" horiz-adv-x="897" />
<glyph unicode="&#x2001;" horiz-adv-x="1794" />
<glyph unicode="&#x2002;" horiz-adv-x="897" />
<glyph unicode="&#x2003;" horiz-adv-x="1794" />
<glyph unicode="&#x2004;" horiz-adv-x="598" />
<glyph unicode="&#x2005;" horiz-adv-x="448" />
<glyph unicode="&#x2006;" horiz-adv-x="299" />
<glyph unicode="&#x2007;" horiz-adv-x="299" />
<glyph unicode="&#x2008;" horiz-adv-x="224" />
<glyph unicode="&#x2009;" horiz-adv-x="358" />
<glyph unicode="&#x200a;" horiz-adv-x="99" />
<glyph unicode="&#x2010;" horiz-adv-x="370" d="M70 524q0 12 7.5 21t31.5 24q209 123 217 123q2 0 5.5 -15.5t6 -37t2.5 -37.5q0 -10 -24 -26.5t-126 -75.5q-5 -2 -32.5 -18.5t-52 -31t-25.5 -14.5q-4 0 -5.5 3t-3 23t-1.5 62z" />
<glyph unicode="&#x2011;" horiz-adv-x="370" d="M70 524q0 12 7.5 21t31.5 24q209 123 217 123q2 0 5.5 -15.5t6 -37t2.5 -37.5q0 -10 -24 -26.5t-126 -75.5q-5 -2 -32.5 -18.5t-52 -31t-25.5 -14.5q-4 0 -5.5 3t-3 23t-1.5 62z" />
<glyph unicode="&#x2012;" horiz-adv-x="370" d="M70 524q0 12 7.5 21t31.5 24q209 123 217 123q2 0 5.5 -15.5t6 -37t2.5 -37.5q0 -10 -24 -26.5t-126 -75.5q-5 -2 -32.5 -18.5t-52 -31t-25.5 -14.5q-4 0 -5.5 3t-3 23t-1.5 62z" />
<glyph unicode="&#x2013;" horiz-adv-x="1024" d="M20 479q0 5 5.5 15.5t13.5 24t12 20.5q16 32 32 38.5t58 6.5h842q21 0 21 -13q0 -3 -7 -16t-17 -31t-15 -28q-18 -41 -74 -41h-850q-21 0 -21 24z" />
<glyph unicode="&#x2014;" horiz-adv-x="2048" d="M20 479q0 5 5.5 15.5t13.5 24t12 20.5q16 32 32 38.5t58 6.5h1866q21 0 21 -13q0 -3 -7 -16t-17 -31t-15 -28q-18 -41 -74 -41h-1874q-21 0 -21 24z" />
<glyph unicode="&#x2018;" horiz-adv-x="512" d="M154 1266q0 45 19 87t46 69.5t55.5 49t48.5 31.5t25 10q10 0 10 -6q0 -10 -22 -32q-57 -64 -57 -119q0 -61 73 -125q35 -27 35 -41q0 -12 -46 -62.5t-58 -50.5q-10 0 -40 24.5t-59.5 71t-29.5 93.5z" />
<glyph unicode="&#x2019;" horiz-adv-x="512" d="M154 1401q0 12 46 62t58 50q7 0 27 -15t43.5 -39.5t41 -61t17.5 -72.5q0 -45 -19 -87t-46 -70t-55.5 -49.5t-48.5 -31.5t-25 -10q-11 0 -11 6q0 10 23 33q57 64 57 119q0 60 -74 125q-34 27 -34 41z" />
<glyph unicode="&#x201a;" horiz-adv-x="512" d="M143 121q0 12 46.5 62t58.5 50q7 0 27 -15t43.5 -39.5t41 -61t17.5 -72.5q0 -45 -19 -87t-46 -70t-56 -49.5t-49 -31.5t-25 -10q-10 0 -10 6q0 10 23 33q57 64 57 119q0 60 -74 125q-35 27 -35 41z" />
<glyph unicode="&#x201c;" d="M125 1266q0 45 19 87t46 69.5t55.5 49t48.5 31.5t25 10q11 0 11 -6q0 -9 -23 -32q-57 -64 -57 -119q0 -60 74 -125q34 -27 34 -41q0 -12 -46 -62.5t-58 -50.5q-10 0 -40 24.5t-59.5 71t-29.5 93.5zM465 1266q0 45 19 87t46 69.5t55.5 49t48.5 31.5t25 10q11 0 11 -6 q0 -9 -23 -32q-57 -64 -57 -119q0 -60 74 -125q34 -27 34 -41q0 -12 -46 -62.5t-58 -50.5q-10 0 -40 24.5t-59.5 71t-29.5 93.5z" />
<glyph unicode="&#x201d;" d="M125 1401q0 12 46 62t58 50q7 0 27 -15t43.5 -39.5t41 -61t17.5 -72.5q0 -45 -19 -87t-46 -70t-55.5 -49.5t-48.5 -31.5t-25 -10q-10 0 -10 6q0 11 22 33q57 64 57 119q0 61 -73 125q-35 27 -35 41zM465 1401q0 12 46 62t58 50q7 0 27 -15t43.5 -39.5t41 -61t17.5 -72.5 q0 -45 -19 -87t-46 -70t-55.5 -49.5t-48.5 -31.5t-25 -10q-10 0 -10 6q0 11 22 33q57 64 57 119q0 61 -73 125q-35 27 -35 41z" />
<glyph unicode="&#x201e;" d="M125 121q0 12 46 62t58 50q7 0 27 -15t43.5 -39.5t41 -61t17.5 -72.5q0 -45 -19 -87t-46 -70t-55.5 -49.5t-48.5 -31.5t-25 -10q-10 0 -10 6q0 11 22 33q57 64 57 119q0 61 -73 125q-35 27 -35 41zM465 121q0 12 46 62t58 50q7 0 27 -15t43.5 -39.5t41 -61t17.5 -72.5 q0 -45 -19 -87t-46 -70t-55.5 -49.5t-48.5 -31.5t-25 -10q-10 0 -10 6q0 11 22 33q57 64 57 119q0 61 -73 125q-35 27 -35 41z" />
<glyph unicode="&#x2022;" horiz-adv-x="716" d="M158 737q0 3 15 20t48 53t49 54q54 62 74 62q15 0 39 -19l127 -116q49 -41 49 -52q0 -9 -14 -20l-139 -162q-25 -31 -37 -31q-22 0 -95.5 71t-105.5 118q-10 15 -10 22z" />
<glyph unicode="&#x2026;" horiz-adv-x="2048" d="M215 106q0 1 72 82q35 39 47 39t24 -12l82 -74q31 -24 31 -32q0 -7 -8 -15l-90 -102q-16 -21 -23 -21q-14 0 -61.5 45.5t-67.5 75.5q-6 12 -6 14zM897 106q0 1 72 82q35 39 47 39t24 -12l82 -74q31 -24 31 -32q0 -7 -8 -15l-90 -102q-16 -21 -23 -21q-14 0 -61.5 45.5 t-67.5 75.5q-6 12 -6 14zM1579 106q0 1 72 82q35 39 47 39t24 -12l82 -74q31 -24 31 -32q0 -7 -8 -15l-90 -102q-16 -21 -23 -21q-14 0 -61.5 45.5t-67.5 75.5q-6 12 -6 14z" />
<glyph unicode="&#x202f;" horiz-adv-x="358" />
<glyph unicode="&#x2039;" horiz-adv-x="512" d="M113 569l295 512h32l-145 -512l145 -512h-32z" />
<glyph unicode="&#x203a;" horiz-adv-x="512" d="M113 57l145 512l-145 512h32l295 -512l-295 -512h-32z" />
<glyph unicode="&#x205f;" horiz-adv-x="448" />
<glyph unicode="&#x20ac;" horiz-adv-x="686" d="M25 455l20 57h76q-2 14 -2 57q0 7 1 22t1 25h-96l20 58h78q14 246 85.5 354.5t223.5 108.5q144 0 203 -76l6 -115h-37q-13 123 -135 123q-82 0 -123.5 -95.5t-50.5 -299.5h283l-21 -58h-260q0 -8 -1 -25t-1 -24q0 -43 2 -55h221l-18 -57h-205q6 -201 48.5 -300.5 t127.5 -99.5q116 0 133 121h37l-6 -110q-27 -37 -73 -56.5t-130 -19.5q-152 0 -223.5 112t-83.5 353h-100z" />
<glyph unicode="&#x2122;" horiz-adv-x="2048" d="M-2 1251v226h776v-226h-35q-6 97 -49.5 135.5t-144.5 38.5h-37v-587q0 -85 18 -109t84 -24v-35h-454v35q73 4 87.5 23.5t14.5 113.5v583h-33q-97 0 -142 -40t-54 -134h-31zM885 670v35q73 1 90.5 23t17.5 112v467q0 87 -19.5 111.5t-88.5 21.5v37h366l232 -496l229 496 h346v-37q-64 0 -82 -23t-18 -112v-471q0 -78 18.5 -102t81.5 -27v-35h-461v35q74 0 94.5 23t20.5 106v505h-4l-315 -669h-25l-313 669h-4v-503q0 -86 19 -108t95 -23v-35h-280z" />
<glyph unicode="&#x25fc;" horiz-adv-x="1157" d="M0 0v1157h1157v-1157h-1157z" />
<glyph unicode="&#xfb01;" horiz-adv-x="813" d="M53 999q0 111 33 111q19 0 27 1.5t14 11t6 30.5v186q0 18 26.5 37.5t100.5 55.5q32 16 68 38t55.5 31.5t38.5 9.5q39 0 168 -37t129 -55q0 -12 -54.5 -82.5t-64.5 -70.5q-25 0 -136.5 66.5t-127.5 66.5q-17 0 -21 -12.5t-4 -40.5v-187q0 -30 11 -39.5t45 -9.5 q164 0 211 6.5t88 32.5q19 12 28 12q11 0 14 -5.5t3 -25.5v-833q0 -69 18 -106.5t62 -57.5q22 -11 22 -18q0 -8 -11 -19.5t-61 -54.5q-13 -11 -36 -32t-32.5 -28.5t-13.5 -7.5q-11 0 -86 67t-75 89q0 11 12 23q20 20 20 65v707q0 42 -17 49.5t-105 5.5h-25q-44 0 -57 -10 t-13 -45v-942q0 -14 -9 -21.5t-32 -13.5q-19 -5 -65 -25q-6 -3 -21 -13t-28.5 -18t-18.5 -8q-6 0 -6 25v1034q0 24 -11 29.5t-46 5.5q-13 0 -18 5t-5 17z" />
<glyph unicode="&#xfb02;" horiz-adv-x="811" d="M53 1006q0 59 16 84.5t52 25.5q4 0 6 1t4 6t2 16v204q0 21 9.5 30.5t43.5 23.5q65 27 97 49q60 37 94 52t63 15q28 0 93 -24.5t81 -24.5q23 0 53.5 24.5t34.5 24.5q9 0 9 -12v-1239q0 -35 15.5 -62.5t34.5 -40.5t34.5 -25.5t15.5 -20.5q0 -13 -62.5 -76.5t-74.5 -63.5 q-17 0 -93.5 72t-76.5 86q0 7 8 12q18 18 18 68v1057q0 24 -15 36t-99 56q-55 31 -72 31t-24 -9.5t-7 -31.5v-189q0 -29 9 -38t38 -9q44 0 56 -3.5t12 -16.5q0 -33 -3 -54t-6.5 -33t-14 -17t-18.5 -6t-26 -1q-35 0 -41 -7t-6 -48v-965q0 -20 -5.5 -29t-24.5 -16 q-88 -35 -129 -35q-21 0 -21 31v1030q0 22 -10 30.5t-35 8.5q-35 0 -35 23z" />
</font>
</defs>
</svg>
